<?xml version="1.0" encoding="UTF-8" standalone="no"?>
<!DOCTYPE svg PUBLIC "-//W3C//DTD SVG 1.0//EN" "http://www.w3.org/TR/2001/PR-SVG-20010719/DTD/svg10.dtd">
<svg width="42cm" height="10cm" viewBox="45 35 832 200" xmlns="http://www.w3.org/2000/svg" xmlns:xlink="http://www.w3.org/1999/xlink">
  <g>
    <rect style="fill: #ffffff" x="49" y="65.3142" width="165" height="42.6858"/>
    <rect style="fill: none; fill-opacity:0; stroke-width: 4; stroke: #000000" x="49" y="65.3142" width="165" height="42.6858"/>
    <text font-size="12.8" style="fill: #000000;text-anchor:middle;font-family:sans-serif;font-style:normal;font-weight:normal" x="131.5" y="90.5571">
      <tspan x="131.5" y="90.5571">Payer</tspan>
    </text>
  </g>
  <g>
    <rect style="fill: #ffffff" x="47.8" y="188.9" width="165" height="40"/>
    <rect style="fill: none; fill-opacity:0; stroke-width: 4; stroke: #000000" x="47.8" y="188.9" width="165" height="40"/>
    <text font-size="12.8" style="fill: #000000;text-anchor:middle;font-family:sans-serif;font-style:normal;font-weight:normal" x="130.3" y="212.8">
      <tspan x="130.3" y="212.8">Payment Agent</tspan>
    </text>
  </g>
  <text font-size="12.8" style="fill: #bbbbff;text-anchor:middle;font-family:sans-serif;font-style:normal;font-weight:700" x="216.592" y="134.771">
    <tspan x="216.592" y="134.771">Payer controls their </tspan>
    <tspan x="216.592" y="150.771">User Agent and their</tspan>
    <tspan x="216.592" y="166.771">Payment Agents</tspan>
  </text>
  <text font-size="12.8" style="fill: #000000;text-anchor:start;font-family:sans-serif;font-style:normal;font-weight:normal" x="415.536" y="49.3284">
    <tspan x="415.536" y="49.3284">1. Payer selects product or</tspan>
    <tspan x="415.536" y="65.3284">    service to purchase</tspan>
  </text>
  <text font-size="12.8" style="fill: #000000;text-anchor:start;font-family:sans-serif;font-style:normal;font-weight:normal" x="401.1" y="152.5">
    <tspan x="401.1" y="152.5">3. Payment Request is sent to</tspan>
    <tspan x="401.1" y="168.5">    Payment Agent via User Agent</tspan>
  </text>
  <text font-size="12.8" style="fill: #000000;text-anchor:start;font-family:sans-serif;font-style:normal;font-weight:normal" x="213.8" y="129.15">
    <tspan x="213.8" y="129.15"></tspan>
  </text>
  <text font-size="12.8" style="fill: #000000;text-anchor:start;font-family:sans-serif;font-style:normal;font-weight:normal" x="748.6" y="132">
    <tspan x="748.6" y="132">2. Payee generates</tspan>
    <tspan x="748.6" y="148">    Payment Request</tspan>
  </text>
  <text font-size="12.8" style="fill: #000000;text-anchor:start;font-family:sans-serif;font-style:normal;font-weight:normal" x="224.3" y="296.15">
    <tspan x="224.3" y="296.15"></tspan>
  </text>
  <text font-size="12.8" style="fill: #000000;text-anchor:start;font-family:sans-serif;font-style:normal;font-weight:normal" x="312.736" y="56.5834">
    <tspan x="312.736" y="56.5834"></tspan>
  </text>
  <text font-size="12.8" style="fill: #000000;text-anchor:start;font-family:sans-serif;font-style:normal;font-weight:normal" x="820.586" y="175.667">
    <tspan x="820.586" y="175.667"></tspan>
  </text>
  <text font-size="12.8" style="fill: #000000;text-anchor:start;font-family:sans-serif;font-style:normal;font-weight:normal" x="650.024" y="120.93">
    <tspan x="650.024" y="120.93"></tspan>
  </text>
  <text font-size="12.8" style="fill: #000000;text-anchor:start;font-family:sans-serif;font-style:normal;font-weight:normal" x="352.3" y="134.95">
    <tspan x="352.3" y="134.95"></tspan>
  </text>
  <text font-size="12.8" style="fill: #000000;text-anchor:start;font-family:sans-serif;font-style:normal;font-weight:normal" x="102" y="125">
    <tspan x="102" y="125"></tspan>
  </text>
  <g>
    <rect style="fill: #ffffff" x="621.6" y="37.9" width="86.4" height="195.1"/>
    <rect style="fill: none; fill-opacity:0; stroke-width: 4; stroke: #000000" x="621.6" y="37.9" width="86.4" height="195.1"/>
    <text font-size="12.8" style="fill: #000000;text-anchor:middle;font-family:sans-serif;font-style:normal;font-weight:normal" x="664.8" y="139.35">
      <tspan x="664.8" y="139.35">Payee</tspan>
    </text>
  </g>
  <text font-size="12.8" style="fill: #000000;text-anchor:start;font-family:sans-serif;font-style:normal;font-weight:normal" x="664.8" y="135.45">
    <tspan x="664.8" y="135.45"></tspan>
  </text>
  <g>
    <path style="fill: none; fill-opacity:0; stroke-width: 4; stroke-linejoin: round; stroke: #000000" d="M 741,96.675 A 10,10 0 0 0 731,86.675"/>
    <line style="fill: none; fill-opacity:0; stroke-width: 4; stroke-linejoin: round; stroke: #000000" x1="708" y1="86.675" x2="731" y2="86.675"/>
    <path style="fill: none; fill-opacity:0; stroke-width: 4; stroke-linejoin: round; stroke: #000000" d="M 733.575,184.225 A 7.42462,7.42462 0 0 0 741,176.8"/>
    <line style="fill: none; fill-opacity:0; stroke-width: 4; stroke-linejoin: round; stroke: #000000" x1="741" y1="96.675" x2="741" y2="176.8"/>
    <line style="fill: none; fill-opacity:0; stroke-width: 4; stroke-linejoin: round; stroke: #000000" x1="733.575" y1="184.225" x2="720" y2="184.225"/>
    <polygon style="fill: #000000" points="720,179.225 710,184.225 720,189.225 "/>
    <polygon style="fill: none; fill-opacity:0; stroke-width: 4; stroke: #000000" points="720,179.225 710,184.225 720,189.225 "/>
  </g>
  <g>
    <polyline style="fill: none; fill-opacity:0; stroke-width: 4; stroke: #000000" points="391.35,86.675 393.35,86.675 619.6,86.675 609.6,86.675 "/>
    <polygon style="fill: #000000" points="609.6,91.675 619.6,86.675 609.6,81.675 "/>
    <polygon style="fill: none; fill-opacity:0; stroke-width: 4; stroke: #000000" points="609.6,91.675 619.6,86.675 609.6,81.675 "/>
  </g>
  <g>
    <path style="fill: none; fill-opacity:0; stroke-width: 4; stroke-linejoin: round; stroke: #000000" d="M 506.724,184.225 A 8.72393,8.72393 0 0 0 498,192.949"/>
    <line style="fill: none; fill-opacity:0; stroke-width: 4; stroke-linejoin: round; stroke: #000000" x1="621.6" y1="184.225" x2="506.724" y2="184.225"/>
    <path style="fill: none; fill-opacity:0; stroke-width: 4; stroke-linejoin: round; stroke: #000000" d="M 492.36,208.9 A 5.63955,5.63955 0 0 0 498,203.26"/>
    <line style="fill: none; fill-opacity:0; stroke-width: 4; stroke-linejoin: round; stroke: #000000" x1="498" y1="192.949" x2="498" y2="203.26"/>
    <line style="fill: none; fill-opacity:0; stroke-width: 4; stroke-linejoin: round; stroke: #000000" x1="492.36" y1="208.9" x2="224.8" y2="208.9"/>
    <polygon style="fill: #000000" points="224.8,203.9 214.8,208.9 224.8,213.9 "/>
    <polygon style="fill: none; fill-opacity:0; stroke-width: 4; stroke: #000000" points="224.8,203.9 214.8,208.9 224.8,213.9 "/>
  </g>
  <text font-size="12.8" style="fill: #000000;text-anchor:start;font-family:sans-serif;font-style:normal;font-weight:normal" x="457" y="144">
    <tspan x="457" y="144"></tspan>
  </text>
  <g>
    <rect style="fill: #ffffff" x="296.25" y="37.9" width="95.1" height="195.1"/>
    <rect style="fill: none; fill-opacity:0; stroke-width: 4; stroke: #000000" x="296.25" y="37.9" width="95.1" height="195.1"/>
    <text font-size="12.8" style="fill: #000000;text-anchor:middle;font-family:sans-serif;font-style:normal;font-weight:normal" x="343.8" y="139.35">
      <tspan x="343.8" y="139.35">User Agent</tspan>
    </text>
  </g>
  <text font-size="12.8" style="fill: #000000;text-anchor:start;font-family:sans-serif;font-style:normal;font-weight:normal" x="562" y="157">
    <tspan x="562" y="157"></tspan>
  </text>
  <line style="fill: none; fill-opacity:0; stroke-width: 4; stroke-dasharray: 4; stroke: #000000" x1="131.5" y1="108" x2="130.3" y2="188.9"/>
  <line style="fill: none; fill-opacity:0; stroke-width: 4; stroke-dasharray: 4; stroke: #000000" x1="214" y1="86.6571" x2="296.25" y2="86.675"/>
</svg>
