<?xml version="1.0" standalone="yes"?>

<svg version="1.1" viewBox="0.0 0.0 432.0 288.0" fill="none" stroke="none" stroke-linecap="square" stroke-miterlimit="10" xmlns="http://www.w3.org/2000/svg" xmlns:xlink="http://www.w3.org/1999/xlink"><clipPath id="p.0"><path d="m0 0l432.0 0l0 288.0l-432.0 0l0 -288.0z" clip-rule="nonzero"></path></clipPath><g clip-path="url(#p.0)"><path fill="#000000" fill-opacity="0.0" d="m0 0l432.0 0l0 288.0l-432.0 0z" fill-rule="nonzero"></path><path fill="#b6d7a8" d="m251.36816 46.57054l0 0c0 -4.618412 3.7439728 -8.362373 8.362366 -8.362373l151.90518 0c2.2178345 0 4.3448486 0.88103485 5.913086 2.4492836c1.5682678 1.5682487 2.4492798 3.6952515 2.4492798 5.9130898l0 33.448486c0 4.618408 -3.7439575 8.362373 -8.362366 8.362373l-151.90518 0c-4.618393 0 -8.362366 -3.7439651 -8.362366 -8.362373z" fill-rule="nonzero"></path><path stroke="#000000" stroke-width="1.0" stroke-linejoin="round" stroke-linecap="butt" d="m251.36816 46.57054l0 0c0 -4.618412 3.7439728 -8.362373 8.362366 -8.362373l151.90518 0c2.2178345 0 4.3448486 0.88103485 5.913086 2.4492836c1.5682678 1.5682487 2.4492798 3.6952515 2.4492798 5.9130898l0 33.448486c0 4.618408 -3.7439575 8.362373 -8.362366 8.362373l-151.90518 0c-4.618393 0 -8.362366 -3.7439651 -8.362366 -8.362373z" fill-rule="nonzero"></path><path fill="#000000" d="m275.6011 57.34228l2.34375 -0.1875l0 11.906254l-2.34375 0.1875l0 -11.906254zm9.1171875 11.906254l-0.546875 -1.21875q-0.09375 0.375 -0.34375 0.671875q-0.09375 0.125 -0.25 0.25q-0.140625 0.109375 -0.34375 0.203125q-0.1875 0.109375 -0.4375 0.15625q-0.234375 0.0625 -0.546875 0.0625q-0.625 0 -1.109375 -0.28125q-0.46875 -0.28125 -0.8125 -0.859375q-0.328125 -0.59375 -0.5 -1.46875q-0.171875 -0.890625 -0.171875 -2.109375q0 -1.2500038 0.140625 -2.1250038q0.140625 -0.875 0.4375 -1.421875q0.296875 -0.5625 0.765625 -0.8125q0.46875 -0.265625 1.140625 -0.265625q0.1875 0 0.375 0.0625q0.1875 0.046875 0.359375 0.140625q0.1875 0.09375 0.359375 0.21875q0.171875 0.109375 0.3125 0.234375q0.328125 0.296875 0.625 0.65625l0 -3.90625l2.25 -0.28125l0 11.906254l-1.703125 0.1875zm-0.546875 -6.843754q-0.15625 -0.203125 -0.34375 -0.359375q-0.15625 -0.140625 -0.359375 -0.25q-0.1875 -0.109375 -0.390625 -0.109375q-0.40625 0 -0.640625 0.234375q-0.234375 0.21875 -0.359375 0.625q-0.109375 0.40625 -0.140625 0.953125q-0.03125 0.5312538 -0.03125 1.1562538q0 0.625 0.03125 1.1875q0.03125 0.5625 0.140625 0.984375q0.125 0.421875 0.359375 0.671875q0.234375 0.25 0.640625 0.25q0.203125 0 0.390625 -0.09375q0.203125 -0.109375 0.359375 -0.375q0.15625 -0.265625 0.25 -0.71875q0.09375 -0.453125 0.09375 -1.15625l0 -3.0000038zm6.0078125 2.5625038q0 0.421875 0.046875 0.90625q0.0625 0.484375 0.1875 0.890625q0.125 0.40625 0.328125 0.671875q0.21875 0.265625 0.53125 0.265625q0.265625 0 0.484375 -0.203125q0.21875 -0.21875 0.375 -0.484375q0.171875 -0.265625 0.265625 -0.5q0.09375 -0.234375 0.125 -0.28125l1.703125 0.65625q-0.15625 0.546875 -0.421875 1.0q-0.25 0.453125 -0.625 0.78125q-0.359375 0.328125 -0.84375 0.515625q-0.484375 0.1875 -1.109375 0.1875q-0.8125 0 -1.4375 -0.34375q-0.625 -0.359375 -1.03125 -0.96875q-0.40625 -0.625 -0.625 -1.484375q-0.203125 -0.859375 -0.203125 -1.875q0 -1.0312538 0.203125 -1.8906288q0.21875 -0.859375 0.640625 -1.46875q0.421875 -0.625 1.046875 -0.96875q0.640625 -0.34375 1.484375 -0.34375q0.8125 0 1.40625 0.34375q0.609375 0.34375 1.015625 0.96875q0.40625 0.609375 0.609375 1.46875q0.203125 0.859375 0.203125 1.8906288l-0.03125 0.109375q-0.015625 0.046875 -0.03125 0.09375q0 0.03125 0 0.0625l-4.296875 0zm2.140625 -1.2968788q0 -0.453125 -0.0625 -0.828125q-0.046875 -0.390625 -0.171875 -0.65625q-0.125 -0.28125 -0.328125 -0.4375q-0.203125 -0.171875 -0.484375 -0.171875q-0.203125 0 -0.40625 0.171875q-0.203125 0.15625 -0.359375 0.4375q-0.140625 0.265625 -0.234375 0.65625q-0.09375 0.375 -0.09375 0.828125l2.140625 0zm8.0703125 -0.53125q0 -0.65625 -0.234375 -0.921875q-0.21875 -0.265625 -0.578125 -0.265625q-0.296875 0 -0.671875 0.203125q-0.375 0.1875 -0.765625 0.421875l0 6.484379l-2.25 0.1875l0 -8.906254l2.25 -0.1875l0 1.140625q0.671875 -0.578125 1.328125 -0.921875q0.671875 -0.34375 1.25 -0.34375q0.421875 0 0.765625 0.171875q0.359375 0.15625 0.609375 0.453125q0.265625 0.28125 0.40625 0.703125q0.140625 0.421875 0.140625 0.953125l0 6.750004l-2.25 0.1875l0 -6.109379zm4.703125 -2.984375l0.21875 -1.953125l1.953125 -0.28125l0 2.234375l1.84375 0l-0.09375 1.6875l-1.734375 0l0 4.953129q0 0.265625 0.109375 0.4375q0.109375 0.171875 0.265625 0.265625q0.171875 0.09375 0.375 0.125q0.203125 0.03125 0.390625 0.03125q0.25 0 0.40625 -0.03125q0.078125 -0.015625 0.15625 -0.03125l0 1.546875q-0.171875 0.078125 -0.421875 0.125q-0.203125 0.03125 -0.53125 0.0625q-0.3125 0.046875 -0.765625 0.046875q-0.359375 0 -0.765625 -0.109375q-0.390625 -0.109375 -0.71875 -0.359375q-0.328125 -0.25 -0.546875 -0.65625q-0.203125 -0.40625 -0.203125 -1.0l0 -5.406254l-1.265625 0l0.09375 -1.6875l1.234375 0zm5.140625 0.1875l2.25 -0.1875l0 8.906254l-2.25 0.1875l0 -8.906254zm2.25 -3.6875l0 2.25l-2.25 0l0 -2.234375l2.25 -0.015625zm2.34375 5.1875l-1.109375 0l0.09375 -1.6875l1.015625 0l0 -0.171875q0 -0.546875 0.046875 -1.0625q0.046875 -0.53125 0.25 -0.9375q0.21875 -0.40625 0.671875 -0.65625q0.453125 -0.25 1.265625 -0.25q0.421875 0 0.703125 0.046875q0.296875 0.03125 0.46875 0.0625q0.21875 0.0625 0.359375 0.125l0 1.34375l-0.5 0q-0.34375 0 -0.546875 0.125q-0.203125 0.109375 -0.3125 0.296875q-0.09375 0.1875 -0.125 0.4375q-0.03125 0.234375 -0.03125 0.46875l0 0.171875l1.59375 0l-0.09375 1.6875l-1.5 0l0 7.218754l-2.25 0.1875l0 -7.406254zm4.984375 -1.5l2.25 -0.1875l0 8.906254l-2.25 0.1875l0 -8.906254zm2.25 -3.6875l0 2.25l-2.25 0l0 -2.234375l2.25 -0.015625zm3.765625 8.312504q0 0.421875 0.046875 0.90625q0.0625 0.484375 0.1875 0.890625q0.125 0.40625 0.328125 0.671875q0.21875 0.265625 0.53125 0.265625q0.265625 0 0.484375 -0.203125q0.21875 -0.21875 0.375 -0.484375q0.171875 -0.265625 0.265625 -0.5q0.09375 -0.234375 0.125 -0.28125l1.703125 0.65625q-0.15625 0.546875 -0.421875 1.0q-0.25 0.453125 -0.625 0.78125q-0.359375 0.328125 -0.84375 0.515625q-0.484375 0.1875 -1.109375 0.1875q-0.8125 0 -1.4375 -0.34375q-0.625 -0.359375 -1.03125 -0.96875q-0.40625 -0.625 -0.625 -1.484375q-0.203125 -0.859375 -0.203125 -1.875q0 -1.0312538 0.203125 -1.8906288q0.21875 -0.859375 0.640625 -1.46875q0.421875 -0.625 1.046875 -0.96875q0.640625 -0.34375 1.484375 -0.34375q0.8125 0 1.40625 0.34375q0.609375 0.34375 1.015625 0.96875q0.40625 0.609375 0.609375 1.46875q0.203125 0.859375 0.203125 1.8906288l-0.03125 0.109375q-0.015625 0.046875 -0.03125 0.09375q0 0.03125 0 0.0625l-4.296875 0zm2.140625 -1.2968788q0 -0.453125 -0.0625 -0.828125q-0.046875 -0.390625 -0.171875 -0.65625q-0.125 -0.28125 -0.328125 -0.4375q-0.203125 -0.171875 -0.484375 -0.171875q-0.203125 0 -0.40625 0.171875q-0.203125 0.15625 -0.359375 0.4375q-0.140625 0.265625 -0.234375 0.65625q-0.09375 0.375 -0.09375 0.828125l2.140625 0zm3.5703125 -3.328125l2.25 -0.1875l0 1.4375q0.203125 -0.25 0.46875 -0.53125q0.265625 -0.28125 0.59375 -0.5q0.34375 -0.234375 0.75 -0.375q0.421875 -0.15625 0.921875 -0.15625q0.03125 0 0.078125 0.015625q0.046875 0 0.09375 0q0.046875 0.015625 0.09375 0.015625l0 2.6875q-0.359375 -0.109375 -0.734375 -0.21875q-0.375 -0.125 -0.765625 -0.125q-0.375 0 -0.75 0.171875q-0.359375 0.15625 -0.75 0.578125l0 5.906254l-2.25 0.1875l0 -8.906254zm10.5390625 8.906254l0 -12.000004l2.84375 -0.09375q0.984375 0 1.796875 0.1875q0.8125 0.1875 1.390625 0.609375q0.59375 0.40625 0.90625 1.046875q0.3125 0.625 0.3125 1.5q0 0.578125 -0.125 1.046875q-0.125 0.46875 -0.359375 0.84375q-0.21875 0.359375 -0.53125 0.640625q-0.3125 0.28125 -0.703125 0.5q0 0.015625 0.09375 0.25q0.09375 0.21875 0.25 0.5937538q0.15625 0.359375 0.34375 0.828125q0.1875 0.46875 0.390625 0.953125q0.484375 1.140625 1.09375 2.578125l-2.3125 0.640625l-2.140625 -5.484379l-0.90625 0l0 5.171879l-2.34375 0.1875zm2.34375 -7.093754l0.796875 0q0.34375 0 0.65625 -0.046875q0.328125 -0.0625 0.578125 -0.234375q0.25 -0.1875 0.390625 -0.5q0.140625 -0.328125 0.140625 -0.859375q0 -0.421875 -0.109375 -0.703125q-0.109375 -0.28125 -0.3125 -0.453125q-0.203125 -0.1875 -0.46875 -0.25q-0.265625 -0.078125 -0.578125 -0.078125l-1.09375 0l0 3.125zm8.375 2.8125038q0 0.421875 0.046875 0.90625q0.0625 0.484375 0.1875 0.890625q0.125 0.40625 0.328125 0.671875q0.21875 0.265625 0.53125 0.265625q0.265625 0 0.484375 -0.203125q0.21875 -0.21875 0.375 -0.484375q0.171875 -0.265625 0.265625 -0.5q0.09375 -0.234375 0.125 -0.28125l1.703125 0.65625q-0.15625 0.546875 -0.421875 1.0q-0.25 0.453125 -0.625 0.78125q-0.359375 0.328125 -0.84375 0.515625q-0.484375 0.1875 -1.109375 0.1875q-0.8125 0 -1.4375 -0.34375q-0.625 -0.359375 -1.03125 -0.96875q-0.40625 -0.625 -0.625 -1.484375q-0.203125 -0.859375 -0.203125 -1.875q0 -1.0312538 0.203125 -1.8906288q0.21875 -0.859375 0.640625 -1.46875q0.421875 -0.625 1.046875 -0.96875q0.640625 -0.34375 1.484375 -0.34375q0.8125 0 1.40625 0.34375q0.609375 0.34375 1.015625 0.96875q0.40625 0.609375 0.609375 1.46875q0.203125 0.859375 0.203125 1.8906288l-0.03125 0.109375q-0.015625 0.046875 -0.03125 0.09375q0 0.03125 0 0.0625l-4.296875 0zm2.140625 -1.2968788q0 -0.453125 -0.0625 -0.828125q-0.046875 -0.390625 -0.171875 -0.65625q-0.125 -0.28125 -0.328125 -0.4375q-0.203125 -0.171875 -0.484375 -0.171875q-0.203125 0 -0.40625 0.171875q-0.203125 0.15625 -0.359375 0.4375q-0.140625 0.265625 -0.234375 0.65625q-0.09375 0.375 -0.09375 0.828125l2.140625 0zm2.9453125 6.453129q0 -0.234375 0.0625 -0.4375q0.078125 -0.1875 0.1875 -0.359375q0.109375 -0.15625 0.25 -0.296875q0.140625 -0.140625 0.296875 -0.25q0.34375 -0.265625 0.78125 -0.4375q-0.375 -0.09375 -0.671875 -0.265625q-0.125 -0.0625 -0.25 -0.15625q-0.109375 -0.09375 -0.203125 -0.203125q-0.09375 -0.125 -0.15625 -0.265625q-0.0625 -0.140625 -0.0625 -0.296875q0 -0.21875 0.078125 -0.421875q0.078125 -0.21875 0.1875 -0.390625q0.125 -0.1875 0.265625 -0.34375q0.15625 -0.15625 0.3125 -0.296875q0.375 -0.3125 0.859375 -0.546875q-0.40625 -0.234375 -0.71875 -0.578125q-0.140625 -0.15625 -0.265625 -0.328125q-0.125 -0.1875 -0.234375 -0.4062538q-0.09375 -0.234375 -0.15625 -0.484375q-0.0625 -0.265625 -0.0625 -0.578125q0 -0.671875 0.28125 -1.1875q0.296875 -0.515625 0.765625 -0.859375q0.46875 -0.34375 1.0625 -0.515625q0.59375 -0.1875 1.1875 -0.1875q0.4375 0 0.78125 0.0625q0.359375 0.0625 0.625 0.171875q0.28125 0.09375 0.5 0.21875q0.21875 0.109375 0.375 0.21875q0.125 -0.109375 0.3125 -0.28125q0.203125 -0.171875 0.453125 -0.34375q0.265625 -0.171875 0.5625 -0.296875q0.3125 -0.125 0.609375 -0.125q0.046875 0 0.078125 0.015625q0.046875 0 0.078125 0q0.046875 0.015625 0.09375 0.015625l0 1.890625q-0.21875 -0.078125 -0.40625 -0.140625q-0.15625 -0.0625 -0.328125 -0.109375q-0.15625 -0.046875 -0.25 -0.046875q-0.09375 0 -0.171875 0.03125q-0.0625 0.015625 -0.125 0.03125q-0.078125 0.03125 -0.140625 0.0625q0.09375 0.234375 0.171875 0.46875q0.0625 0.203125 0.109375 0.4375q0.0625 0.234375 0.0625 0.4375q0 0.484375 -0.203125 1.0q-0.203125 0.5000038 -0.59375 0.9218788q-0.390625 0.421875 -0.96875 0.6875q-0.578125 0.25 -1.34375 0.15625q-0.3125 0 -0.546875 -0.015625q-0.234375 -0.015625 -0.390625 -0.015625q-0.328125 0.09375 -0.46875 0.21875q-0.125 0.109375 -0.125 0.53125q0 0.21875 0.15625 0.375q0.171875 0.15625 0.40625 0.1875l2.125 0.15625q0.609375 0.046875 1.09375 0.203125q0.5 0.140625 0.84375 0.453125q0.34375 0.3125 0.53125 0.734375q0.1875 0.421875 0.1875 0.96875q0 0.515625 -0.1875 0.90625q-0.1875 0.40625 -0.515625 0.6875q-0.3125 0.296875 -0.734375 0.5q-0.40625 0.203125 -0.875 0.3125q-0.453125 0.125 -0.921875 0.171875q-0.46875 0.0625 -0.890625 0.0625q-0.90625 0 -1.609375 -0.140625q-0.703125 -0.125 -1.1875 -0.375q-0.46875 -0.234375 -0.71875 -0.578125q-0.25 -0.328125 -0.25 -0.734375zm2.046875 -0.6875q0 0.203125 0.109375 0.359375q0.109375 0.15625 0.34375 0.265625q0.234375 0.109375 0.609375 0.171875q0.390625 0.0625 0.9375 0.0625q0.796875 0 1.21875 -0.265625q0.4375 -0.265625 0.4375 -0.734375q0 -0.265625 -0.1875 -0.421875q-0.1875 -0.15625 -0.453125 -0.21875q-0.265625 -0.078125 -0.546875 -0.09375q-0.265625 -0.03125 -0.4375 -0.03125l-1.3125 0q-0.125 0.03125 -0.265625 0.109375q-0.125 0.0625 -0.234375 0.1875q-0.09375 0.109375 -0.15625 0.265625q-0.0625 0.15625 -0.0625 0.34375zm0.703125 -6.734379q0 0.25 0.03125 0.53125q0.046875 0.265625 0.15625 0.5q0.109375 0.21875 0.3125 0.3750038q0.21875 0.140625 0.546875 0.140625q0.46875 0 0.734375 -0.3906288q0.265625 -0.390625 0.265625 -1.109375q0 -0.359375 -0.078125 -0.609375q-0.078125 -0.25 -0.21875 -0.40625q-0.140625 -0.171875 -0.328125 -0.25q-0.1875 -0.09375 -0.390625 -0.09375q-0.265625 0 -0.46875 0.125q-0.1875 0.125 -0.3125 0.3125q-0.125 0.1875 -0.1875 0.421875q-0.0625 0.234375 -0.0625 0.453125zm6.5390625 -2.359375l2.25 -0.1875l0 8.906254l-2.25 0.1875l0 -8.906254zm2.25 -3.6875l0 2.25l-2.25 0l0 -2.234375l2.25 -0.015625zm3.171875 9.859379q0.078125 0.3125 0.25 0.546875q0.140625 0.203125 0.390625 0.375q0.265625 0.15625 0.671875 0.15625q0.15625 0 0.359375 -0.03125q0.203125 -0.046875 0.375 -0.125q0.171875 -0.09375 0.28125 -0.21875q0.125 -0.140625 0.125 -0.359375q0 -0.28125 -0.203125 -0.46875q-0.203125 -0.1875 -0.484375 -0.296875l-1.875 -0.765625q-0.765625 -0.3125 -1.171875 -0.953125q-0.390625 -0.6406288 -0.390625 -1.5781288q0 -0.671875 0.25 -1.1875q0.265625 -0.515625 0.6875 -0.859375q0.421875 -0.359375 0.96875 -0.53125q0.546875 -0.1875 1.125 -0.1875q0.484375 0 0.953125 0.140625q0.484375 0.140625 0.890625 0.421875q0.40625 0.28125 0.703125 0.6875q0.296875 0.40625 0.453125 0.921875l-1.84375 0.578125q-0.09375 -0.296875 -0.234375 -0.546875q-0.140625 -0.203125 -0.359375 -0.359375q-0.21875 -0.171875 -0.546875 -0.171875q-0.171875 0 -0.34375 0.046875q-0.171875 0.03125 -0.3125 0.125q-0.140625 0.078125 -0.234375 0.21875q-0.078125 0.140625 -0.078125 0.328125q0 0.140625 0.078125 0.265625q0.09375 0.125 0.203125 0.21875q0.125 0.09375 0.25 0.171875q0.140625 0.0625 0.25 0.109375l1.609375 0.65625q0.375 0.17187881 0.703125 0.4062538q0.328125 0.21875 0.578125 0.53125q0.25 0.3125 0.390625 0.734375q0.140625 0.421875 0.140625 0.96875q0 0.71875 -0.28125 1.265625q-0.265625 0.53125 -0.71875 0.890625q-0.4375 0.359375 -1.0 0.546875q-0.5625 0.1875 -1.140625 0.1875q-0.6875 0 -1.234375 -0.171875q-0.53125 -0.15625 -0.9375 -0.453125q-0.390625 -0.296875 -0.65625 -0.71875q-0.25 -0.421875 -0.375 -0.953125l1.734375 -0.5625zm6.578125 -6.359379l0.21875 -1.953125l1.953125 -0.28125l0 2.234375l1.84375 0l-0.09375 1.6875l-1.734375 0l0 4.953129q0 0.265625 0.109375 0.4375q0.109375 0.171875 0.265625 0.265625q0.171875 0.09375 0.375 0.125q0.203125 0.03125 0.390625 0.03125q0.25 0 0.40625 -0.03125q0.078125 -0.015625 0.15625 -0.03125l0 1.546875q-0.171875 0.078125 -0.421875 0.125q-0.203125 0.03125 -0.53125 0.0625q-0.3125 0.046875 -0.765625 0.046875q-0.359375 0 -0.765625 -0.109375q-0.390625 -0.109375 -0.71875 -0.359375q-0.328125 -0.25 -0.546875 -0.65625q-0.203125 -0.40625 -0.203125 -1.0l0 -5.406254l-1.265625 0l0.09375 -1.6875l1.234375 0zm5.140625 0.1875l2.25 -0.1875l0 1.4375q0.203125 -0.25 0.46875 -0.53125q0.265625 -0.28125 0.59375 -0.5q0.34375 -0.234375 0.75 -0.375q0.421875 -0.15625 0.921875 -0.15625q0.03125 0 0.078125 0.015625q0.046875 0 0.09375 0q0.046875 0.015625 0.09375 0.015625l0 2.6875q-0.359375 -0.109375 -0.734375 -0.21875q-0.375 -0.125 -0.765625 -0.125q-0.375 0 -0.75 0.171875q-0.359375 0.15625 -0.75 0.578125l0 5.906254l-2.25 0.1875l0 -8.906254zm5.7578125 9.703129q0.203125 0 0.390625 0.015625q0.15625 0 0.3125 0q0.15625 0.015625 0.234375 0.015625q0.390625 0 0.65625 -0.09375q0.265625 -0.09375 0.4375 -0.265625q0.171875 -0.171875 0.25 -0.421875q0.078125 -0.25 0.078125 -0.546875l0 -0.4375l-2.578125 -8.046879l2.4375 -0.109375l1.265625 5.625004l1.203125 -5.578129l2.03125 -0.015625l-2.3125 8.796879q-0.28125 1.0 -0.703125 1.59375q-0.40625 0.59375 -0.875 0.90625q-0.46875 0.328125 -0.953125 0.421875q-0.484375 0.109375 -0.921875 0.109375q-0.171875 0 -0.34375 -0.015625q-0.171875 -0.015625 -0.296875 -0.03125q-0.15625 -0.03125 -0.3125 -0.046875l0 -1.875z" fill-rule="nonzero"></path><path fill="#000000" fill-opacity="0.0" d="m93.73419 90.04724l0 161.41733" fill-rule="nonzero"></path><path stroke="#999999" stroke-width="2.0" stroke-linejoin="round" stroke-linecap="butt" stroke-dasharray="8.0,6.0" d="m93.73419 90.04724l0 161.41733" fill-rule="nonzero"></path><path fill="#000000" fill-opacity="0.0" d="m335.68433 90.04724l0 161.41733" fill-rule="nonzero"></path><path stroke="#999999" stroke-width="2.0" stroke-linejoin="round" stroke-linecap="butt" stroke-dasharray="8.0,6.0" d="m335.68433 90.04724l0 161.41733" fill-rule="nonzero"></path><path fill="#000000" fill-opacity="0.0" d="m96.93892 153.56425l236.03148 0" fill-rule="nonzero"></path><path stroke="#000000" stroke-width="2.0" stroke-linejoin="round" stroke-linecap="butt" d="m96.93891 153.56425l224.0315 0" fill-rule="evenodd"></path><path fill="#000000" stroke="#000000" stroke-width="2.0" stroke-linecap="butt" d="m320.9704 156.86772l9.076202 -3.3034668l-9.076202 -3.3034668z" fill-rule="evenodd"></path><path fill="#000000" fill-opacity="0.0" d="m102.38511 118.18893l222.77167 0l0 29.07087l-222.77167 0z" fill-rule="nonzero"></path><path fill="#000000" d="m138.5505 131.36392q-0.0625 1.390625 -0.0625 3.40625q0 3.25 0.078125 4.046875l0.03125 0.28125q0.03125 0.21875 0.265625 0.328125q0.25 0.09375 0.921875 0.21875l-0.046875 0.375q-0.78125 -0.03125 -1.875 -0.03125q-1.078125 0 -2.09375 0.03125l-0.046875 -0.375q0.21875 -0.046875 0.484375 -0.09375q0.28125 -0.046875 0.4375 -0.078125q0.15625 -0.046875 0.25 -0.078125q0.09375 -0.03125 0.1875 -0.078125q0.171875 -0.078125 0.1875 -0.21875q0.09375 -0.765625 0.09375 -2.78125q0 -3.140625 -0.078125 -3.875l-0.015625 -0.203125l-1.5625 -0.265625l-0.046875 -0.46875q1.625 0 2.609375 -0.265625l0.28125 0.125zm3.4962158 8.546875q-0.1875 0.1875 -0.484375 0.1875q-0.28125 0 -0.484375 -0.1875q-0.1875 -0.203125 -0.1875 -0.5q0 -0.3125 0.1875 -0.5q0.203125 -0.203125 0.484375 -0.203125q0.296875 0 0.484375 0.203125q0.203125 0.1875 0.203125 0.5q0 0.296875 -0.203125 0.5zm8.031143 0.109375q-0.84375 -0.03125 -1.828125 -0.03125q-0.984375 0 -1.796875 0.03125l-0.046875 -0.375q0.671875 -0.125 0.90625 -0.21875q0.234375 -0.109375 0.25 -0.328125q0.109375 -0.765625 0.109375 -2.78125q0 -3.265625 -0.078125 -4.078125l-0.03125 -0.265625q-0.015625 -0.21875 -0.234375 -0.3125q-0.203125 -0.109375 -0.828125 -0.234375l0.03125 -0.375q0.828125 0.03125 1.75 0.03125l2.25 0q1.265625 0 1.921875 0.609375q0.65625 0.59375 0.65625 1.46875q0 1.59375 -1.765625 2.453125l2.296875 3.8125q0.296875 0.15625 1.078125 0.21875l-0.046875 0.375l-2.1875 0.078125l-2.3125 -4.296875q-0.4375 0.03125 -1.328125 0.03125q0 2.40625 0.09375 3.0625l0.046875 0.203125q0.03125 0.234375 0.25 0.328125q0.234375 0.09375 0.875 0.21875l-0.03125 0.375zm1.84375 -6.859375q0 -1.53125 -2.15625 -1.53125q-0.46875 0 -0.609375 0.0625q-0.140625 0.046875 -0.1875 0.21875q-0.125 0.78125 -0.125 3.40625q1.421875 0 2.03125 -0.125q1.046875 -0.640625 1.046875 -2.03125zm7.4031525 2.671875q0 -0.609375 -0.34375 -0.890625q-0.328125 -0.296875 -0.75 -0.296875q-0.609375 0 -1.046875 0.484375q-0.4375 0.484375 -0.59375 1.1875l2.703125 -0.109375q0.03125 -0.203125 0.03125 -0.375zm-1.125 4.265625q-1.375 0 -2.078125 -0.78125q-0.703125 -0.78125 -0.703125 -2.078125q0 -1.3125 0.765625 -2.265625q0.78125 -0.96875 2.34375 -0.96875q0.78125 0 1.375 0.5625q0.59375 0.5625 0.59375 1.671875l-0.4375 0.53125q-0.078125 -0.015625 -1.234375 -0.015625q-1.140625 0 -2.296875 0.09375l0 0.109375q0 1.1875 0.484375 1.78125q0.5 0.59375 1.359375 0.59375q0.859375 0 1.796875 -0.421875l0.15625 0.390625q-1.0 0.796875 -2.125 0.796875zm8.492584 -6.5625q0.109375 0 0.34375 0.3125q0.25 0.296875 0.328125 0.609375l-0.203125 0.234375q-0.234375 -0.109375 -0.5625 -0.109375q-0.328125 0 -0.609375 0.140625q0.453125 0.5625 0.453125 1.46875q0 0.90625 -0.59375 1.5625q-0.59375 0.640625 -1.765625 0.640625q-0.296875 0 -0.578125 -0.046875q-0.484375 0.625 -0.484375 0.859375q0 0.296875 0.859375 0.296875l0.96875 0q2.453125 0 2.453125 1.59375q0 0.875 -0.984375 1.59375q-0.96875 0.71875 -2.625 0.71875q-0.96875 0 -1.671875 -0.328125q-0.703125 -0.3125 -0.703125 -0.890625q0 -0.84375 1.34375 -1.921875q-0.8125 -0.171875 -0.8125 -0.609375q0 -0.453125 1.171875 -1.40625q-1.3125 -0.40625 -1.3125 -2.09375q0 -0.859375 0.59375 -1.5q0.609375 -0.640625 1.703125 -0.640625q1.109375 0 1.65625 0.390625q0.15625 -0.25 0.46875 -0.5625q0.328125 -0.3125 0.5625 -0.3125zm-4.28125 8.21875q0 0.515625 0.375 0.828125q0.390625 0.3125 1.234375 0.3125q0.859375 0 1.515625 -0.546875q0.671875 -0.546875 0.671875 -1.15625q0 -0.390625 -0.34375 -0.640625q-0.328125 -0.234375 -1.046875 -0.234375l-1.75 0q-0.65625 0.71875 -0.65625 1.4375zm1.6875 -7.203125q-0.375 0 -0.65625 0.1875q-0.28125 0.171875 -0.421875 0.4375q-0.21875 0.515625 -0.21875 1.109375q0 0.578125 0.296875 1.078125q0.296875 0.5 0.9375 0.5q0.46875 0 0.765625 -0.28125q0.3125 -0.28125 0.40625 -0.578125q0.109375 -0.296875 0.125 -0.625q0 -1.828125 -1.234375 -1.828125zm5.7651367 -2.078125q-0.1875 0.203125 -0.484375 0.203125q-0.28125 0 -0.484375 -0.203125q-0.1875 -0.203125 -0.1875 -0.5q0 -0.296875 0.1875 -0.484375q0.203125 -0.203125 0.484375 -0.203125q0.296875 0 0.484375 0.203125q0.203125 0.1875 0.203125 0.484375q0 0.296875 -0.203125 0.5zm0.0625 1.671875l-0.03125 2.859375q0 1.6875 0.109375 2.1875l0.015625 0.171875q0.015625 0.09375 0.328125 0.1875q0.328125 0.078125 0.59375 0.09375l-0.03125 0.375q-0.625 -0.03125 -1.53125 -0.03125q-0.890625 0 -1.515625 0.03125l0.046875 -0.375q0.265625 -0.015625 0.578125 -0.09375q0.3125 -0.09375 0.328125 -0.1875q0.109375 -0.453125 0.109375 -1.8125q0 -2.21875 -0.109375 -2.703125l-0.828125 -0.25l-0.03125 -0.34375q0.828125 0 1.71875 -0.234375l0.25 0.125zm5.352722 0.09375l0.1875 0.09375q0 0.84375 0.078125 1.28125l-0.34375 0.125q-0.171875 -0.65625 -0.484375 -0.921875q-0.296875 -0.265625 -0.765625 -0.265625q-0.46875 0 -0.75 0.25q-0.265625 0.25 -0.265625 0.578125q0 0.59375 0.671875 0.96875l1.328125 0.734375q0.859375 0.46875 0.859375 1.390625q0 0.65625 -0.53125 1.140625q-0.515625 0.484375 -1.5 0.484375q-0.96875 0 -2.0 -0.3125q0.15625 -0.921875 0.15625 -1.5l0.34375 -0.109375q0.109375 0.453125 0.171875 0.625q0.0625 0.171875 0.203125 0.421875q0.15625 0.25 0.390625 0.328125q0.234375 0.078125 0.6875 0.078125q0.453125 0 0.75 -0.265625q0.296875 -0.265625 0.296875 -0.625q0 -0.546875 -0.609375 -0.875l-1.390625 -0.78125q-0.859375 -0.453125 -0.859375 -1.390625q0 -0.671875 0.5 -1.171875q0.5 -0.515625 1.40625 -0.515625q0.921875 0 1.46875 0.234375zm3.5913239 5.859375q-1.34375 0 -1.34375 -1.296875q0.015625 -1.140625 0.015625 -2.09375q0 -0.953125 -0.03125 -2.0l-0.828125 0.015625l-0.046875 -0.140625l0.296875 -0.515625q0.1875 0.046875 0.546875 0.0625l-0.046875 -1.203125l0.859375 -0.765625l0.25 0.125q-0.03125 0.953125 -0.03125 1.828125l1.90625 -0.015625l0.0625 0.15625l-0.46875 0.515625q-0.4375 -0.046875 -1.5 -0.0625l0 1.75q0 1.625 0.03125 2.328125q0.046875 0.578125 0.703125 0.578125q0.515625 0 1.140625 -0.296875l0.15625 0.421875q-0.921875 0.609375 -1.671875 0.609375zm6.2176514 -4.265625q0 -0.609375 -0.34375 -0.890625q-0.328125 -0.296875 -0.75 -0.296875q-0.609375 0 -1.046875 0.484375q-0.4375 0.484375 -0.59375 1.1875l2.703125 -0.109375q0.03125 -0.203125 0.03125 -0.375zm-1.125 4.265625q-1.375 0 -2.078125 -0.78125q-0.703125 -0.78125 -0.703125 -2.078125q0 -1.3125 0.765625 -2.265625q0.78125 -0.96875 2.34375 -0.96875q0.78125 0 1.375 0.5625q0.59375 0.5625 0.59375 1.671875l-0.4375 0.53125q-0.078125 -0.015625 -1.234375 -0.015625q-1.140625 0 -2.296875 0.09375l0 0.109375q0 1.1875 0.484375 1.78125q0.5 0.59375 1.359375 0.59375q0.859375 0 1.796875 -0.421875l0.15625 0.390625q-1.0 0.796875 -2.125 0.796875zm6.992584 -6.171875q0.109375 0 0.34375 0.3125q0.25 0.296875 0.328125 0.609375l-0.203125 0.234375q-0.46875 -0.171875 -0.96875 -0.171875q-0.5 0 -0.921875 0.421875q-0.421875 0.421875 -0.421875 1.359375q0.015625 2.28125 0.125 2.65625q0.015625 0.109375 0.359375 0.203125q0.359375 0.078125 0.75 0.09375l-0.03125 0.375q-0.625 -0.03125 -1.578125 -0.03125q-0.953125 0 -1.578125 0.03125l0.03125 -0.375q0.265625 -0.015625 0.546875 -0.09375q0.28125 -0.09375 0.296875 -0.1875q0.109375 -0.453125 0.109375 -1.8125q0 -2.21875 -0.109375 -2.703125l-0.828125 -0.25l-0.03125 -0.34375q0.84375 0 1.71875 -0.234375l0.25 0.125q-0.03125 0.1875 -0.03125 1.0625q0.375 -0.625 0.953125 -0.953125q0.578125 -0.328125 0.890625 -0.328125zm9.62233 -0.65625q-0.265625 -0.953125 -0.734375 -1.296875q-0.453125 -0.359375 -1.1875 -0.359375q-0.734375 0 -1.125 0.359375q-0.390625 0.359375 -0.390625 0.875q0 0.84375 0.859375 1.421875l2.0625 1.34375q1.34375 0.875 1.34375 2.09375q0 0.96875 -0.78125 1.6875q-0.765625 0.71875 -2.25 0.71875q-1.46875 0 -2.578125 -0.46875q0.203125 -1.0625 0.203125 -1.90625l0.359375 -0.15625q0.1875 1.0625 0.59375 1.46875q0.421875 0.40625 1.296875 0.40625q0.890625 0 1.34375 -0.421875q0.46875 -0.4375 0.46875 -1.015625q0 -0.796875 -0.84375 -1.34375l-2.078125 -1.375q-1.203125 -0.765625 -1.203125 -2.0q0 -0.9375 0.734375 -1.625q0.75 -0.703125 1.9375 -0.703125q0.390625 0 0.859375 0.09375q0.484375 0.09375 0.734375 0.09375q0.25 0 0.578125 -0.078125l0 0.203125q0 0.9375 0.15625 1.828125l-0.359375 0.15625zm4.0684814 6.828125q-1.328125 0 -1.328125 -1.34375l0 -1.75q0 -1.734375 -0.09375 -2.15625l-0.765625 -0.25l-0.03125 -0.34375q0.765625 0 1.65625 -0.234375l0.25 0.125q-0.046875 2.328125 -0.046875 4.21875q0 0.875 1.0625 0.875q0.4375 0 0.9375 -0.140625q0.515625 -0.15625 0.8125 -0.34375q0.046875 -0.703125 0.046875 -1.65625q0 -1.765625 -0.09375 -2.25l-0.828125 -0.25l-0.03125 -0.34375q0.84375 0 1.71875 -0.234375l0.25 0.125q-0.03125 0.96875 -0.03125 3.21875l0.03125 1.515625q0 0.21875 0.171875 0.34375q0.1875 0.125 0.34375 0.15625q0.171875 0.03125 0.46875 0.046875l-0.03125 0.375q-0.46875 0.046875 -1.421875 0.234375q-0.390625 -0.15625 -0.53125 -0.78125q-1.25 0.84375 -2.515625 0.84375zm8.142944 -0.59375q0.9375 0 1.484375 -0.75q0.546875 -0.765625 0.546875 -1.71875q0 -0.953125 -0.46875 -1.59375q-0.46875 -0.640625 -1.3125 -0.640625q-0.640625 0 -1.453125 0.421875q0 3.125 0.109375 4.0625q0.578125 0.21875 1.09375 0.21875zm-1.203125 -4.734375q1.078125 -0.75 2.078125 -0.75q1.015625 0 1.65625 0.875q0.65625 0.875 0.65625 2.125q0 1.234375 -0.84375 2.171875q-0.84375 0.921875 -2.46875 0.921875q-1.078125 0 -2.15625 -0.453125q0.09375 -1.140625 0.09375 -3.546875q0 -3.90625 -0.078125 -4.578125l-0.015625 -0.21875l-0.84375 -0.25l-0.015625 -0.328125q0.828125 0 1.703125 -0.234375l0.25 0.109375q-0.015625 1.4375 -0.015625 4.15625zm6.4563446 5.03125q0 -3.171875 -0.078125 -4.515625l-0.015625 -0.4375l-0.84375 -0.25l-0.015625 -0.34375q0.828125 0 1.71875 -0.234375l0.234375 0.125q-0.015625 1.96875 -0.015625 5.140625q0 0.96875 -0.203125 1.734375q-0.203125 0.765625 -0.484375 1.1875q-0.28125 0.4375 -0.609375 0.71875q-0.3125 0.28125 -0.53125 0.375q-0.21875 0.109375 -0.328125 0.109375q-0.09375 0 -0.328125 -0.3125q-0.25 -0.296875 -0.328125 -0.59375l0.203125 -0.25q0.390625 0.25 0.765625 0.25q0.859375 0 0.859375 -2.703125zm0.953125 -7.328125q-0.1875 0.203125 -0.484375 0.203125q-0.28125 0 -0.484375 -0.203125q-0.1875 -0.203125 -0.1875 -0.5q0 -0.296875 0.1875 -0.484375q0.203125 -0.203125 0.484375 -0.203125q0.296875 0 0.484375 0.203125q0.203125 0.1875 0.203125 0.484375q0 0.296875 -0.203125 0.5zm5.663376 3.359375q0 -0.609375 -0.34375 -0.890625q-0.328125 -0.296875 -0.75 -0.296875q-0.609375 0 -1.046875 0.484375q-0.4375 0.484375 -0.59375 1.1875l2.703125 -0.109375q0.03125 -0.203125 0.03125 -0.375zm-1.125 4.265625q-1.375 0 -2.078125 -0.78125q-0.703125 -0.78125 -0.703125 -2.078125q0 -1.3125 0.765625 -2.265625q0.78125 -0.96875 2.34375 -0.96875q0.78125 0 1.375 0.5625q0.59375 0.5625 0.59375 1.671875l-0.4375 0.53125q-0.078125 -0.015625 -1.234375 -0.015625q-1.140625 0 -2.296875 0.09375l0 0.109375q0 1.1875 0.484375 1.78125q0.5 0.59375 1.359375 0.59375q0.859375 0 1.796875 -0.421875l0.15625 0.390625q-1.0 0.796875 -2.125 0.796875zm8.3207245 -0.84375q-1.078125 0.84375 -2.3593903 0.84375q-1.265625 0 -1.953125 -0.796875q-0.6875 -0.8125 -0.6875 -2.09375q0 -1.296875 0.796875 -2.25q0.796875 -0.953125 2.234375 -0.953125q0.57814026 0 1.0312653 0.1875q0.46875 0.1875 0.65625 0.390625q0.203125 0.1875 0.203125 0.3125q0 0.515625 -0.3125 0.953125l-0.3125 0q-0.15625 -0.4375 -0.53125 -0.78125q-0.35939026 -0.359375 -0.95314026 -0.359375q-0.796875 0 -1.234375 0.734375q-0.4375 0.71875 -0.4375 1.765625q0 1.046875 0.5 1.59375q0.515625 0.53125 1.421875 0.53125q0.92189026 0 1.7812653 -0.515625l0.15625 0.4375zm2.9668274 0.84375q-1.34375 0 -1.34375 -1.296875q0.015625 -1.140625 0.015625 -2.09375q0 -0.953125 -0.03125 -2.0l-0.828125 0.015625l-0.046875 -0.140625l0.296875 -0.515625q0.1875 0.046875 0.546875 0.0625l-0.046875 -1.203125l0.859375 -0.765625l0.25 0.125q-0.03125 0.953125 -0.03125 1.828125l1.90625 -0.015625l0.0625 0.15625l-0.46875 0.515625q-0.4375 -0.046875 -1.5 -0.0625l0 1.75q0 1.625 0.03125 2.328125q0.046875 0.578125 0.703125 0.578125q0.515625 0 1.140625 -0.296875l0.15625 0.421875q-0.921875 0.609375 -1.671875 0.609375zm8.065308 -8.125q-0.09375 0.78125 -0.09375 2.796875q0 3.25 0.078125 4.046875l0.015625 0.28125q0.03125 0.234375 0.25 0.328125q0.21875 0.09375 0.859375 0.21875l-0.03125 0.375q-0.828125 -0.03125 -1.796875 -0.03125q-0.953125 0 -1.765625 0.03125l-0.046875 -0.375q0.671875 -0.125 0.90625 -0.21875q0.234375 -0.109375 0.25 -0.328125q0.109375 -0.765625 0.109375 -2.78125q0 -3.265625 -0.078125 -4.078125l-0.03125 -0.265625q-0.015625 -0.21875 -0.234375 -0.3125q-0.203125 -0.109375 -0.828125 -0.234375l0.03125 -0.375q0.828125 0.03125 1.71875 0.03125q0.90625 0 1.71875 -0.03125l0.046875 0.375q-0.625 0.125 -0.84375 0.234375q-0.203125 0.09375 -0.234375 0.3125zm6.558197 7.28125q-0.90625 0.84375 -1.96875 0.84375q-1.0625 0 -1.75 -0.765625q-0.6875 -0.78125 -0.6875 -2.203125q0 -1.4375 0.8125 -2.28125q0.8125 -0.859375 2.015625 -0.859375q0.65625 0 1.5625 0.46875q0 -2.40625 -0.078125 -2.953125l-0.03125 -0.1875l-0.828125 -0.25l-0.03125 -0.328125q0.84375 0 1.71875 -0.234375l0.25 0.109375q-0.03125 1.625 -0.03125 4.609375q0 2.96875 0.03125 3.40625q0.03125 0.421875 0.109375 0.53125q0.078125 0.109375 0.25 0.171875q0.28125 0.078125 0.640625 0.09375l-0.046875 0.375q-0.453125 0.046875 -1.40625 0.234375q-0.390625 -0.15625 -0.53125 -0.78125zm-1.234375 -4.46875q-1.03125 0 -1.53125 0.671875q-0.484375 0.671875 -0.484375 1.65625q0 0.984375 0.421875 1.578125q0.4375 0.59375 1.234375 0.59375q0.796875 0 1.515625 -0.453125q0.0625 -1.046875 0.0625 -3.8125q-0.671875 -0.234375 -1.21875 -0.234375zm7.9691925 1.046875q0 -0.609375 -0.34373474 -0.890625q-0.328125 -0.296875 -0.75 -0.296875q-0.609375 0 -1.046875 0.484375q-0.4375 0.484375 -0.59375 1.1875l2.7031097 -0.109375q0.03125 -0.203125 0.03125 -0.375zm-1.1249847 4.265625q-1.375 0 -2.078125 -0.78125q-0.703125 -0.78125 -0.703125 -2.078125q0 -1.3125 0.765625 -2.265625q0.78125 -0.96875 2.34375 -0.96875q0.78123474 0 1.3749847 0.5625q0.59375 0.5625 0.59375 1.671875l-0.4375 0.53125q-0.078125 -0.015625 -1.2343597 -0.015625q-1.140625 0 -2.296875 0.09375l0 0.109375q0 1.1875 0.484375 1.78125q0.5 0.59375 1.359375 0.59375q0.85935974 0 1.7968597 -0.421875l0.15625 0.390625q-1.0 0.796875 -2.1249847 0.796875zm5.101944 -4.875l-0.015625 1.78125q0 1.6875 0.109375 2.1875l0.015625 0.171875q0.015625 0.09375 0.296875 0.1875q0.28125 0.078125 0.546875 0.09375l-0.046875 0.375q-0.625 -0.03125 -1.4375 -0.03125q-0.796875 0 -1.421875 0.03125l0.046875 -0.375q0.234375 -0.015625 0.515625 -0.09375q0.28125 -0.09375 0.296875 -0.1875q0.109375 -0.453125 0.109375 -1.8125q0 -2.21875 -0.109375 -2.703125l-0.828125 -0.25l-0.03125 -0.34375q0.828125 0 1.71875 -0.234375l0.25 0.125l0 0.625q1.4375 -0.765625 2.5 -0.765625q0.65625 0 0.984375 0.265625q0.34375 0.265625 0.34375 0.96875l0 1.765625q0 1.6875 0.09375 2.1875l0.046875 0.171875q0 0.09375 0.28125 0.1875q0.28125 0.078125 0.546875 0.09375l-0.046875 0.375q-0.625 -0.03125 -1.4375 -0.03125q-0.796875 0 -1.421875 0.03125l0.046875 -0.375q0.25 -0.015625 0.515625 -0.09375q0.28125 -0.09375 0.296875 -0.1875q0.109375 -0.453125 0.109375 -2.359375l0 -1.25q0 -0.515625 -0.296875 -0.703125q-0.296875 -0.203125 -1.015625 -0.203125q-0.71875 0 -1.5625 0.375zm7.744995 4.875q-1.34375 0 -1.34375 -1.296875q0.015625 -1.140625 0.015625 -2.09375q0 -0.953125 -0.03125 -2.0l-0.828125 0.015625l-0.046875 -0.140625l0.296875 -0.515625q0.1875 0.046875 0.546875 0.0625l-0.046875 -1.203125l0.859375 -0.765625l0.25 0.125q-0.03125 0.953125 -0.03125 1.828125l1.90625 -0.015625l0.0625 0.15625l-0.46875 0.515625q-0.4375 -0.046875 -1.5 -0.0625l0 1.75q0 1.625 0.03125 2.328125q0.046875 0.578125 0.703125 0.578125q0.515625 0 1.140625 -0.296875l0.15625 0.421875q-0.921875 0.609375 -1.671875 0.609375zm4.1082764 -7.625q-0.1875 0.203125 -0.484375 0.203125q-0.28125 0 -0.484375 -0.203125q-0.1875 -0.203125 -0.1875 -0.5q0 -0.296875 0.1875 -0.484375q0.203125 -0.203125 0.484375 -0.203125q0.296875 0 0.484375 0.203125q0.203125 0.1875 0.203125 0.484375q0 0.296875 -0.203125 0.5zm0.0625 1.671875l-0.03125 2.859375q0 1.6875 0.109375 2.1875l0.015625 0.171875q0.015625 0.09375 0.328125 0.1875q0.328125 0.078125 0.59375 0.09375l-0.03125 0.375q-0.625 -0.03125 -1.53125 -0.03125q-0.890625 0 -1.515625 0.03125l0.046875 -0.375q0.265625 -0.015625 0.578125 -0.09375q0.3125 -0.09375 0.328125 -0.1875q0.109375 -0.453125 0.109375 -1.8125q0 -2.21875 -0.109375 -2.703125l-0.828125 -0.25l-0.03125 -0.34375q0.828125 0 1.71875 -0.234375l0.25 0.125zm4.696472 5.875q-0.625 -0.03125 -1.546875 -0.03125q-0.90625 0 -1.53125 0.03125l0.046875 -0.375q0.25 -0.015625 0.546875 -0.09375q0.3125 -0.09375 0.328125 -0.1875q0.109375 0 0.109375 -4.65625l-0.90625 0.015625l-0.03125 -0.140625l0.296875 -0.515625q0.1875 0.03125 0.625 0.0625q0 -0.84375 0.28125 -1.515625q0.296875 -0.6875 0.703125 -1.0625q0.421875 -0.375 0.90625 -0.640625q0.78125 -0.40625 1.25 -0.40625q0.09375 0 0.328125 0.3125q0.25 0.296875 0.328125 0.59375l-0.203125 0.25q-0.546875 -0.25 -1.109375 -0.25q-1.5 0 -1.5 2.703125l1.6875 -0.015625l0.078125 0.15625l-0.40625 0.515625q-0.4375 -0.046875 -1.359375 -0.0625q0 3.625 0.140625 4.65625q0 0.09375 0.359375 0.1875q0.359375 0.09375 0.625 0.09375l-0.046875 0.375zm3.11792 -7.546875q-0.1875 0.203125 -0.484375 0.203125q-0.28125 0 -0.484375 -0.203125q-0.1875 -0.203125 -0.1875 -0.5q0 -0.296875 0.1875 -0.484375q0.203125 -0.203125 0.484375 -0.203125q0.296875 0 0.484375 0.203125q0.203125 0.1875 0.203125 0.484375q0 0.296875 -0.203125 0.5zm0.0625 1.671875l-0.03125 2.859375q0 1.6875 0.109375 2.1875l0.015625 0.171875q0.015625 0.09375 0.328125 0.1875q0.328125 0.078125 0.59375 0.09375l-0.03125 0.375q-0.625 -0.03125 -1.53125 -0.03125q-0.890625 0 -1.515625 0.03125l0.046875 -0.375q0.265625 -0.015625 0.578125 -0.09375q0.3125 -0.09375 0.328125 -0.1875q0.109375 -0.453125 0.109375 -1.8125q0 -2.21875 -0.109375 -2.703125l-0.828125 -0.25l-0.03125 -0.34375q0.828125 0 1.71875 -0.234375l0.25 0.125zm5.712097 1.6875q0 -0.609375 -0.34375 -0.890625q-0.328125 -0.296875 -0.75 -0.296875q-0.609375 0 -1.046875 0.484375q-0.4375 0.484375 -0.59375 1.1875l2.703125 -0.109375q0.03125 -0.203125 0.03125 -0.375zm-1.125 4.265625q-1.375 0 -2.078125 -0.78125q-0.703125 -0.78125 -0.703125 -2.078125q0 -1.3125 0.765625 -2.265625q0.78125 -0.96875 2.34375 -0.96875q0.78125 0 1.375 0.5625q0.59375 0.5625 0.59375 1.671875l-0.4375 0.53125q-0.078125 -0.015625 -1.234375 -0.015625q-1.140625 0 -2.296875 0.09375l0 0.109375q0 1.1875 0.484375 1.78125q0.5 0.59375 1.359375 0.59375q0.859375 0 1.796875 -0.421875l0.15625 0.390625q-1.0 0.796875 -2.125 0.796875zm6.992584 -6.171875q0.109375 0 0.34375 0.3125q0.25 0.296875 0.328125 0.609375l-0.203125 0.234375q-0.46875 -0.171875 -0.96875 -0.171875q-0.5 0 -0.921875 0.421875q-0.421875 0.421875 -0.421875 1.359375q0.015625 2.28125 0.125 2.65625q0.015625 0.109375 0.359375 0.203125q0.359375 0.078125 0.75 0.09375l-0.03125 0.375q-0.625 -0.03125 -1.578125 -0.03125q-0.953125 0 -1.578125 0.03125l0.03125 -0.375q0.265625 -0.015625 0.546875 -0.09375q0.28125 -0.09375 0.296875 -0.1875q0.109375 -0.453125 0.109375 -1.8125q0 -2.21875 -0.109375 -2.703125l-0.828125 -0.25l-0.03125 -0.34375q0.84375 0 1.71875 -0.234375l0.25 0.125q-0.03125 0.1875 -0.03125 1.0625q0.375 -0.625 0.953125 -0.953125q0.578125 -0.328125 0.890625 -0.328125z" fill-rule="nonzero"></path><path fill="#000000" fill-opacity="0.0" d="m102.39298 175.80573l222.77167 0l0 29.070862l-222.77167 0z" fill-rule="nonzero"></path><path fill="#000000" d="m133.4584 191.2151q0 0.71875 -0.375 1.515625q-0.375 0.796875 -0.859375 1.390625q-0.484375 0.578125 -1.15625 1.203125q-0.9375 0.828125 -1.703125 1.359375l0.03125 0.0625q2.40625 0 3.0625 -0.203125q0.671875 -0.21875 0.96875 -1.15625l0.34375 0.15625q-0.234375 0.703125 -0.3125 2.0625l-5.21875 0l-0.15625 -0.515625q0.484375 -0.375 1.3125 -1.1875q0.84375 -0.8125 1.390625 -1.46875q0.546875 -0.671875 0.984375 -1.515625q0.453125 -0.859375 0.453125 -1.625q0 -0.78125 -0.46875 -1.15625q-0.46875 -0.390625 -1.21875 -0.390625q-1.078125 0 -2.03125 0.5l-0.171875 -0.359375q1.21875 -1.03125 2.59375 -1.03125q1.0625 0 1.796875 0.625q0.734375 0.609375 0.734375 1.734375zm2.6718597 6.3125q-0.1875 0.1875 -0.484375 0.1875q-0.28125 0 -0.484375 -0.1875q-0.1875 -0.203125 -0.1875 -0.5q0 -0.3125 0.1875 -0.5q0.203125 -0.203125 0.484375 -0.203125q0.296875 0 0.484375 0.203125q0.203125 0.1875 0.203125 0.5q0 0.296875 -0.203125 0.5zm9.390518 -6.640625q-0.265625 -0.953125 -0.734375 -1.296875q-0.453125 -0.359375 -1.1875 -0.359375q-0.734375 0 -1.125 0.359375q-0.390625 0.359375 -0.390625 0.875q0 0.84375 0.859375 1.421875l2.0625 1.34375q1.34375 0.875 1.34375 2.09375q0 0.96875 -0.78125 1.6875q-0.765625 0.71875 -2.25 0.71875q-1.46875 0 -2.578125 -0.46875q0.203125 -1.0625 0.203125 -1.90625l0.359375 -0.15625q0.1875 1.0625 0.59375 1.46875q0.421875 0.40625 1.296875 0.40625q0.890625 0 1.34375 -0.421875q0.46875 -0.4375 0.46875 -1.015625q0 -0.796875 -0.84375 -1.34375l-2.078125 -1.375q-1.203125 -0.765625 -1.203125 -2.0q0 -0.9375 0.734375 -1.625q0.75 -0.703125 1.9375 -0.703125q0.390625 0 0.859375 0.09375q0.484375 0.09375 0.734375 0.09375q0.25 0 0.578125 -0.078125l0 0.203125q0 0.9375 0.15625 1.828125l-0.359375 0.15625zm4.0684814 6.828125q-1.328125 0 -1.328125 -1.34375l0 -1.75q0 -1.734375 -0.09375 -2.15625l-0.765625 -0.25l-0.03125 -0.34375q0.765625 0 1.65625 -0.234375l0.25 0.125q-0.046875 2.328125 -0.046875 4.21875q0 0.875 1.0625 0.875q0.4375 0 0.9375 -0.140625q0.515625 -0.15625 0.8125 -0.34375q0.046875 -0.703125 0.046875 -1.65625q0 -1.765625 -0.09375 -2.25l-0.828125 -0.25l-0.03125 -0.34375q0.84375 0 1.71875 -0.234375l0.25 0.125q-0.03125 0.96875 -0.03125 3.21875l0.03125 1.515625q0 0.21875 0.171875 0.34375q0.1875 0.125 0.34375 0.15625q0.171875 0.03125 0.46875 0.046875l-0.03125 0.375q-0.46875 0.046875 -1.421875 0.234375q-0.390625 -0.15625 -0.53125 -0.78125q-1.25 0.84375 -2.515625 0.84375zm8.142944 -0.59375q0.9375 0 1.484375 -0.75q0.546875 -0.765625 0.546875 -1.71875q0 -0.953125 -0.46875 -1.59375q-0.46875 -0.640625 -1.3125 -0.640625q-0.640625 0 -1.453125 0.421875q0 3.125 0.109375 4.0625q0.578125 0.21875 1.09375 0.21875zm-1.203125 -4.734375q1.078125 -0.75 2.078125 -0.75q1.015625 0 1.65625 0.875q0.65625 0.875 0.65625 2.125q0 1.234375 -0.84375 2.171875q-0.84375 0.921875 -2.46875 0.921875q-1.078125 0 -2.15625 -0.453125q0.09375 -1.140625 0.09375 -3.546875q0 -3.90625 -0.078125 -4.578125l-0.015625 -0.21875l-0.84375 -0.25l-0.015625 -0.328125q0.828125 0 1.703125 -0.234375l0.25 0.109375q-0.015625 1.4375 -0.015625 4.15625zm6.4563446 5.03125q0 -3.171875 -0.078125 -4.515625l-0.015625 -0.4375l-0.84375 -0.25l-0.015625 -0.34375q0.828125 0 1.71875 -0.234375l0.234375 0.125q-0.015625 1.96875 -0.015625 5.140625q0 0.96875 -0.203125 1.734375q-0.203125 0.765625 -0.484375 1.1875q-0.28125 0.4375 -0.609375 0.71875q-0.3125 0.28125 -0.53125 0.375q-0.21875 0.109375 -0.328125 0.109375q-0.09375 0 -0.328125 -0.3125q-0.25 -0.296875 -0.328125 -0.59375l0.203125 -0.25q0.390625 0.25 0.765625 0.25q0.859375 0 0.859375 -2.703125zm0.953125 -7.328125q-0.1875 0.203125 -0.484375 0.203125q-0.28125 0 -0.484375 -0.203125q-0.1875 -0.203125 -0.1875 -0.5q0 -0.296875 0.1875 -0.484375q0.203125 -0.203125 0.484375 -0.203125q0.296875 0 0.484375 0.203125q0.203125 0.1875 0.203125 0.484375q0 0.296875 -0.203125 0.5zm5.663376 3.359375q0 -0.609375 -0.34375 -0.890625q-0.328125 -0.296875 -0.75 -0.296875q-0.609375 0 -1.046875 0.484375q-0.4375 0.484375 -0.59375 1.1875l2.703125 -0.109375q0.03125 -0.203125 0.03125 -0.375zm-1.125 4.265625q-1.375 0 -2.078125 -0.78125q-0.703125 -0.78125 -0.703125 -2.078125q0 -1.3125 0.765625 -2.265625q0.78125 -0.96875 2.34375 -0.96875q0.78125 0 1.375 0.5625q0.59375 0.5625 0.59375 1.671875l-0.4375 0.53125q-0.078125 -0.015625 -1.234375 -0.015625q-1.140625 0 -2.296875 0.09375l0 0.109375q0 1.1875 0.484375 1.78125q0.5 0.59375 1.359375 0.59375q0.859375 0 1.796875 -0.421875l0.15625 0.390625q-1.0 0.796875 -2.125 0.796875zm8.320709 -0.84375q-1.078125 0.84375 -2.359375 0.84375q-1.265625 0 -1.953125 -0.796875q-0.6875 -0.8125 -0.6875 -2.09375q0 -1.296875 0.796875 -2.25q0.796875 -0.953125 2.234375 -0.953125q0.578125 0 1.03125 0.1875q0.46875 0.1875 0.65625 0.390625q0.203125 0.1875 0.203125 0.3125q0 0.515625 -0.3125 0.953125l-0.3125 0q-0.15625 -0.4375 -0.53125 -0.78125q-0.359375 -0.359375 -0.953125 -0.359375q-0.796875 0 -1.234375 0.734375q-0.4375 0.71875 -0.4375 1.765625q0 1.046875 0.5 1.59375q0.515625 0.53125 1.421875 0.53125q0.921875 0 1.78125 -0.515625l0.15625 0.4375zm2.9668427 0.84375q-1.34375 0 -1.34375 -1.296875q0.015625 -1.140625 0.015625 -2.09375q0 -0.953125 -0.03125 -2.0l-0.828125 0.015625l-0.046875 -0.140625l0.296875 -0.515625q0.1875 0.046875 0.546875 0.0625l-0.046875 -1.203125l0.859375 -0.765625l0.25 0.125q-0.03125 0.953125 -0.03125 1.828125l1.90625 -0.015625l0.0625 0.15625l-0.46875 0.515625q-0.4375 -0.046875 -1.5 -0.0625l0 1.75q0 1.625 0.03125 2.328125q0.046875 0.578125 0.703125 0.578125q0.515625 0 1.140625 -0.296875l0.15625 0.421875q-0.921875 0.609375 -1.671875 0.609375zm8.065292 -8.125q-0.09375 0.78125 -0.09375 2.796875q0 3.25 0.078125 4.046875l0.015625 0.28125q0.03125 0.234375 0.25 0.328125q0.21875 0.09375 0.859375 0.21875l-0.03125 0.375q-0.828125 -0.03125 -1.796875 -0.03125q-0.953125 0 -1.765625 0.03125l-0.046875 -0.375q0.671875 -0.125 0.90625 -0.21875q0.234375 -0.109375 0.25 -0.328125q0.109375 -0.765625 0.109375 -2.78125q0 -3.265625 -0.078125 -4.078125l-0.03125 -0.265625q-0.015625 -0.21875 -0.234375 -0.3125q-0.203125 -0.109375 -0.828125 -0.234375l0.03125 -0.375q0.828125 0.03125 1.71875 0.03125q0.90625 0 1.71875 -0.03125l0.046875 0.375q-0.625 0.125 -0.84375 0.234375q-0.203125 0.09375 -0.234375 0.3125zm6.558197 7.28125q-0.90625 0.84375 -1.96875 0.84375q-1.0625 0 -1.75 -0.765625q-0.6875 -0.78125 -0.6875 -2.203125q0 -1.4375 0.8125 -2.28125q0.8125 -0.859375 2.015625 -0.859375q0.65625 0 1.5625 0.46875q0 -2.40625 -0.078125 -2.953125l-0.03125 -0.1875l-0.828125 -0.25l-0.03125 -0.328125q0.84375 0 1.71875 -0.234375l0.25 0.109375q-0.03125 1.625 -0.03125 4.609375q0 2.96875 0.03125 3.40625q0.03125 0.421875 0.109375 0.53125q0.078125 0.109375 0.25 0.171875q0.28125 0.078125 0.640625 0.09375l-0.046875 0.375q-0.453125 0.046875 -1.40625 0.234375q-0.390625 -0.15625 -0.53125 -0.78125zm-1.234375 -4.46875q-1.03125 0 -1.53125 0.671875q-0.484375 0.671875 -0.484375 1.65625q0 0.984375 0.421875 1.578125q0.4375 0.59375 1.234375 0.59375q0.796875 0 1.515625 -0.453125q0.0625 -1.046875 0.0625 -3.8125q-0.671875 -0.234375 -1.21875 -0.234375zm7.969223 1.046875q0 -0.609375 -0.34375 -0.890625q-0.328125 -0.296875 -0.75 -0.296875q-0.609375 0 -1.046875 0.484375q-0.4375 0.484375 -0.59375 1.1875l2.703125 -0.109375q0.03125 -0.203125 0.03125 -0.375zm-1.125 4.265625q-1.375 0 -2.078125 -0.78125q-0.703125 -0.78125 -0.703125 -2.078125q0 -1.3125 0.765625 -2.265625q0.78125 -0.96875 2.34375 -0.96875q0.78125 0 1.375 0.5625q0.59375 0.5625 0.59375 1.671875l-0.4375 0.53125q-0.078125 -0.015625 -1.234375 -0.015625q-1.140625 0 -2.296875 0.09375l0 0.109375q0 1.1875 0.484375 1.78125q0.5 0.59375 1.359375 0.59375q0.859375 0 1.796875 -0.421875l0.15625 0.390625q-1.0 0.796875 -2.125 0.796875zm5.101959 -4.875l-0.015625 1.78125q0 1.6875 0.109375 2.1875l0.015625 0.171875q0.015625 0.09375 0.296875 0.1875q0.28125 0.078125 0.546875 0.09375l-0.046875 0.375q-0.625 -0.03125 -1.4375 -0.03125q-0.796875 0 -1.421875 0.03125l0.046875 -0.375q0.234375 -0.015625 0.515625 -0.09375q0.28125 -0.09375 0.296875 -0.1875q0.109375 -0.453125 0.109375 -1.8125q0 -2.21875 -0.109375 -2.703125l-0.828125 -0.25l-0.03125 -0.34375q0.828125 0 1.71875 -0.234375l0.25 0.125l0 0.625q1.4375 -0.765625 2.5 -0.765625q0.65625 0 0.984375 0.265625q0.34375 0.265625 0.34375 0.96875l0 1.765625q0 1.6875 0.09375 2.1875l0.046875 0.171875q0 0.09375 0.28125 0.1875q0.28125 0.078125 0.546875 0.09375l-0.046875 0.375q-0.625 -0.03125 -1.4375 -0.03125q-0.796875 0 -1.421875 0.03125l0.046875 -0.375q0.25 -0.015625 0.515625 -0.09375q0.28125 -0.09375 0.296875 -0.1875q0.109375 -0.453125 0.109375 -2.359375l0 -1.25q0 -0.515625 -0.296875 -0.703125q-0.296875 -0.203125 -1.015625 -0.203125q-0.71875 0 -1.5625 0.375zm7.74498 4.875q-1.34375 0 -1.34375 -1.296875q0.015625 -1.140625 0.015625 -2.09375q0 -0.953125 -0.03125 -2.0l-0.828125 0.015625l-0.046875 -0.140625l0.296875 -0.515625q0.1875 0.046875 0.546875 0.0625l-0.046875 -1.203125l0.859375 -0.765625l0.25 0.125q-0.03125 0.953125 -0.03125 1.828125l1.90625 -0.015625l0.0625 0.15625l-0.46875 0.515625q-0.4375 -0.046875 -1.5 -0.0625l0 1.75q0 1.625 0.03125 2.328125q0.046875 0.578125 0.703125 0.578125q0.515625 0 1.140625 -0.296875l0.15625 0.421875q-0.921875 0.609375 -1.671875 0.609375zm4.1082764 -7.625q-0.1875 0.203125 -0.484375 0.203125q-0.28125 0 -0.484375 -0.203125q-0.1875 -0.203125 -0.1875 -0.5q0 -0.296875 0.1875 -0.484375q0.203125 -0.203125 0.484375 -0.203125q0.296875 0 0.484375 0.203125q0.203125 0.1875 0.203125 0.484375q0 0.296875 -0.203125 0.5zm0.0625 1.671875l-0.03125 2.859375q0 1.6875 0.109375 2.1875l0.015625 0.171875q0.015625 0.09375 0.328125 0.1875q0.328125 0.078125 0.59375 0.09375l-0.03125 0.375q-0.625 -0.03125 -1.53125 -0.03125q-0.890625 0 -1.515625 0.03125l0.046875 -0.375q0.265625 -0.015625 0.578125 -0.09375q0.3125 -0.09375 0.328125 -0.1875q0.109375 -0.453125 0.109375 -1.8125q0 -2.21875 -0.109375 -2.703125l-0.828125 -0.25l-0.03125 -0.34375q0.828125 0 1.71875 -0.234375l0.25 0.125zm4.696472 5.875q-0.625 -0.03125 -1.546875 -0.03125q-0.90625 0 -1.53125 0.03125l0.046875 -0.375q0.25 -0.015625 0.546875 -0.09375q0.3125 -0.09375 0.328125 -0.1875q0.109375 0 0.109375 -4.65625l-0.90625 0.015625l-0.03125 -0.140625l0.296875 -0.515625q0.1875 0.03125 0.625 0.0625q0 -0.84375 0.28125 -1.515625q0.296875 -0.6875 0.703125 -1.0625q0.421875 -0.375 0.90625 -0.640625q0.78125 -0.40625 1.25 -0.40625q0.09375 0 0.328125 0.3125q0.25 0.296875 0.328125 0.59375l-0.203125 0.25q-0.546875 -0.25 -1.109375 -0.25q-1.5 0 -1.5 2.703125l1.6875 -0.015625l0.078125 0.15625l-0.40625 0.515625q-0.4375 -0.046875 -1.359375 -0.0625q0 3.625 0.140625 4.65625q0 0.09375 0.359375 0.1875q0.359375 0.09375 0.625 0.09375l-0.046875 0.375zm3.11792 -7.546875q-0.1875 0.203125 -0.484375 0.203125q-0.28125 0 -0.484375 -0.203125q-0.1875 -0.203125 -0.1875 -0.5q0 -0.296875 0.1875 -0.484375q0.203125 -0.203125 0.484375 -0.203125q0.296875 0 0.484375 0.203125q0.203125 0.1875 0.203125 0.484375q0 0.296875 -0.203125 0.5zm0.0625 1.671875l-0.03125 2.859375q0 1.6875 0.109375 2.1875l0.015625 0.171875q0.015625 0.09375 0.328125 0.1875q0.328125 0.078125 0.59375 0.09375l-0.03125 0.375q-0.625 -0.03125 -1.53125 -0.03125q-0.890625 0 -1.515625 0.03125l0.046875 -0.375q0.265625 -0.015625 0.578125 -0.09375q0.3125 -0.09375 0.328125 -0.1875q0.109375 -0.453125 0.109375 -1.8125q0 -2.21875 -0.109375 -2.703125l-0.828125 -0.25l-0.03125 -0.34375q0.828125 0 1.71875 -0.234375l0.25 0.125zm5.7121124 1.6875q0 -0.609375 -0.34376526 -0.890625q-0.328125 -0.296875 -0.75 -0.296875q-0.609375 0 -1.046875 0.484375q-0.4375 0.484375 -0.59375 1.1875l2.7031403 -0.109375q0.03125 -0.203125 0.03125 -0.375zm-1.1250153 4.265625q-1.375 0 -2.078125 -0.78125q-0.703125 -0.78125 -0.703125 -2.078125q0 -1.3125 0.765625 -2.265625q0.78125 -0.96875 2.34375 -0.96875q0.78126526 0 1.3750153 0.5625q0.59375 0.5625 0.59375 1.671875l-0.4375 0.53125q-0.078125 -0.015625 -1.2343903 -0.015625q-1.140625 0 -2.296875 0.09375l0 0.109375q0 1.1875 0.484375 1.78125q0.5 0.59375 1.359375 0.59375q0.85939026 0 1.7968903 -0.421875l0.15625 0.390625q-1.0 0.796875 -2.1250153 0.796875zm6.9925995 -6.171875q0.109375 0 0.34375 0.3125q0.25 0.296875 0.328125 0.609375l-0.203125 0.234375q-0.46875 -0.171875 -0.96875 -0.171875q-0.5 0 -0.921875 0.421875q-0.421875 0.421875 -0.421875 1.359375q0.015625 2.28125 0.125 2.65625q0.015625 0.109375 0.359375 0.203125q0.359375 0.078125 0.75 0.09375l-0.03125 0.375q-0.625 -0.03125 -1.578125 -0.03125q-0.953125 0 -1.578125 0.03125l0.03125 -0.375q0.265625 -0.015625 0.546875 -0.09375q0.28125 -0.09375 0.296875 -0.1875q0.109375 -0.453125 0.109375 -1.8125q0 -2.21875 -0.109375 -2.703125l-0.828125 -0.25l-0.03125 -0.34375q0.84375 0 1.71875 -0.234375l0.25 0.125q-0.03125 0.1875 -0.03125 1.0625q0.375 -0.625 0.953125 -0.953125q0.578125 -0.328125 0.890625 -0.328125zm8.262939 6.09375q-0.84375 -0.03125 -1.828125 -0.03125q-0.984375 0 -1.796875 0.03125l-0.046875 -0.375q0.671875 -0.125 0.90625 -0.21875q0.234375 -0.109375 0.25 -0.328125q0.109375 -0.765625 0.109375 -2.78125q0 -3.265625 -0.078125 -4.078125l-0.03125 -0.265625q-0.015625 -0.21875 -0.234375 -0.3125q-0.203125 -0.109375 -0.828125 -0.234375l0.03125 -0.375q0.828125 0.03125 1.75 0.03125l2.25 0q1.265625 0 1.921875 0.609375q0.65625 0.59375 0.65625 1.46875q0 1.59375 -1.765625 2.453125l2.296875 3.8125q0.296875 0.15625 1.078125 0.21875l-0.046875 0.375l-2.1875 0.078125l-2.3125 -4.296875q-0.4375 0.03125 -1.328125 0.03125q0 2.40625 0.09375 3.0625l0.046875 0.203125q0.03125 0.234375 0.25 0.328125q0.234375 0.09375 0.875 0.21875l-0.03125 0.375zm1.84375 -6.859375q0 -1.53125 -2.15625 -1.53125q-0.46875 0 -0.609375 0.0625q-0.140625 0.046875 -0.1875 0.21875q-0.125 0.78125 -0.125 3.40625q1.421875 0 2.03125 -0.125q1.046875 -0.640625 1.046875 -2.03125zm7.4031677 2.671875q0 -0.609375 -0.34375 -0.890625q-0.328125 -0.296875 -0.75 -0.296875q-0.609375 0 -1.046875 0.484375q-0.4375 0.484375 -0.59375 1.1875l2.703125 -0.109375q0.03125 -0.203125 0.03125 -0.375zm-1.125 4.265625q-1.375 0 -2.078125 -0.78125q-0.703125 -0.78125 -0.703125 -2.078125q0 -1.3125 0.765625 -2.265625q0.78125 -0.96875 2.34375 -0.96875q0.78125 0 1.375 0.5625q0.59375 0.5625 0.59375 1.671875l-0.4375 0.53125q-0.078125 -0.015625 -1.234375 -0.015625q-1.140625 0 -2.296875 0.09375l0 0.109375q0 1.1875 0.484375 1.78125q0.5 0.59375 1.359375 0.59375q0.859375 0 1.796875 -0.421875l0.15625 0.390625q-1.0 0.796875 -2.125 0.796875zm8.492569 -6.5625q0.109375 0 0.34375 0.3125q0.25 0.296875 0.328125 0.609375l-0.203125 0.234375q-0.234375 -0.109375 -0.5625 -0.109375q-0.328125 0 -0.609375 0.140625q0.453125 0.5625 0.453125 1.46875q0 0.90625 -0.59375 1.5625q-0.59375 0.640625 -1.765625 0.640625q-0.296875 0 -0.578125 -0.046875q-0.484375 0.625 -0.484375 0.859375q0 0.296875 0.859375 0.296875l0.96875 0q2.453125 0 2.453125 1.59375q0 0.875 -0.984375 1.59375q-0.96875 0.71875 -2.625 0.71875q-0.96875 0 -1.671875 -0.328125q-0.70310974 -0.3125 -0.70310974 -0.890625q0 -0.84375 1.3437347 -1.921875q-0.8125 -0.171875 -0.8125 -0.609375q0 -0.453125 1.171875 -1.40625q-1.3125 -0.40625 -1.3125 -2.09375q0 -0.859375 0.59375 -1.5q0.609375 -0.640625 1.703125 -0.640625q1.109375 0 1.65625 0.390625q0.15625 -0.25 0.46875 -0.5625q0.328125 -0.3125 0.5625 -0.3125zm-4.28125 8.21875q0 0.515625 0.375 0.828125q0.390625 0.3125 1.234375 0.3125q0.859375 0 1.515625 -0.546875q0.671875 -0.546875 0.671875 -1.15625q0 -0.390625 -0.34375 -0.640625q-0.328125 -0.234375 -1.046875 -0.234375l-1.75 0q-0.65625 0.71875 -0.65625 1.4375zm1.6875 -7.203125q-0.375 0 -0.65625 0.1875q-0.28125 0.171875 -0.421875 0.4375q-0.21875 0.515625 -0.21875 1.109375q0 0.578125 0.296875 1.078125q0.296875 0.5 0.9375 0.5q0.46875 0 0.765625 -0.28125q0.3125 -0.28125 0.40625 -0.578125q0.109375 -0.296875 0.125 -0.625q0 -1.828125 -1.234375 -1.828125zm5.7651367 -2.078125q-0.1875 0.203125 -0.484375 0.203125q-0.28125 0 -0.484375 -0.203125q-0.1875 -0.203125 -0.1875 -0.5q0 -0.296875 0.1875 -0.484375q0.203125 -0.203125 0.484375 -0.203125q0.296875 0 0.484375 0.203125q0.203125 0.1875 0.203125 0.484375q0 0.296875 -0.203125 0.5zm0.0625 1.671875l-0.03125 2.859375q0 1.6875 0.109375 2.1875l0.015625 0.171875q0.015625 0.09375 0.328125 0.1875q0.328125 0.078125 0.59375 0.09375l-0.03125 0.375q-0.625 -0.03125 -1.53125 -0.03125q-0.890625 0 -1.515625 0.03125l0.046875 -0.375q0.265625 -0.015625 0.578125 -0.09375q0.3125 -0.09375 0.328125 -0.1875q0.109375 -0.453125 0.109375 -1.8125q0 -2.21875 -0.109375 -2.703125l-0.828125 -0.25l-0.03125 -0.34375q0.828125 0 1.71875 -0.234375l0.25 0.125zm5.352722 0.09375l0.1875 0.09375q0 0.84375 0.078125 1.28125l-0.34375 0.125q-0.171875 -0.65625 -0.484375 -0.921875q-0.296875 -0.265625 -0.765625 -0.265625q-0.46875 0 -0.75 0.25q-0.265625 0.25 -0.265625 0.578125q0 0.59375 0.671875 0.96875l1.328125 0.734375q0.859375 0.46875 0.859375 1.390625q0 0.65625 -0.53125 1.140625q-0.515625 0.484375 -1.5 0.484375q-0.96875 0 -2.0 -0.3125q0.15625 -0.921875 0.15625 -1.5l0.34375 -0.109375q0.109375 0.453125 0.171875 0.625q0.0625 0.171875 0.203125 0.421875q0.15625 0.25 0.390625 0.328125q0.234375 0.078125 0.6875 0.078125q0.453125 0 0.75 -0.265625q0.296875 -0.265625 0.296875 -0.625q0 -0.546875 -0.609375 -0.875l-1.390625 -0.78125q-0.859375 -0.453125 -0.859375 -1.390625q0 -0.671875 0.5 -1.171875q0.5 -0.515625 1.40625 -0.515625q0.921875 0 1.46875 0.234375zm3.5913086 5.859375q-1.34375 0 -1.34375 -1.296875q0.015625 -1.140625 0.015625 -2.09375q0 -0.953125 -0.03125 -2.0l-0.828125 0.015625l-0.046875 -0.140625l0.296875 -0.515625q0.1875 0.046875 0.546875 0.0625l-0.046875 -1.203125l0.859375 -0.765625l0.25 0.125q-0.03125 0.953125 -0.03125 1.828125l1.90625 -0.015625l0.0625 0.15625l-0.46875 0.515625q-0.4375 -0.046875 -1.5 -0.0625l0 1.75q0 1.625 0.03125 2.328125q0.046875 0.578125 0.703125 0.578125q0.515625 0 1.140625 -0.296875l0.15625 0.421875q-0.921875 0.609375 -1.671875 0.609375zm6.2176514 -4.265625q0 -0.609375 -0.34375 -0.890625q-0.328125 -0.296875 -0.75 -0.296875q-0.609375 0 -1.046875 0.484375q-0.4375 0.484375 -0.59375 1.1875l2.703125 -0.109375q0.03125 -0.203125 0.03125 -0.375zm-1.125 4.265625q-1.375 0 -2.078125 -0.78125q-0.703125 -0.78125 -0.703125 -2.078125q0 -1.3125 0.765625 -2.265625q0.78125 -0.96875 2.34375 -0.96875q0.78125 0 1.375 0.5625q0.59375 0.5625 0.59375 1.671875l-0.4375 0.53125q-0.078125 -0.015625 -1.234375 -0.015625q-1.140625 0 -2.296875 0.09375l0 0.109375q0 1.1875 0.484375 1.78125q0.5 0.59375 1.359375 0.59375q0.859375 0 1.796875 -0.421875l0.15625 0.390625q-1.0 0.796875 -2.125 0.796875zm6.992584 -6.171875q0.109375 0 0.34375 0.3125q0.25 0.296875 0.328125 0.609375l-0.203125 0.234375q-0.46875 -0.171875 -0.96875 -0.171875q-0.5 0 -0.921875 0.421875q-0.421875 0.421875 -0.421875 1.359375q0.015625 2.28125 0.125 2.65625q0.015625 0.109375 0.359375 0.203125q0.359375 0.078125 0.75 0.09375l-0.03125 0.375q-0.625 -0.03125 -1.578125 -0.03125q-0.953125 0 -1.578125 0.03125l0.03125 -0.375q0.265625 -0.015625 0.546875 -0.09375q0.28125 -0.09375 0.296875 -0.1875q0.109375 -0.453125 0.109375 -1.8125q0 -2.21875 -0.109375 -2.703125l-0.828125 -0.25l-0.03125 -0.34375q0.84375 0 1.71875 -0.234375l0.25 0.125q-0.03125 0.1875 -0.03125 1.0625q0.375 -0.625 0.953125 -0.953125q0.578125 -0.328125 0.890625 -0.328125zm5.2746887 1.90625q0 -0.609375 -0.34375 -0.890625q-0.328125 -0.296875 -0.75 -0.296875q-0.609375 0 -1.046875 0.484375q-0.4375 0.484375 -0.59375 1.1875l2.703125 -0.109375q0.03125 -0.203125 0.03125 -0.375zm-1.125 4.265625q-1.375 0 -2.078125 -0.78125q-0.703125 -0.78125 -0.703125 -2.078125q0 -1.3125 0.765625 -2.265625q0.78125 -0.96875 2.34375 -0.96875q0.78125 0 1.375 0.5625q0.59375 0.5625 0.59375 1.671875l-0.4375 0.53125q-0.078125 -0.015625 -1.234375 -0.015625q-1.140625 0 -2.296875 0.09375l0 0.109375q0 1.1875 0.484375 1.78125q0.5 0.59375 1.359375 0.59375q0.859375 0 1.796875 -0.421875l0.15625 0.390625q-1.0 0.796875 -2.125 0.796875zm7.758209 -0.84375q-0.90625 0.84375 -1.96875 0.84375q-1.0625 0 -1.75 -0.765625q-0.6875 -0.78125 -0.6875 -2.203125q0 -1.4375 0.8125 -2.28125q0.8125 -0.859375 2.015625 -0.859375q0.65625 0 1.5625 0.46875q0 -2.40625 -0.078125 -2.953125l-0.03125 -0.1875l-0.828125 -0.25l-0.03125 -0.328125q0.84375 0 1.71875 -0.234375l0.25 0.109375q-0.03125 1.625 -0.03125 4.609375q0 2.96875 0.03125 3.40625q0.03125 0.421875 0.109375 0.53125q0.078125 0.109375 0.25 0.171875q0.28125 0.078125 0.640625 0.09375l-0.046875 0.375q-0.453125 0.046875 -1.40625 0.234375q-0.390625 -0.15625 -0.53125 -0.78125zm-1.234375 -4.46875q-1.03125 0 -1.53125 0.671875q-0.484375 0.671875 -0.484375 1.65625q0 0.984375 0.421875 1.578125q0.4375 0.59375 1.234375 0.59375q0.796875 0 1.515625 -0.453125q0.0625 -1.046875 0.0625 -3.8125q-0.671875 -0.234375 -1.21875 -0.234375z" fill-rule="nonzero"></path><path fill="#000000" fill-opacity="0.0" d="m96.69351 211.83984l236.0315 0" fill-rule="nonzero"></path><path stroke="#000000" stroke-width="2.0" stroke-linejoin="round" stroke-linecap="butt" d="m108.693504 211.83986l224.0315 0" fill-rule="evenodd"></path><path fill="#000000" stroke="#000000" stroke-width="2.0" stroke-linecap="butt" d="m108.693504 208.53639l-9.076195 3.3034668l9.076195 3.3034668z" fill-rule="evenodd"></path><path fill="#b6d7a8" d="m9.420664 46.57054l0 0c0 -4.618412 3.7439613 -8.362373 8.362371 -8.362373l151.90518 0c2.2178345 0 4.3448334 0.88103485 5.913086 2.4492836c1.5682526 1.5682487 2.4492798 3.6952515 2.4492798 5.9130898l0 33.448486c0 4.618408 -3.7439575 8.362373 -8.362366 8.362373l-151.90518 0c-4.61841 0 -8.362371 -3.7439651 -8.362371 -8.362373z" fill-rule="nonzero"></path><path stroke="#000000" stroke-width="1.0" stroke-linejoin="round" stroke-linecap="butt" d="m9.420664 46.57054l0 0c0 -4.618412 3.7439613 -8.362373 8.362371 -8.362373l151.90518 0c2.2178345 0 4.3448334 0.88103485 5.913086 2.4492836c1.5682526 1.5682487 2.4492798 3.6952515 2.4492798 5.9130898l0 33.448486c0 4.618408 -3.7439575 8.362373 -8.362366 8.362373l-151.90518 0c-4.61841 0 -8.362371 -3.7439651 -8.362371 -8.362373z" fill-rule="nonzero"></path><path fill="#000000" d="m77.66922 64.154785l-2.25 0l0 4.90625l-2.34375 0.1875l0 -11.906254l2.34375 -0.1875l0 4.859375l2.25 0l0 -4.671875l2.34375 -0.1875l0 11.906254l-2.34375 0.1875l0 -5.09375zm7.3671875 5.21875q-0.84375 0 -1.484375 -0.34375q-0.625 -0.359375 -1.046875 -0.984375q-0.421875 -0.625 -0.640625 -1.484375q-0.203125 -0.875 -0.203125 -1.921875q0 -1.0000038 0.203125 -1.8437538q0.21875 -0.859375 0.640625 -1.46875q0.421875 -0.609375 1.046875 -0.953125q0.640625 -0.34375 1.484375 -0.34375q0.828125 0 1.453125 0.34375q0.640625 0.34375 1.0625 0.953125q0.421875 0.609375 0.640625 1.46875q0.21875 0.84375 0.21875 1.8437538q0 1.046875 -0.21875 1.921875q-0.21875 0.859375 -0.640625 1.484375q-0.421875 0.625 -1.0625 0.984375q-0.625 0.34375 -1.453125 0.34375zm-0.015625 -1.6875q0.28125 0 0.46875 -0.140625q0.203125 -0.15625 0.328125 -0.390625q0.125 -0.25 0.1875 -0.5625q0.078125 -0.328125 0.109375 -0.65625q0.03125 -0.34375 0.03125 -0.671875q0.015625 -0.34375 0.015625 -0.625q0 -0.265625 -0.015625 -0.59375q0 -0.3281288 -0.03125 -0.6562538q-0.03125 -0.34375 -0.109375 -0.65625q-0.0625 -0.328125 -0.1875 -0.5625q-0.125 -0.25 -0.328125 -0.390625q-0.1875 -0.15625 -0.453125 -0.15625q-0.28125 0 -0.484375 0.15625q-0.1875 0.140625 -0.3125 0.390625q-0.125 0.234375 -0.1875 0.5625q-0.0625 0.3125 -0.09375 0.65625q-0.03125 0.328125 -0.046875 0.6562538q0 0.328125 0 0.59375q0 0.28125 0 0.625q0.015625 0.328125 0.046875 0.671875q0.03125 0.328125 0.09375 0.65625q0.0625 0.3125 0.1875 0.5625q0.125 0.234375 0.3125 0.390625q0.1875 0.140625 0.46875 0.140625zm4.8984375 -10.250004l2.25 -0.28125l0 11.906254l-2.25 0.1875l0 -11.812504zm8.890625 11.812504l-0.546875 -1.21875q-0.09375 0.375 -0.34375 0.671875q-0.09375 0.125 -0.25 0.25q-0.140625 0.109375 -0.34375 0.203125q-0.1875 0.109375 -0.4375 0.15625q-0.234375 0.0625 -0.546875 0.0625q-0.625 0 -1.109375 -0.28125q-0.46875 -0.28125 -0.8125 -0.859375q-0.328125 -0.59375 -0.5 -1.46875q-0.171875 -0.890625 -0.171875 -2.109375q0 -1.2500038 0.140625 -2.1250038q0.140625 -0.875 0.4375 -1.421875q0.296875 -0.5625 0.765625 -0.8125q0.46875 -0.265625 1.140625 -0.265625q0.1875 0 0.375 0.0625q0.1875 0.046875 0.359375 0.140625q0.1875 0.09375 0.359375 0.21875q0.171875 0.109375 0.3125 0.234375q0.328125 0.296875 0.625 0.65625l0 -3.90625l2.25 -0.28125l0 11.906254l-1.703125 0.1875zm-0.546875 -6.843754q-0.15625 -0.203125 -0.34375 -0.359375q-0.15625 -0.140625 -0.359375 -0.25q-0.1875 -0.109375 -0.390625 -0.109375q-0.40625 0 -0.640625 0.234375q-0.234375 0.21875 -0.359375 0.625q-0.109375 0.40625 -0.140625 0.953125q-0.03125 0.5312538 -0.03125 1.1562538q0 0.625 0.03125 1.1875q0.03125 0.5625 0.140625 0.984375q0.125 0.421875 0.359375 0.671875q0.234375 0.25 0.640625 0.25q0.203125 0 0.390625 -0.09375q0.203125 -0.109375 0.359375 -0.375q0.15625 -0.265625 0.25 -0.71875q0.09375 -0.453125 0.09375 -1.15625l0 -3.0000038zm6.0078125 2.5625038q0 0.421875 0.046875 0.90625q0.0625 0.484375 0.1875 0.890625q0.125 0.40625 0.328125 0.671875q0.21875 0.265625 0.53125 0.265625q0.265625 0 0.484375 -0.203125q0.21875 -0.21875 0.375 -0.484375q0.171875 -0.265625 0.265625 -0.5q0.09375 -0.234375 0.125 -0.28125l1.703125 0.65625q-0.15625 0.546875 -0.421875 1.0q-0.25 0.453125 -0.625 0.78125q-0.359375 0.328125 -0.84375 0.515625q-0.484375 0.1875 -1.109375 0.1875q-0.8125 0 -1.4375 -0.34375q-0.625 -0.359375 -1.03125 -0.96875q-0.40625 -0.625 -0.625 -1.484375q-0.203125 -0.859375 -0.203125 -1.875q0 -1.0312538 0.203125 -1.8906288q0.21875 -0.859375 0.640625 -1.46875q0.421875 -0.625 1.046875 -0.96875q0.640625 -0.34375 1.484375 -0.34375q0.8125 0 1.40625 0.34375q0.609375 0.34375 1.015625 0.96875q0.40625 0.609375 0.609375 1.46875q0.203125 0.859375 0.203125 1.8906288l-0.03125 0.109375q-0.015625 0.046875 -0.03125 0.09375q0 0.03125 0 0.0625l-4.296875 0zm2.140625 -1.2968788q0 -0.453125 -0.0625 -0.828125q-0.046875 -0.390625 -0.171875 -0.65625q-0.125 -0.28125 -0.328125 -0.4375q-0.203125 -0.171875 -0.484375 -0.171875q-0.203125 0 -0.40625 0.171875q-0.203125 0.15625 -0.359375 0.4375q-0.140625 0.265625 -0.234375 0.65625q-0.09375 0.375 -0.09375 0.828125l2.140625 0zm3.5703125 -3.328125l2.25 -0.1875l0 1.4375q0.203125 -0.25 0.46875 -0.53125q0.265625 -0.28125 0.59375 -0.5q0.34375 -0.234375 0.75 -0.375q0.421875 -0.15625 0.921875 -0.15625q0.03125 0 0.078125 0.015625q0.046875 0 0.09375 0q0.046875 0.015625 0.09375 0.015625l0 2.6875q-0.359375 -0.109375 -0.734375 -0.21875q-0.375 -0.125 -0.765625 -0.125q-0.375 0 -0.75 0.171875q-0.359375 0.15625 -0.75 0.578125l0 5.906254l-2.25 0.1875l0 -8.906254z" fill-rule="nonzero"></path></g></svg>

