<?xml version="1.0" standalone="yes"?>

<svg version="1.1" viewBox="0.0 0.0 336.0 288.0" fill="none" stroke="none" stroke-linecap="square" stroke-miterlimit="10" xmlns="http://www.w3.org/2000/svg" xmlns:xlink="http://www.w3.org/1999/xlink"><clipPath id="p.0"><path d="m0 0l336.0 0l0 288.0l-336.0 0l0 -288.0z" clip-rule="nonzero"></path></clipPath><g clip-path="url(#p.0)"><path fill="#000000" fill-opacity="0.0" d="m0 0l336.0 0l0 288.0l-336.0 0z" fill-rule="nonzero"></path><path fill="#d9d9d9" d="m28.582678 51.822445l0 0c0 -25.454893 20.635267 -46.09016 46.090157 -46.09016l186.65431 0l0 0c12.223877 0 23.947083 4.855913 32.590668 13.4994955c8.643585 8.643581 13.499512 20.366793 13.499512 32.590668l0 184.3551c0 25.454895 -20.635284 46.09018 -46.09018 46.09018l-186.65431 0c-25.454891 0 -46.090157 -20.635284 -46.090157 -46.09018z" fill-rule="nonzero"></path><path stroke="#000000" stroke-width="1.0" stroke-linejoin="round" stroke-linecap="butt" d="m28.582678 51.822445l0 0c0 -25.454893 20.635267 -46.09016 46.090157 -46.09016l186.65431 0l0 0c12.223877 0 23.947083 4.855913 32.590668 13.4994955c8.643585 8.643581 13.499512 20.366793 13.499512 32.590668l0 184.3551c0 25.454895 -20.635284 46.09018 -46.09018 46.09018l-186.65431 0c-25.454891 0 -46.090157 -20.635284 -46.090157 -46.09018z" fill-rule="nonzero"></path><path fill="#000000" d="m85.185486 35.573505q-0.171875 -0.359375 -0.3125 -0.671875q-0.140625 -0.3125 -0.34375 -0.546875q-0.1875 -0.25 -0.453125 -0.390625q-0.265625 -0.140625 -0.6875 -0.140625q-0.328125 0 -0.578125 0.125q-0.234375 0.109375 -0.390625 0.3125q-0.15625 0.203125 -0.234375 0.484375q-0.078125 0.265625 -0.078125 0.5625q0 0.234375 0.0625 0.453125q0.078125 0.21875 0.203125 0.390625q0.125 0.171875 0.28125 0.328125q0.15625 0.140625 0.3125 0.234375l2.3125 1.34375q0.8125 0.453125 1.328125 0.96875q0.515625 0.515625 0.8125 1.015625q0.296875 0.5 0.40625 0.96875q0.109375 0.46875 0.125 0.84375q0 1.03125 -0.34375 1.890625q-0.34375 0.84375 -0.96875 1.453125q-0.609375 0.59375 -1.4375 0.921875q-0.828125 0.328125 -1.796875 0.328125q-0.890625 0 -1.640625 -0.265625q-0.734375 -0.265625 -1.3125 -0.75q-0.578125 -0.484375 -1.0 -1.125q-0.421875 -0.65625 -0.671875 -1.421875l2.34375 -1.109375q0.203125 0.34375 0.4375 0.75q0.25 0.390625 0.546875 0.75q0.296875 0.34375 0.671875 0.578125q0.390625 0.234375 0.890625 0.234375q0.25 0 0.46875 -0.109375q0.234375 -0.125 0.40625 -0.328125q0.171875 -0.203125 0.28125 -0.453125q0.109375 -0.25 0.109375 -0.53125q0 -0.5625 -0.28125 -0.984375q-0.265625 -0.4375 -0.671875 -0.703125l-2.5 -1.46875q-0.515625 -0.296875 -0.953125 -0.671875q-0.421875 -0.390625 -0.75 -0.84375q-0.3125 -0.46875 -0.5 -0.984375q-0.171875 -0.53125 -0.171875 -1.140625q0 -0.9375 0.34375 -1.71875q0.34375 -0.796875 0.921875 -1.359375q0.59375 -0.5625 1.40625 -0.8750019q0.8125 -0.3125 1.765625 -0.3125q1.4375 0 2.46875 0.7343769q1.03125 0.734375 1.53125 2.15625l-2.359375 1.078125zm6.3915863 5.609375q0 0.5 0.0625 1.078125q0.0625 0.5625 0.21875 1.046875q0.15625 0.484375 0.40625 0.8125q0.25 0.3125 0.609375 0.3125q0.3125 0 0.578125 -0.25q0.265625 -0.25 0.453125 -0.5625q0.1875 -0.3125 0.296875 -0.59375q0.125 -0.28125 0.15625 -0.328125l2.03125 0.765625q-0.1875 0.640625 -0.5 1.1875q-0.3125 0.53125 -0.75 0.921875q-0.421875 0.390625 -1.0 0.609375q-0.578125 0.21875 -1.3125 0.21875q-0.96875 0 -1.71875 -0.40625q-0.734375 -0.40625 -1.21875 -1.140625q-0.484375 -0.734375 -0.734375 -1.75q-0.234375 -1.03125 -0.234375 -2.234375q0 -1.234375 0.25 -2.25q0.25 -1.015625 0.75 -1.75q0.5 -0.734375 1.25 -1.140625q0.75 -0.40625 1.75 -0.40625q0.953125 0 1.671875 0.40625q0.71875 0.40625 1.1875 1.140625q0.484375 0.734375 0.71875 1.75q0.25 1.015625 0.25 2.25l-0.03125 0.125q-0.015625 0.046875 -0.03125 0.109375q0 0.046875 0 0.078125l-5.109375 0zm2.546875 -1.546875q0 -0.53125 -0.078125 -0.984375q-0.0625 -0.453125 -0.21875 -0.78125q-0.140625 -0.328125 -0.375 -0.515625q-0.234375 -0.1875 -0.578125 -0.1875q-0.234375 0 -0.484375 0.1875q-0.234375 0.1875 -0.421875 0.515625q-0.171875 0.328125 -0.28125 0.78125q-0.109375 0.453125 -0.109375 0.984375l2.546875 0zm4.7594147 -4.171875l0.265625 -2.3125l2.328125 -0.34375l0 2.65625l2.1875 0l-0.109375 2.0l-2.078125 0l0 5.890625q0 0.3125 0.125 0.515625q0.140625 0.203125 0.328125 0.3125q0.203125 0.109375 0.4375 0.15625q0.25 0.03125 0.484375 0.03125q0.28125 0 0.46875 -0.03125q0.09375 -0.015625 0.1875 -0.03125l0 1.828125q-0.203125 0.078125 -0.5 0.140625q-0.25 0.046875 -0.640625 0.078125q-0.375 0.046875 -0.890625 0.046875q-0.4375 0 -0.90625 -0.125q-0.46875 -0.125 -0.859375 -0.40625q-0.390625 -0.296875 -0.65625 -0.78125q-0.25 -0.484375 -0.25 -1.203125l0 -6.421875l-1.484375 0l0.109375 -2.0l1.453125 0zm14.051025 10.9375q-1.0 0 -1.75 -0.40625q-0.75 -0.421875 -1.25 -1.15625q-0.5 -0.734375 -0.75 -1.765625q-0.25 -1.03125 -0.25 -2.28125q0 -1.1875 0.25 -2.1875q0.25 -1.015625 0.75 -1.734375q0.5 -0.734375 1.25 -1.140625q0.75 -0.40625 1.75 -0.40625q0.96875 0 1.71875 0.40625q0.765625 0.40625 1.265625 1.140625q0.5 0.71875 0.765625 1.734375q0.265625 1.0 0.265625 2.1875q0 1.25 -0.265625 2.28125q-0.265625 1.03125 -0.765625 1.765625q-0.5 0.734375 -1.265625 1.15625q-0.75 0.40625 -1.71875 0.40625zm-0.015625 -1.984375q0.328125 0 0.546875 -0.171875q0.234375 -0.1875 0.375 -0.46875q0.15625 -0.296875 0.234375 -0.671875q0.09375 -0.375 0.125 -0.78125q0.046875 -0.40625 0.046875 -0.796875q0.015625 -0.390625 0.015625 -0.734375q0 -0.3125 -0.015625 -0.703125q0 -0.390625 -0.046875 -0.78125q-0.03125 -0.40625 -0.125 -0.78125q-0.078125 -0.375 -0.234375 -0.671875q-0.140625 -0.296875 -0.375 -0.46875q-0.21875 -0.171875 -0.546875 -0.171875q-0.328125 0 -0.5625 0.171875q-0.21875 0.171875 -0.375 0.46875q-0.140625 0.296875 -0.21875 0.671875q-0.078125 0.375 -0.125 0.78125q-0.03125 0.390625 -0.03125 0.78125q0 0.390625 0 0.703125q0 0.34375 0 0.734375q0 0.390625 0.03125 0.796875q0.046875 0.40625 0.125 0.78125q0.078125 0.375 0.21875 0.671875q0.140625 0.28125 0.375 0.46875q0.234375 0.171875 0.5625 0.171875zm6.1368256 -6.953125l-1.328125 0l0.109375 -2.0l1.21875 0l0 -0.203125q0 -0.65625 0.046875 -1.265625q0.046875 -0.625 0.296875 -1.109375q0.265625 -0.484375 0.796875 -0.78125q0.546875 -0.2968769 1.5 -0.2968769q0.5 0 0.84375 0.046875q0.34375 0.046875 0.546875 0.09375q0.25 0.06250191 0.421875 0.1406269l0 1.59375l-0.578125 0q-0.421875 0 -0.671875 0.140625q-0.234375 0.140625 -0.359375 0.359375q-0.109375 0.21875 -0.140625 0.515625q-0.03125 0.28125 -0.03125 0.578125l0 0.1875l1.875 0l-0.109375 2.0l-1.765625 0l0 8.578125l-2.671875 0.21875l0 -8.796875zm9.3559265 -5.453125l3.296875 -0.10937691l1.890625 9.828127l1.96875 -9.71875l2.6875 -0.10937691l-3.4375 14.250002l-3.046875 0l-3.359375 -14.140625zm13.103821 9.171875q0 0.5 0.0625 1.078125q0.0625 0.5625 0.21875 1.046875q0.15625 0.484375 0.40625 0.8125q0.25 0.3125 0.609375 0.3125q0.3125 0 0.578125 -0.25q0.265625 -0.25 0.453125 -0.5625q0.1875 -0.3125 0.296875 -0.59375q0.125 -0.28125 0.15625 -0.328125l2.03125 0.765625q-0.1875 0.640625 -0.5 1.1875q-0.3125 0.53125 -0.75 0.921875q-0.421875 0.390625 -1.0 0.609375q-0.578125 0.21875 -1.3125 0.21875q-0.96875 0 -1.71875 -0.40625q-0.734375 -0.40625 -1.21875 -1.140625q-0.484375 -0.734375 -0.734375 -1.75q-0.234375 -1.03125 -0.234375 -2.234375q0 -1.234375 0.25 -2.25q0.25 -1.015625 0.75 -1.75q0.5 -0.734375 1.25 -1.140625q0.75 -0.40625 1.75 -0.40625q0.953125 0 1.671875 0.40625q0.71875 0.40625 1.1875 1.140625q0.484375 0.734375 0.71875 1.75q0.25 1.015625 0.25 2.25l-0.03125 0.125q-0.015625 0.046875 -0.03125 0.109375q0 0.046875 0 0.078125l-5.109375 0zm2.546875 -1.546875q0 -0.53125 -0.078125 -0.984375q-0.0625 -0.453125 -0.21875 -0.78125q-0.140625 -0.328125 -0.375 -0.515625q-0.234375 -0.1875 -0.578125 -0.1875q-0.234375 0 -0.484375 0.1875q-0.234375 0.1875 -0.421875 0.515625q-0.171875 0.328125 -0.28125 0.78125q-0.109375 0.453125 -0.109375 0.984375l2.546875 0zm4.0875397 -3.953125l2.671875 -0.21875l0 1.71875q0.21875 -0.3125 0.53125 -0.640625q0.328125 -0.328125 0.734375 -0.59375q0.40625 -0.265625 0.890625 -0.4375q0.484375 -0.1875 1.078125 -0.1875q0.046875 0 0.09375 0.015625q0.0625 0 0.109375 0q0.046875 0.015625 0.125 0.015625l0 3.1875q-0.4375 -0.125 -0.890625 -0.265625q-0.4375 -0.140625 -0.890625 -0.140625q-0.453125 0 -0.890625 0.203125q-0.4375 0.1875 -0.890625 0.6875l0 7.015625l-2.671875 0.21875l0 -10.578125zm7.569992 0l2.671875 -0.21875l0 10.578125l-2.671875 0.21875l0 -10.578125zm2.671875 -4.375002l0 2.671877l-2.671875 0l0 -2.656252l2.671875 -0.015625zm2.6951904 6.156252l-1.328125 0l0.109375 -2.0l1.21875 0l0 -0.203125q0 -0.65625 0.046875 -1.265625q0.046875 -0.625 0.296875 -1.109375q0.265625 -0.484375 0.796875 -0.78125q0.546875 -0.2968769 1.5 -0.2968769q0.5 0 0.84375 0.046875q0.34375 0.046875 0.546875 0.09375q0.25 0.06250191 0.421875 0.1406269l0 1.59375l-0.578125 0q-0.421875 0 -0.671875 0.140625q-0.234375 0.140625 -0.359375 0.359375q-0.109375 0.21875 -0.140625 0.515625q-0.03125 0.28125 -0.03125 0.578125l0 0.1875l1.875 0l-0.109375 2.0l-1.765625 0l0 8.578125l-2.671875 0.21875l0 -8.796875zm5.801178 -1.78125l2.671875 -0.21875l0 10.578125l-2.671875 0.21875l0 -10.578125zm2.671875 -4.375002l0 2.671877l-2.671875 0l0 -2.656252l2.671875 -0.015625zm1.5702057 11.812502q0 -0.765625 0.21875 -1.328125q0.21875 -0.578125 0.578125 -0.984375q0.375 -0.421875 0.859375 -0.6875q0.484375 -0.28125 1.0 -0.453125q0.53125 -0.171875 1.0625 -0.265625q0.53125 -0.09375 0.984375 -0.109375q0 -0.375 -0.015625 -0.734375q0 -0.359375 -0.078125 -0.640625q-0.0625 -0.28125 -0.234375 -0.453125q-0.15625 -0.1875 -0.4375 -0.1875q-0.234375 0 -0.40625 0.109375q-0.171875 0.109375 -0.296875 0.28125q-0.109375 0.171875 -0.171875 0.390625q-0.0625 0.21875 -0.09375 0.4375l-2.59375 -0.46875q0.109375 -0.796875 0.453125 -1.3125q0.359375 -0.53125 0.84375 -0.828125q0.5 -0.3125 1.09375 -0.4375q0.59375 -0.125 1.171875 -0.125q0.90625 0 1.546875 0.265625q0.65625 0.25 1.078125 0.703125q0.421875 0.4375 0.609375 1.03125q0.203125 0.59375 0.203125 1.28125l0 5.53125q0 0.3125 0.046875 0.65625q0.046875 0.328125 0.09375 0.609375q0.0625 0.328125 0.15625 0.640625l-2.609375 0.21875l-0.296875 -1.3125q-0.15625 0.296875 -0.40625 0.5625q-0.25 0.25 -0.578125 0.453125q-0.3125 0.203125 -0.671875 0.3125q-0.34375 0.125 -0.6875 0.125q-0.546875 0 -1.0 -0.25q-0.4375 -0.234375 -0.765625 -0.671875q-0.3125 -0.453125 -0.484375 -1.046875q-0.171875 -0.59375 -0.171875 -1.3125zm2.625 -0.046875q0 0.640625 0.25 1.03125q0.25 0.390625 0.796875 0.390625q0.1875 0 0.359375 -0.09375q0.1875 -0.109375 0.34375 -0.21875q0.171875 -0.140625 0.328125 -0.328125l0 -2.96875q-0.4375 0 -0.828125 0.109375q-0.375 0.109375 -0.65625 0.375q-0.28125 0.25 -0.4375 0.671875q-0.15625 0.421875 -0.15625 1.03125zm6.817993 2.96875l0 -13.8125l2.671875 -0.3281269l0 4.921877q0.3125 -0.328125 0.65625 -0.609375q0.34375 -0.28125 0.6875 -0.46875q0.359375 -0.203125 0.71875 -0.3125q0.359375 -0.109375 0.703125 -0.109375q0.53125 0 1.0 0.296875q0.46875 0.28125 0.828125 0.921875q0.359375 0.640625 0.5625 1.703125q0.203125 1.046875 0.203125 2.5625q0 1.453125 -0.203125 2.5q-0.203125 1.046875 -0.59375 1.75q-0.390625 0.6875 -0.96875 1.015625q-0.5625 0.328125 -1.296875 0.328125q-0.375 0 -0.671875 -0.0625q-0.28125 -0.0625 -0.515625 -0.1875q-0.234375 -0.109375 -0.40625 -0.25q-0.171875 -0.140625 -0.296875 -0.28125q-0.28125 -0.359375 -0.40625 -0.8125l-0.65625 1.453125l-2.015625 -0.21875zm2.671875 -4.34375q0 0.828125 0.109375 1.375q0.109375 0.546875 0.296875 0.859375q0.1875 0.3125 0.421875 0.4375q0.234375 0.125 0.46875 0.125q0.5 0 0.765625 -0.296875q0.28125 -0.296875 0.421875 -0.796875q0.140625 -0.515625 0.171875 -1.1875q0.03125 -0.671875 0.03125 -1.40625q0 -0.671875 -0.03125 -1.25q-0.015625 -0.59375 -0.109375 -1.015625q-0.078125 -0.4375 -0.265625 -0.6875q-0.1875 -0.25 -0.515625 -0.25q-0.25 0 -0.5625 0.109375q-0.296875 0.109375 -0.5625 0.25q-0.3125 0.171875 -0.640625 0.359375l0 3.375zm7.054474 -9.46875l2.671875 -0.3281269l0 14.140627l-2.671875 0.21875l0 -14.03125zm7.0389404 8.953125q0 0.5 0.0625 1.078125q0.0625 0.5625 0.21875 1.046875q0.15625 0.484375 0.40625 0.8125q0.25 0.3125 0.609375 0.3125q0.3125 0 0.578125 -0.25q0.265625 -0.25 0.453125 -0.5625q0.1875 -0.3125 0.296875 -0.59375q0.125 -0.28125 0.15625 -0.328125l2.03125 0.765625q-0.1875 0.640625 -0.5 1.1875q-0.3125 0.53125 -0.75 0.921875q-0.421875 0.390625 -1.0 0.609375q-0.578125 0.21875 -1.3125 0.21875q-0.96875 0 -1.71875 -0.40625q-0.734375 -0.40625 -1.21875 -1.140625q-0.484375 -0.734375 -0.734375 -1.75q-0.234375 -1.03125 -0.234375 -2.234375q0 -1.234375 0.25 -2.25q0.25 -1.015625 0.75 -1.75q0.5 -0.734375 1.25 -1.140625q0.75 -0.40625 1.75 -0.40625q0.953125 0 1.671875 0.40625q0.71875 0.40625 1.1875 1.140625q0.484375 0.734375 0.71875 1.75q0.25 1.015625 0.25 2.25l-0.03125 0.125q-0.015625 0.046875 -0.03125 0.109375q0 0.046875 0 0.078125l-5.109375 0zm2.546875 -1.546875q0 -0.53125 -0.078125 -0.984375q-0.0625 -0.453125 -0.21875 -0.78125q-0.140625 -0.328125 -0.375 -0.515625q-0.234375 -0.1875 -0.578125 -0.1875q-0.234375 0 -0.484375 0.1875q-0.234375 0.1875 -0.421875 0.515625q-0.171875 0.328125 -0.28125 0.78125q-0.109375 0.453125 -0.109375 0.984375l2.546875 0zm16.736023 1.65625q0 1.0 -0.25 1.9375q-0.234375 0.921875 -0.75 1.640625q-0.5 0.71875 -1.265625 1.15625q-0.75 0.421875 -1.78125 0.421875q-0.890625 0 -1.578125 -0.3125q-0.671875 -0.328125 -1.171875 -0.890625q-0.484375 -0.5625 -0.8125 -1.296875q-0.328125 -0.75 -0.53125 -1.609375q-0.1875 -0.859375 -0.28125 -1.78125q-0.078125 -0.921875 -0.078125 -1.828125q0 -0.796875 0.09375 -1.640625q0.109375 -0.84375 0.328125 -1.625q0.234375 -0.796875 0.578125 -1.5q0.359375 -0.703125 0.859375 -1.21875q0.515625 -0.53125 1.171875 -0.8281269q0.65625 -0.3125 1.484375 -0.3125q0.9375 0 1.671875 0.4531269q0.75 0.453125 1.25 1.1875q0.5 0.71875 0.765625 1.640625q0.28125 0.90625 0.28125 1.859375l-2.6875 0.140625q0 -0.078125 -0.015625 -0.328125q-0.015625 -0.265625 -0.0625 -0.59375q-0.046875 -0.34375 -0.140625 -0.71875q-0.078125 -0.375 -0.234375 -0.6875q-0.15625 -0.3125 -0.40625 -0.515625q-0.234375 -0.21875 -0.578125 -0.21875q-0.328125 0 -0.578125 0.21875q-0.25 0.21875 -0.421875 0.59375q-0.171875 0.359375 -0.28125 0.859375q-0.109375 0.484375 -0.1875 1.03125q-0.0625 0.546875 -0.09375 1.109375q-0.015625 0.5625 -0.015625 1.09375q0 0.671875 0.015625 1.328125q0.03125 0.65625 0.109375 1.25q0.078125 0.59375 0.203125 1.109375q0.125 0.5 0.328125 0.875q0.203125 0.359375 0.5 0.5625q0.296875 0.203125 0.6875 0.203125q0.4375 0 0.703125 -0.28125q0.28125 -0.296875 0.453125 -0.734375q0.171875 -0.453125 0.234375 -0.96875q0.078125 -0.53125 0.125 -1.0l2.359375 0.21875zm1.6443176 -9.0625l2.671875 -0.3281269l0 14.140627l-2.671875 0.21875l0 -14.03125zm4.2420654 10.890625q0 -0.765625 0.21875 -1.328125q0.21875 -0.578125 0.578125 -0.984375q0.375 -0.421875 0.859375 -0.6875q0.484375 -0.28125 1.0 -0.453125q0.53125 -0.171875 1.0625 -0.265625q0.53125 -0.09375 0.984375 -0.109375q0 -0.375 -0.015625 -0.734375q0 -0.359375 -0.078125 -0.640625q-0.0625 -0.28125 -0.234375 -0.453125q-0.15625 -0.1875 -0.4375 -0.1875q-0.234375 0 -0.40625 0.109375q-0.171875 0.109375 -0.296875 0.28125q-0.109375 0.171875 -0.171875 0.390625q-0.0625 0.21875 -0.09375 0.4375l-2.59375 -0.46875q0.109375 -0.796875 0.453125 -1.3125q0.359375 -0.53125 0.84375 -0.828125q0.5 -0.3125 1.09375 -0.4375q0.59375 -0.125 1.171875 -0.125q0.90625 0 1.546875 0.265625q0.65625 0.25 1.078125 0.703125q0.421875 0.4375 0.609375 1.03125q0.203125 0.59375 0.203125 1.28125l0 5.53125q0 0.3125 0.046875 0.65625q0.046875 0.328125 0.09375 0.609375q0.0625 0.328125 0.15625 0.640625l-2.609375 0.21875l-0.296875 -1.3125q-0.15625 0.296875 -0.40625 0.5625q-0.25 0.25 -0.578125 0.453125q-0.3125 0.203125 -0.671875 0.3125q-0.34375 0.125 -0.6875 0.125q-0.546875 0 -1.0 -0.25q-0.4375 -0.234375 -0.765625 -0.671875q-0.3125 -0.453125 -0.484375 -1.046875q-0.171875 -0.59375 -0.171875 -1.3125zm2.625 -0.046875q0 0.640625 0.25 1.03125q0.25 0.390625 0.796875 0.390625q0.1875 0 0.359375 -0.09375q0.1875 -0.109375 0.34375 -0.21875q0.171875 -0.140625 0.328125 -0.328125l0 -2.96875q-0.4375 0 -0.828125 0.109375q-0.375 0.109375 -0.65625 0.375q-0.28125 0.25 -0.4375 0.671875q-0.15625 0.421875 -0.15625 1.03125zm6.833618 -7.390625l2.671875 -0.21875l0 10.578125l-2.671875 0.21875l0 -10.578125zm2.671875 -4.375002l0 2.671877l-2.671875 0l0 -2.656252l2.671875 -0.015625zm11.117065 7.406252q0 -0.546875 -0.15625 -0.828125q-0.15625 -0.28125 -0.390625 -0.28125q-0.28125 0 -0.5 0.125q-0.21875 0.125 -0.390625 0.25q-0.1875 0.171875 -0.34375 0.390625l0 7.671875l-2.671875 0.21875l0 -7.5625q0 -0.59375 -0.140625 -0.84375q-0.140625 -0.25 -0.3125 -0.25q-0.265625 0 -0.5 0.125q-0.234375 0.125 -0.421875 0.25q-0.21875 0.171875 -0.40625 0.390625l0 7.671875l-2.671875 0.21875l0 -10.578125l2.671875 -0.21875l0 1.359375q0.5625 -0.65625 1.265625 -1.078125q0.703125 -0.421875 1.484375 -0.421875q0.546875 0 0.953125 0.390625q0.421875 0.375 0.625 1.265625q0.578125 -0.765625 1.234375 -1.203125q0.65625 -0.453125 1.515625 -0.453125q0.53125 0 0.875 0.21875q0.34375 0.21875 0.546875 0.640625q0.21875 0.40625 0.3125 1.015625q0.09375 0.609375 0.09375 1.375l0 7.46875l-2.671875 0.21875l0 -7.546875zm6.092682 4.3125q0.09375 0.359375 0.296875 0.640625q0.171875 0.234375 0.46875 0.4375q0.3125 0.1875 0.796875 0.1875q0.1875 0 0.421875 -0.03125q0.234375 -0.046875 0.4375 -0.140625q0.203125 -0.109375 0.34375 -0.265625q0.140625 -0.171875 0.140625 -0.421875q0 -0.34375 -0.25 -0.5625q-0.234375 -0.21875 -0.546875 -0.359375l-2.234375 -0.90625q-0.90625 -0.359375 -1.390625 -1.125q-0.46875 -0.765625 -0.46875 -1.875q0 -0.796875 0.296875 -1.40625q0.3125 -0.625 0.8125 -1.03125q0.5 -0.421875 1.140625 -0.625q0.65625 -0.21875 1.359375 -0.21875q0.578125 0 1.125 0.171875q0.5625 0.15625 1.046875 0.5q0.484375 0.328125 0.84375 0.8125q0.359375 0.46875 0.53125 1.09375l-2.1875 0.671875q-0.09375 -0.34375 -0.28125 -0.625q-0.15625 -0.25 -0.421875 -0.4375q-0.25 -0.203125 -0.640625 -0.203125q-0.21875 0 -0.421875 0.046875q-0.203125 0.03125 -0.375 0.140625q-0.15625 0.109375 -0.265625 0.28125q-0.09375 0.15625 -0.09375 0.375q0 0.171875 0.09375 0.328125q0.109375 0.140625 0.25 0.25q0.140625 0.109375 0.296875 0.203125q0.15625 0.078125 0.296875 0.125l1.890625 0.796875q0.453125 0.203125 0.84375 0.46875q0.390625 0.265625 0.6875 0.640625q0.296875 0.375 0.453125 0.875q0.171875 0.484375 0.171875 1.140625q0 0.859375 -0.328125 1.5q-0.3125 0.640625 -0.84375 1.078125q-0.53125 0.421875 -1.203125 0.625q-0.671875 0.21875 -1.359375 0.21875q-0.8125 0 -1.453125 -0.1875q-0.640625 -0.1875 -1.109375 -0.53125q-0.46875 -0.359375 -0.78125 -0.859375q-0.296875 -0.515625 -0.4375 -1.125l2.046875 -0.671875z" fill-rule="nonzero"></path><path fill="#b6d7a8" d="m45.72441 212.70604l241.88976 0l0 41.76378l-241.88976 0z" fill-rule="nonzero"></path><path stroke="#000000" stroke-width="1.0" stroke-linejoin="round" stroke-linecap="butt" d="m45.72441 212.70604l241.88976 0l0 41.76378l-241.88976 0z" fill-rule="nonzero"></path><path fill="#000000" d="m81.634735 226.11292l2.84375 0q1.859375 0 3.3125 0.71875q1.625 0.828125 2.25 2.421875q0.34375 0.890625 0.34375 1.96875q0 2.578125 -1.578125 4.21875q-1.578125 1.625 -4.59375 1.625l-2.578125 0q-1.25 0 -2.25 0.046875l-0.046875 -0.46875q0.8125 -0.15625 1.09375 -0.28125q0.296875 -0.125 0.328125 -0.40625q0.125 -0.9375 0.125 -3.421875q0 -4.015625 -0.09375 -5.0l-0.03125 -0.328125q-0.03125 -0.28125 -0.296875 -0.40625q-0.25 -0.125 -1.015625 -0.28125l0.046875 -0.46875q1.0 0.0625 2.140625 0.0625zm0.859375 10.0q0.875 0.1875 1.84375 0.1875q0.984375 0 1.859375 -0.390625q0.875 -0.390625 1.34375 -0.921875q0.46875 -0.546875 0.734375 -1.28125q0.4375 -1.09375 0.4375 -2.234375q0 -4.6875 -5.21875 -4.6875q-0.578125 0 -0.765625 0.0625q-0.171875 0.0625 -0.234375 0.265625q-0.171875 1.046875 -0.171875 3.515625q0 3.859375 0.125 5.109375l0.046875 0.375zm11.491531 -8.296875q-0.234375 0.234375 -0.59375 0.234375q-0.34375 0 -0.59375 -0.234375q-0.234375 -0.25 -0.234375 -0.609375q0 -0.359375 0.234375 -0.59375q0.25 -0.25 0.59375 -0.25q0.359375 0 0.59375 0.25q0.25 0.234375 0.25 0.59375q0 0.359375 -0.25 0.609375zm0.0625 2.046875l-0.03125 3.546875q0 2.0625 0.125 2.6875l0.046875 0.203125q0.015625 0.109375 0.40625 0.21875q0.390625 0.09375 0.71875 0.125l-0.046875 0.46875q-0.765625 -0.046875 -1.875 -0.046875q-1.09375 0 -1.859375 0.046875l0.046875 -0.46875q0.328125 -0.03125 0.703125 -0.125q0.390625 -0.109375 0.40625 -0.21875q0.125 -0.5625 0.125 -2.25q0 -2.71875 -0.125 -3.328125l-1.015625 -0.296875l-0.03125 -0.421875q1.015625 0 2.109375 -0.28125l0.296875 0.140625zm8.462509 -0.734375q0.140625 0 0.421875 0.375q0.296875 0.375 0.40625 0.75l-0.25 0.296875q-0.28125 -0.140625 -0.6875 -0.140625q-0.390625 0 -0.75 0.171875q0.5625 0.6875 0.5625 1.8125q0 1.125 -0.734375 1.921875q-0.734375 0.78125 -2.171875 0.78125q-0.375 0 -0.703125 -0.046875q-0.59375 0.765625 -0.59375 1.0625q0 0.359375 1.03125 0.359375l1.203125 0q3.03125 0 3.03125 1.953125q0 1.09375 -1.21875 1.96875q-1.203125 0.875 -3.234375 0.875q-1.1875 0 -2.046875 -0.390625q-0.859375 -0.390625 -0.859375 -1.109375q0 -1.015625 1.640625 -2.34375q-1.015625 -0.234375 -1.015625 -0.765625q0 -0.546875 1.453125 -1.71875q-1.625 -0.515625 -1.625 -2.578125q0 -1.0625 0.734375 -1.84375q0.75 -0.796875 2.09375 -0.796875q1.359375 0 2.03125 0.484375q0.203125 -0.3125 0.59375 -0.6875q0.40625 -0.390625 0.6875 -0.390625zm-5.25 10.109375q0 0.625 0.453125 1.0q0.46875 0.390625 1.515625 0.390625q1.0625 0 1.875 -0.671875q0.828125 -0.65625 0.828125 -1.40625q0 -0.46875 -0.421875 -0.78125q-0.421875 -0.296875 -1.296875 -0.296875l-2.15625 0q-0.796875 0.890625 -0.796875 1.765625zm2.0625 -8.859375q-0.46875 0 -0.8125 0.21875q-0.34375 0.21875 -0.5 0.546875q-0.28125 0.640625 -0.28125 1.359375q0 0.71875 0.359375 1.328125q0.359375 0.609375 1.171875 0.609375q0.5625 0 0.9375 -0.34375q0.390625 -0.34375 0.5 -0.703125q0.125 -0.375 0.140625 -0.78125q0 -2.234375 -1.515625 -2.234375zm6.9025116 -2.5625q-0.234375 0.234375 -0.59375 0.234375q-0.34375 0 -0.59375 -0.234375q-0.234375 -0.25 -0.234375 -0.609375q0 -0.359375 0.234375 -0.59375q0.25 -0.25 0.59375 -0.25q0.359375 0 0.59375 0.25q0.25 0.234375 0.25 0.59375q0 0.359375 -0.25 0.609375zm0.0625 2.046875l-0.03125 3.546875q0 2.0625 0.125 2.6875l0.046875 0.203125q0.015625 0.109375 0.40625 0.21875q0.390625 0.09375 0.71875 0.125l-0.046875 0.46875q-0.765625 -0.046875 -1.875 -0.046875q-1.09375 0 -1.859375 0.046875l0.046875 -0.46875q0.328125 -0.03125 0.703125 -0.125q0.390625 -0.109375 0.40625 -0.21875q0.125 -0.5625 0.125 -2.25q0 -2.71875 -0.125 -3.328125l-1.015625 -0.296875l-0.03125 -0.421875q1.015625 0 2.109375 -0.28125l0.296875 0.140625zm4.650009 7.34375q-1.671875 0 -1.671875 -1.59375q0.015625 -1.40625 0.015625 -2.578125q0 -1.1875 -0.03125 -2.46875l-1.015625 0.015625l-0.046875 -0.171875l0.359375 -0.625q0.21875 0.046875 0.671875 0.0625l-0.0625 -1.46875l1.0625 -0.9375l0.296875 0.140625q-0.03125 1.1875 -0.03125 2.25l2.359375 -0.015625l0.078125 0.1875l-0.578125 0.640625q-0.546875 -0.0625 -1.859375 -0.078125l0 2.140625q0 2.0 0.046875 2.875q0.046875 0.71875 0.84375 0.71875q0.640625 0 1.40625 -0.375l0.203125 0.53125q-1.140625 0.75 -2.046875 0.75zm6.76326 -3.5q-1.3125 0.03125 -2.0 0.5q-0.6875 0.453125 -0.6875 1.0q0 0.546875 0.28125 0.796875q0.28125 0.25 0.90625 0.25q0.625 0 1.5 -0.53125l0 -2.015625zm1.171875 3.5q-0.96875 0 -1.125 -1.03125q-1.40625 1.03125 -2.4375 1.03125q-0.6875 0 -1.171875 -0.421875q-0.46875 -0.421875 -0.46875 -1.3125q0 -0.90625 0.953125 -1.625q0.953125 -0.71875 3.078125 -0.859375l0 -1.484375q0 -0.453125 -0.328125 -0.6875q-0.328125 -0.25 -0.921875 -0.25q-0.59375 0 -0.953125 0.328125q-0.34375 0.328125 -0.34375 0.84375q0 0.1875 0.046875 0.4375l-0.34375 0.15625q-0.328125 -0.171875 -0.609375 -0.46875q-0.28125 -0.3125 -0.28125 -0.453125q0 -0.140625 0.21875 -0.390625q0.21875 -0.265625 0.578125 -0.5625q0.375 -0.3125 0.984375 -0.53125q0.625 -0.21875 1.390625 -0.21875q0.765625 0 1.25 0.375q0.484375 0.375 0.484375 1.359375q0 0.984375 0.09375 4.15625q0.015625 0.765625 0.578125 0.765625q0.234375 0 0.484375 -0.125l0.171875 0.40625q-0.609375 0.5625 -1.328125 0.5625zm4.2807617 -11.671875q-0.03125 2.0 -0.03125 5.859375q0 3.84375 0.171875 4.90625q0.015625 0.109375 0.421875 0.21875q0.40625 0.109375 0.703125 0.125l-0.046875 0.46875q-0.765625 -0.046875 -1.859375 -0.046875q-1.078125 0 -1.859375 0.046875l0.0625 -0.46875q0.328125 -0.03125 0.703125 -0.125q0.375 -0.109375 0.390625 -0.21875q0.109375 -1.046875 0.109375 -4.0q0 -4.8125 -0.09375 -5.640625l-0.03125 -0.265625l-1.015625 -0.296875l-0.03125 -0.421875q1.015625 0 2.109375 -0.296875l0.296875 0.15625zm12.211395 3.265625q-0.3125 -1.171875 -0.890625 -1.59375q-0.5625 -0.4375 -1.484375 -0.4375q-0.90625 0 -1.390625 0.4375q-0.46875 0.4375 -0.46875 1.078125q0 1.03125 1.0625 1.734375l2.53125 1.65625q1.671875 1.09375 1.671875 2.578125q0 1.203125 -0.953125 2.09375q-0.953125 0.875 -2.78125 0.875q-1.828125 0 -3.1875 -0.578125q0.265625 -1.3125 0.265625 -2.34375l0.421875 -0.1875q0.25 1.3125 0.75 1.8125q0.515625 0.484375 1.59375 0.484375q1.078125 0 1.640625 -0.53125q0.578125 -0.53125 0.578125 -1.25q0 -0.96875 -1.046875 -1.640625l-2.546875 -1.6875q-1.484375 -0.953125 -1.484375 -2.453125q0 -1.171875 0.90625 -2.03125q0.921875 -0.859375 2.390625 -0.859375q0.484375 0 1.0625 0.125q0.59375 0.125 0.890625 0.125q0.3125 0 0.703125 -0.09375l0 0.234375q0 1.171875 0.203125 2.25l-0.4375 0.203125zm4.6042633 -0.984375q-0.234375 0.234375 -0.59375 0.234375q-0.34375 0 -0.59375 -0.234375q-0.234375 -0.25 -0.234375 -0.609375q0 -0.359375 0.234375 -0.59375q0.25 -0.25 0.59375 -0.25q0.359375 0 0.59375 0.25q0.25 0.234375 0.25 0.59375q0 0.359375 -0.25 0.609375zm0.0625 2.046875l-0.03125 3.546875q0 2.0625 0.125 2.6875l0.046875 0.203125q0.015625 0.109375 0.40625 0.21875q0.390625 0.09375 0.71875 0.125l-0.046875 0.46875q-0.765625 -0.046875 -1.875 -0.046875q-1.09375 0 -1.859375 0.046875l0.046875 -0.46875q0.328125 -0.03125 0.703125 -0.125q0.390625 -0.109375 0.40625 -0.21875q0.125 -0.5625 0.125 -2.25q0 -2.71875 -0.125 -3.328125l-1.015625 -0.296875l-0.03125 -0.421875q1.015625 0 2.109375 -0.28125l0.296875 0.140625zm8.462509 -0.734375q0.140625 0 0.421875 0.375q0.296875 0.375 0.40625 0.75l-0.25 0.296875q-0.28125 -0.140625 -0.6875 -0.140625q-0.390625 0 -0.75 0.171875q0.5625 0.6875 0.5625 1.8125q0 1.125 -0.734375 1.921875q-0.734375 0.78125 -2.171875 0.78125q-0.375 0 -0.703125 -0.046875q-0.59375 0.765625 -0.59375 1.0625q0 0.359375 1.03125 0.359375l1.203125 0q3.03125 0 3.03125 1.953125q0 1.09375 -1.21875 1.96875q-1.203125 0.875 -3.234375 0.875q-1.1875 0 -2.046875 -0.390625q-0.859375 -0.390625 -0.859375 -1.109375q0 -1.015625 1.640625 -2.34375q-1.015625 -0.234375 -1.015625 -0.765625q0 -0.546875 1.453125 -1.71875q-1.625 -0.515625 -1.625 -2.578125q0 -1.0625 0.734375 -1.84375q0.75 -0.796875 2.09375 -0.796875q1.359375 0 2.03125 0.484375q0.203125 -0.3125 0.59375 -0.6875q0.40625 -0.390625 0.6875 -0.390625zm-5.25 10.109375q0 0.625 0.453125 1.0q0.46875 0.390625 1.515625 0.390625q1.0625 0 1.875 -0.671875q0.828125 -0.65625 0.828125 -1.40625q0 -0.46875 -0.421875 -0.78125q-0.421875 -0.296875 -1.296875 -0.296875l-2.15625 0q-0.796875 0.890625 -0.796875 1.765625zm2.0625 -8.859375q-0.46875 0 -0.8125 0.21875q-0.34375 0.21875 -0.5 0.546875q-0.28125 0.640625 -0.28125 1.359375q0 0.71875 0.359375 1.328125q0.359375 0.609375 1.171875 0.609375q0.5625 0 0.9375 -0.34375q0.390625 -0.34375 0.5 -0.703125q0.125 -0.375 0.140625 -0.78125q0 -2.234375 -1.515625 -2.234375zm6.8556366 0.8125l-0.015625 2.21875q0 2.0625 0.125 2.6875l0.03125 0.203125q0.015625 0.109375 0.359375 0.21875q0.34375 0.09375 0.671875 0.125l-0.046875 0.46875q-0.765625 -0.046875 -1.765625 -0.046875q-0.984375 0 -1.75 0.046875l0.046875 -0.46875q0.296875 -0.03125 0.640625 -0.125q0.34375 -0.109375 0.359375 -0.21875q0.125 -0.5625 0.125 -2.25q0 -2.71875 -0.125 -3.328125l-1.015625 -0.296875l-0.03125 -0.421875q1.015625 0 2.109375 -0.28125l0.296875 0.140625l0 0.765625q1.78125 -0.921875 3.09375 -0.921875q0.796875 0 1.203125 0.328125q0.421875 0.3125 0.421875 1.1875l0 2.1875q0 2.0625 0.109375 2.6875l0.046875 0.203125q0.03125 0.109375 0.375 0.21875q0.34375 0.09375 0.65625 0.125l-0.046875 0.46875q-0.765625 -0.046875 -1.765625 -0.046875q-0.984375 0 -1.75 0.046875l0.046875 -0.46875q0.296875 -0.03125 0.640625 -0.125q0.34375 -0.109375 0.359375 -0.21875q0.125 -0.5625 0.125 -2.890625l0 -1.5625q0 -0.625 -0.375 -0.859375q-0.359375 -0.234375 -1.234375 -0.234375q-0.875 0 -1.921875 0.4375zm10.850647 2.515625q-1.3125 0.03125 -2.0 0.5q-0.6875 0.453125 -0.6875 1.0q0 0.546875 0.28125 0.796875q0.28125 0.25 0.90625 0.25q0.625 0 1.5 -0.53125l0 -2.015625zm1.171875 3.5q-0.96875 0 -1.125 -1.03125q-1.40625 1.03125 -2.4375 1.03125q-0.6875 0 -1.171875 -0.421875q-0.46875 -0.421875 -0.46875 -1.3125q0 -0.90625 0.953125 -1.625q0.953125 -0.71875 3.078125 -0.859375l0 -1.484375q0 -0.453125 -0.328125 -0.6875q-0.328125 -0.25 -0.921875 -0.25q-0.59375 0 -0.953125 0.328125q-0.34375 0.328125 -0.34375 0.84375q0 0.1875 0.046875 0.4375l-0.34375 0.15625q-0.328125 -0.171875 -0.609375 -0.46875q-0.28125 -0.3125 -0.28125 -0.453125q0 -0.140625 0.21875 -0.390625q0.21875 -0.265625 0.578125 -0.5625q0.375 -0.3125 0.984375 -0.53125q0.625 -0.21875 1.390625 -0.21875q0.765625 0 1.25 0.375q0.484375 0.375 0.484375 1.359375q0 0.984375 0.09375 4.15625q0.015625 0.765625 0.578125 0.765625q0.234375 0 0.484375 -0.125l0.171875 0.40625q-0.609375 0.5625 -1.328125 0.5625zm4.6088867 0q-1.671875 0 -1.671875 -1.59375q0.015625 -1.40625 0.015625 -2.578125q0 -1.1875 -0.03125 -2.46875l-1.015625 0.015625l-0.046875 -0.171875l0.359375 -0.625q0.21875 0.046875 0.671875 0.0625l-0.0625 -1.46875l1.0625 -0.9375l0.296875 0.140625q-0.03125 1.1875 -0.03125 2.25l2.359375 -0.015625l0.078125 0.1875l-0.578125 0.640625q-0.546875 -0.0625 -1.859375 -0.078125l0 2.140625q0 2.0 0.046875 2.875q0.046875 0.71875 0.84375 0.71875q0.640625 0 1.40625 -0.375l0.203125 0.53125q-1.140625 0.75 -2.046875 0.75zm5.091385 0q-1.625 0 -1.625 -1.65625l0 -2.140625q0 -2.15625 -0.109375 -2.6875l-0.953125 -0.296875l-0.03125 -0.421875q0.953125 0 2.03125 -0.28125l0.3125 0.140625q-0.046875 2.859375 -0.046875 5.203125q0 1.078125 1.296875 1.078125q0.546875 0 1.15625 -0.1875q0.625 -0.1875 1.0 -0.40625q0.0625 -0.875 0.0625 -2.03125q0 -2.1875 -0.125 -2.796875l-1.015625 -0.296875l-0.03125 -0.421875q1.03125 0 2.125 -0.28125l0.296875 0.140625q-0.046875 1.203125 -0.046875 3.96875l0.046875 1.875q0 0.265625 0.21875 0.421875q0.21875 0.15625 0.421875 0.203125q0.203125 0.03125 0.578125 0.046875l-0.046875 0.46875q-0.578125 0.046875 -1.75 0.28125q-0.484375 -0.203125 -0.65625 -0.953125q-1.53125 1.03125 -3.109375 1.03125zm10.925018 -7.59375q0.125 0 0.421875 0.375q0.296875 0.375 0.390625 0.734375l-0.234375 0.3125q-0.578125 -0.21875 -1.203125 -0.21875q-0.625 0 -1.140625 0.515625q-0.515625 0.515625 -0.515625 1.671875q0.015625 2.8125 0.140625 3.28125q0.015625 0.125 0.453125 0.234375q0.453125 0.09375 0.9375 0.125l-0.0625 0.46875q-0.765625 -0.046875 -1.9375 -0.046875q-1.171875 0 -1.9375 0.046875l0.046875 -0.46875q0.3125 -0.03125 0.65625 -0.125q0.359375 -0.109375 0.375 -0.21875q0.125 -0.5625 0.125 -2.25q0 -2.71875 -0.125 -3.328125l-1.015625 -0.296875l-0.03125 -0.421875q1.015625 0 2.109375 -0.28125l0.296875 0.140625q-0.03125 0.25 -0.03125 1.3125q0.46875 -0.765625 1.171875 -1.15625q0.71875 -0.40625 1.109375 -0.40625zm6.328888 2.328125q0 -0.734375 -0.421875 -1.09375q-0.40625 -0.359375 -0.921875 -0.359375q-0.75 0 -1.296875 0.59375q-0.546875 0.59375 -0.71875 1.453125l3.3125 -0.125q0.046875 -0.234375 0.046875 -0.46875zm-1.390625 5.265625q-1.703125 0 -2.5625 -0.96875q-0.859375 -0.96875 -0.859375 -2.578125q0 -1.609375 0.953125 -2.78125q0.953125 -1.171875 2.875 -1.171875q0.96875 0 1.6875 0.6875q0.734375 0.6875 0.734375 2.046875l-0.546875 0.65625q-0.09375 -0.015625 -1.515625 -0.015625q-1.40625 0 -2.828125 0.109375l0 0.140625q0 1.46875 0.609375 2.203125q0.609375 0.71875 1.65625 0.71875q1.0625 0 2.234375 -0.515625l0.1875 0.484375q-1.234375 0.984375 -2.625 0.984375zm11.594025 -6.71875q-0.65625 0 -1.140625 0.328125q-0.46875 0.328125 -0.6875 0.828125q-0.4375 0.90625 -0.4375 1.734375q0 1.3125 0.53125 2.1875q0.53125 0.875 1.65625 0.875q0.609375 0 1.078125 -0.28125q0.46875 -0.28125 0.703125 -0.71875q0.46875 -0.84375 0.5 -1.671875q0 -3.28125 -2.203125 -3.28125zm0.078125 -0.78125q1.828125 0 2.65625 0.9375q0.84375 0.921875 0.84375 2.578125q0 1.65625 -0.953125 2.828125q-0.953125 1.15625 -2.78125 1.15625q-1.828125 0 -2.65625 -0.921875q-0.828125 -0.921875 -0.828125 -2.5625q0 -1.640625 0.953125 -2.828125q0.953125 -1.1875 2.765625 -1.1875zm8.27652 7.40625q-0.765625 -0.046875 -1.890625 -0.046875q-1.125 0 -1.890625 0.046875l0.046875 -0.46875q0.3125 -0.03125 0.6875 -0.125q0.375 -0.109375 0.390625 -0.21875q0.125 0 0.125 -5.734375l-1.09375 0.015625l-0.046875 -0.171875l0.359375 -0.625q0.234375 0.03125 0.765625 0.0625q0 -1.03125 0.359375 -1.859375q0.375 -0.84375 0.875 -1.296875q0.5 -0.46875 1.09375 -0.796875q0.953125 -0.515625 1.53125 -0.515625q0.125 0 0.421875 0.390625q0.296875 0.375 0.390625 0.734375l-0.234375 0.3125q-0.6875 -0.3125 -1.375 -0.3125q-1.84375 0 -1.84375 3.328125l2.078125 -0.015625l0.078125 0.1875l-0.484375 0.625q-0.546875 -0.046875 -1.671875 -0.0625q0 4.453125 0.15625 5.734375q0.03125 0.109375 0.46875 0.21875q0.4375 0.109375 0.75 0.125l-0.046875 0.46875zm8.477905 -9.90625q-0.125 0.953125 -0.125 3.421875q0 4.015625 0.09375 5.0l0.03125 0.328125q0.03125 0.296875 0.296875 0.421875q0.28125 0.109375 1.0625 0.265625l-0.046875 0.46875q-1.0 -0.046875 -2.1875 -0.046875q-1.1875 0 -2.1875 0.046875l-0.046875 -0.46875q0.8125 -0.15625 1.09375 -0.28125q0.296875 -0.125 0.328125 -0.40625q0.125 -0.9375 0.125 -3.421875q0 -4.015625 -0.09375 -5.0l-0.03125 -0.328125q-0.03125 -0.28125 -0.296875 -0.40625q-0.25 -0.125 -1.015625 -0.28125l0.046875 -0.46875q1.0 0.0625 2.109375 0.0625q1.109375 0 2.109375 -0.0625l0.046875 0.46875q-0.765625 0.15625 -1.03125 0.28125q-0.25 0.125 -0.28125 0.40625zm6.8470154 2.78125l0.234375 0.125q0 1.03125 0.09375 1.578125l-0.421875 0.140625q-0.203125 -0.8125 -0.578125 -1.125q-0.375 -0.328125 -0.953125 -0.328125q-0.578125 0 -0.921875 0.3125q-0.328125 0.296875 -0.328125 0.71875q0 0.71875 0.828125 1.171875l1.640625 0.90625q1.046875 0.59375 1.046875 1.703125q0 0.8125 -0.65625 1.421875q-0.640625 0.59375 -1.84375 0.59375q-1.1875 0 -2.453125 -0.390625q0.1875 -1.125 0.1875 -1.84375l0.421875 -0.140625q0.140625 0.578125 0.203125 0.78125q0.078125 0.203125 0.265625 0.515625q0.1875 0.296875 0.46875 0.390625q0.296875 0.09375 0.84375 0.09375q0.5625 0 0.9375 -0.3125q0.375 -0.328125 0.375 -0.765625q0 -0.671875 -0.765625 -1.09375l-1.71875 -0.953125q-1.0625 -0.5625 -1.0625 -1.71875q0 -0.8125 0.625 -1.4375q0.625 -0.625 1.734375 -0.625q1.125 0 1.796875 0.28125zm6.112015 0l0.234375 0.125q0 1.03125 0.09375 1.578125l-0.421875 0.140625q-0.203125 -0.8125 -0.578125 -1.125q-0.375 -0.328125 -0.953125 -0.328125q-0.578125 0 -0.921875 0.3125q-0.328125 0.296875 -0.328125 0.71875q0 0.71875 0.828125 1.171875l1.640625 0.90625q1.046875 0.59375 1.046875 1.703125q0 0.8125 -0.65625 1.421875q-0.640625 0.59375 -1.84375 0.59375q-1.1875 0 -2.453125 -0.390625q0.1875 -1.125 0.1875 -1.84375l0.421875 -0.140625q0.140625 0.578125 0.203125 0.78125q0.078125 0.203125 0.265625 0.515625q0.1875 0.296875 0.46875 0.390625q0.296875 0.09375 0.84375 0.09375q0.5625 0 0.9375 -0.3125q0.375 -0.328125 0.375 -0.765625q0 -0.671875 -0.765625 -1.09375l-1.71875 -0.953125q-1.0625 -0.5625 -1.0625 -1.71875q0 -0.8125 0.625 -1.4375q0.625 -0.625 1.734375 -0.625q1.125 0 1.796875 0.28125zm4.143265 7.21875q-1.625 0 -1.625 -1.65625l0 -2.140625q0 -2.15625 -0.109375 -2.6875l-0.953125 -0.296875l-0.03125 -0.421875q0.953125 0 2.03125 -0.28125l0.3125 0.140625q-0.046875 2.859375 -0.046875 5.203125q0 1.078125 1.296875 1.078125q0.546875 0 1.15625 -0.1875q0.625 -0.1875 1.0 -0.40625q0.0625 -0.875 0.0625 -2.03125q0 -2.1875 -0.125 -2.796875l-1.015625 -0.296875l-0.03125 -0.421875q1.03125 0 2.125 -0.28125l0.296875 0.140625q-0.046875 1.203125 -0.046875 3.96875l0.046875 1.875q0 0.265625 0.21875 0.421875q0.21875 0.15625 0.421875 0.203125q0.203125 0.03125 0.578125 0.046875l-0.046875 0.46875q-0.578125 0.046875 -1.75 0.28125q-0.484375 -0.203125 -0.65625 -0.953125q-1.53125 1.03125 -3.109375 1.03125zm11.221893 -5.265625q0 -0.734375 -0.421875 -1.09375q-0.40625 -0.359375 -0.921875 -0.359375q-0.75 0 -1.296875 0.59375q-0.546875 0.59375 -0.71875 1.453125l3.3125 -0.125q0.046875 -0.234375 0.046875 -0.46875zm-1.390625 5.265625q-1.703125 0 -2.5625 -0.96875q-0.859375 -0.96875 -0.859375 -2.578125q0 -1.609375 0.953125 -2.78125q0.953125 -1.171875 2.875 -1.171875q0.96875 0 1.6875 0.6875q0.734375 0.6875 0.734375 2.046875l-0.546875 0.65625q-0.09375 -0.015625 -1.515625 -0.015625q-1.40625 0 -2.828125 0.109375l0 0.140625q0 1.46875 0.609375 2.203125q0.609375 0.71875 1.65625 0.71875q1.0625 0 2.234375 -0.515625l0.1875 0.484375q-1.234375 0.984375 -2.625 0.984375zm8.437759 -7.59375q0.125 0 0.421875 0.375q0.296875 0.375 0.390625 0.734375l-0.234375 0.3125q-0.578125 -0.21875 -1.203125 -0.21875q-0.625 0 -1.140625 0.515625q-0.515625 0.515625 -0.515625 1.671875q0.015625 2.8125 0.140625 3.28125q0.015625 0.125 0.453125 0.234375q0.453125 0.09375 0.9375 0.125l-0.0625 0.46875q-0.765625 -0.046875 -1.9375 -0.046875q-1.171875 0 -1.9375 0.046875l0.046875 -0.46875q0.3125 -0.03125 0.65625 -0.125q0.359375 -0.109375 0.375 -0.21875q0.125 -0.5625 0.125 -2.25q0 -2.71875 -0.125 -3.328125l-1.015625 -0.296875l-0.03125 -0.421875q1.015625 0 2.109375 -0.28125l0.296875 0.140625q-0.03125 0.25 -0.03125 1.3125q0.46875 -0.765625 1.171875 -1.15625q0.71875 -0.40625 1.109375 -0.40625z" fill-rule="nonzero"></path><path fill="#ffe599" d="m45.72441 110.229515l241.88976 0l0 41.76377l-241.88976 0z" fill-rule="nonzero"></path><path stroke="#000000" stroke-width="1.0" stroke-linejoin="round" stroke-linecap="butt" d="m45.72441 110.229515l241.88976 0l0 41.76377l-241.88976 0z" fill-rule="nonzero"></path><path fill="#000000" d="m101.70477 133.99576q1.5 0 2.453125 -0.609375q0.96875 -0.625 1.28125 -1.671875l0.4375 0.1875q-0.171875 0.578125 -0.375 2.140625q-1.953125 0.734375 -3.84375 0.734375q-2.625 0 -4.171875 -1.421875q-1.53125 -1.4375 -1.53125 -3.984375q0 -2.5468674 1.515625 -4.2187424q1.53125 -1.671875 4.171875 -1.671875q0.734375 0 1.640625 0.125q0.921875 0.125 1.25 0.125q0.34375 0 0.71875 -0.09375l0 0.234375q0 1.171875 0.1875 2.25l-0.421875 0.203125q-0.640625 -2.109375 -3.390625 -2.109375q-1.609375 0 -2.75 1.140625q-0.578125 0.5625 -0.90625 1.5q-0.328125 0.921875 -0.328125 1.9843674q0 1.0625 0.21875 1.9375q0.21875 0.859375 0.6875 1.59375q0.46875 0.734375 1.28125 1.1875q0.8125 0.4375 1.875 0.4375zm7.4812775 -10.937492q-0.03125 2.0 -0.03125 5.8593674q0 3.84375 0.171875 4.90625q0.015625 0.109375 0.421875 0.21875q0.40625 0.109375 0.703125 0.125l-0.046875 0.46875q-0.765625 -0.046875 -1.859375 -0.046875q-1.078125 0 -1.859375 0.046875l0.0625 -0.46875q0.328125 -0.03125 0.703125 -0.125q0.375 -0.109375 0.390625 -0.21875q0.109375 -1.046875 0.109375 -4.0q0 -4.8124924 -0.09375 -5.6406174l-0.03125 -0.265625l-1.015625 -0.296875l-0.03125 -0.421875q1.015625 0 2.109375 -0.296875l0.296875 0.15625zm6.21138 8.171867q-1.3125 0.03125 -2.0 0.5q-0.6875 0.453125 -0.6875 1.0q0 0.546875 0.28125 0.796875q0.28125 0.25 0.90625 0.25q0.625 0 1.5 -0.53125l0 -2.015625zm1.171875 3.5q-0.96875 0 -1.125 -1.03125q-1.40625 1.03125 -2.4375 1.03125q-0.6875 0 -1.171875 -0.421875q-0.46875 -0.421875 -0.46875 -1.3125q0 -0.90625 0.953125 -1.625q0.953125 -0.71875 3.078125 -0.859375l0 -1.484375q0 -0.453125 -0.328125 -0.6875q-0.328125 -0.25 -0.921875 -0.25q-0.59375 0 -0.953125 0.328125q-0.34375 0.328125 -0.34375 0.84375q0 0.1875 0.046875 0.4375l-0.34375 0.15625q-0.328125 -0.171875 -0.609375 -0.46875q-0.28125 -0.3125 -0.28125 -0.453125q0 -0.140625 0.21875 -0.390625q0.21875 -0.265625 0.578125 -0.5624924q0.375 -0.3125 0.984375 -0.53125q0.625 -0.21875 1.390625 -0.21875q0.765625 0 1.25 0.375q0.484375 0.375 0.484375 1.3593674q0 0.984375 0.09375 4.15625q0.015625 0.765625 0.578125 0.765625q0.234375 0 0.484375 -0.125l0.171875 0.40625q-0.609375 0.5625 -1.328125 0.5625zm4.2963867 -9.390617q-0.234375 0.234375 -0.59375 0.234375q-0.34375 0 -0.59375 -0.234375q-0.234375 -0.25 -0.234375 -0.609375q0 -0.359375 0.234375 -0.59375q0.25 -0.25 0.59375 -0.25q0.359375 0 0.59375 0.25q0.25 0.234375 0.25 0.59375q0 0.359375 -0.25 0.609375zm0.0625 2.046875l-0.03125 3.5468674q0 2.0625 0.125 2.6875l0.046875 0.203125q0.015625 0.109375 0.40625 0.21875q0.390625 0.09375 0.71875 0.125l-0.046875 0.46875q-0.765625 -0.046875 -1.875 -0.046875q-1.09375 0 -1.859375 0.046875l0.046875 -0.46875q0.328125 -0.03125 0.703125 -0.125q0.390625 -0.109375 0.40625 -0.21875q0.125 -0.5625 0.125 -2.25q0 -2.71875 -0.125 -3.328125l-1.015625 -0.29686737l-0.03125 -0.421875q1.015625 0 2.109375 -0.28125l0.296875 0.140625zm8.868759 3.5468674q0 2.0625 0.109375 2.6875l0.046875 0.203125q0.015625 0.109375 0.359375 0.21875q0.34375 0.09375 0.671875 0.125l-0.046875 0.46875q-0.765625 -0.046875 -1.765625 -0.046875q-0.984375 0 -1.765625 0.046875l0.0625 -0.46875q0.296875 -0.03125 0.640625 -0.125q0.34375 -0.109375 0.359375 -0.21875q0.125 -0.5625 0.125 -2.890625l0 -1.5625q0 -0.625 -0.375 -0.859375q-0.359375 -0.234375 -0.875 -0.234375q-0.5 0 -0.796875 0.046875q-0.28125 0.03125 -0.515625 0.09375q-0.296875 0.078125 -0.828125 0.296875l0 2.21875q0 1.96875 0.125 2.6875l0.046875 0.203125q0.015625 0.109375 0.359375 0.21875q0.34375 0.09375 0.671875 0.125l-0.046875 0.46875q-0.765625 -0.046875 -1.765625 -0.046875q-0.984375 0 -1.75 0.046875l0.046875 -0.46875q0.296875 -0.03125 0.640625 -0.125q0.34375 -0.109375 0.359375 -0.21875q0.109375 -0.5625 0.109375 -2.25q0 -2.71875 -0.125 -3.328125l-1.015625 -0.29686737l-0.03125 -0.421875q1.015625 0 2.109375 -0.28125l0.296875 0.140625q-0.015625 0.40625 -0.015625 0.7656174q1.78125 -0.9218674 3.03125 -0.9218674q1.25 0 1.484375 0.9374924q1.671875 -0.9374924 3.03125 -0.9374924q0.8125 0 1.21875 0.328125q0.421875 0.3125 0.421875 1.1874924l0 2.1875q0 2.0625 0.109375 2.6875l0.046875 0.203125q0.015625 0.109375 0.359375 0.21875q0.34375 0.09375 0.671875 0.125l-0.046875 0.46875q-0.78125 -0.046875 -1.765625 -0.046875q-0.984375 0 -1.765625 0.046875l0.046875 -0.46875q0.3125 -0.03125 0.65625 -0.125q0.34375 -0.109375 0.359375 -0.21875q0.125 -0.5625 0.125 -2.890625l0 -1.5625q0 -0.625 -0.375 -0.859375q-0.359375 -0.234375 -1.296875 -0.234375q-0.9375 0 -1.734375 0.4375l0 2.21875zm11.017395 -3.4218674l0.234375 0.125q0 1.0312424 0.09375 1.5781174l-0.421875 0.140625q-0.203125 -0.8125 -0.578125 -1.125q-0.375 -0.32811737 -0.953125 -0.32811737q-0.578125 0 -0.921875 0.31249237q-0.328125 0.296875 -0.328125 0.71875q0 0.71875 0.828125 1.171875l1.640625 0.90625q1.046875 0.59375 1.046875 1.703125q0 0.8125 -0.65625 1.421875q-0.640625 0.59375 -1.84375 0.59375q-1.1875 0 -2.453125 -0.390625q0.1875 -1.125 0.1875 -1.84375l0.421875 -0.140625q0.140625 0.578125 0.203125 0.78125q0.078125 0.203125 0.265625 0.515625q0.1875 0.296875 0.46875 0.390625q0.296875 0.09375 0.84375 0.09375q0.5625 0 0.9375 -0.3125q0.375 -0.328125 0.375 -0.765625q0 -0.671875 -0.765625 -1.09375l-1.71875 -0.953125q-1.0625 -0.5625 -1.0625 -1.71875q0 -0.8125 0.625 -1.4374924q0.625 -0.625 1.734375 -0.625q1.125 0 1.796875 0.28125zm9.815155 3.7187424q-1.3125 0.03125 -2.0 0.5q-0.6875 0.453125 -0.6875 1.0q0 0.546875 0.28125 0.796875q0.28125 0.25 0.90625 0.25q0.625 0 1.5 -0.53125l0 -2.015625zm1.171875 3.5q-0.96875 0 -1.125 -1.03125q-1.40625 1.03125 -2.4375 1.03125q-0.6875 0 -1.171875 -0.421875q-0.46875 -0.421875 -0.46875 -1.3125q0 -0.90625 0.953125 -1.625q0.953125 -0.71875 3.078125 -0.859375l0 -1.484375q0 -0.453125 -0.328125 -0.6875q-0.328125 -0.25 -0.921875 -0.25q-0.59375 0 -0.953125 0.328125q-0.34375 0.328125 -0.34375 0.84375q0 0.1875 0.046875 0.4375l-0.34375 0.15625q-0.328125 -0.171875 -0.609375 -0.46875q-0.28125 -0.3125 -0.28125 -0.453125q0 -0.140625 0.21875 -0.390625q0.21875 -0.265625 0.578125 -0.5624924q0.375 -0.3125 0.984375 -0.53125q0.625 -0.21875 1.390625 -0.21875q0.765625 0 1.25 0.375q0.484375 0.375 0.484375 1.3593674q0 0.984375 0.09375 4.15625q0.015625 0.765625 0.578125 0.765625q0.234375 0 0.484375 -0.125l0.171875 0.40625q-0.609375 0.5625 -1.328125 0.5625zm5.4838867 -0.734375q1.15625 0 1.828125 -0.9375q0.671875 -0.9375 0.671875 -2.109375q0 -1.171875 -0.578125 -1.953125q-0.578125 -0.796875 -1.625 -0.796875q-0.78125 0 -1.78125 0.515625q0 3.859375 0.140625 5.015625q0.703125 0.265625 1.34375 0.265625zm-1.484375 -5.84375q1.328125 -0.9062424 2.5625 -0.9062424q1.234375 0 2.03125 1.0781174q0.8125 1.078125 0.8125 2.609375q0 1.515625 -1.046875 2.671875q-1.03125 1.140625 -3.03125 1.140625q-1.328125 0 -2.65625 -0.5625q0.125 -1.40625 0.125 -4.359375q0 -4.8124924 -0.09375 -5.6406174l-0.03125 -0.265625l-1.03125 -0.296875l-0.03125 -0.421875q1.03125 0 2.109375 -0.296875l0.3125 0.15625q-0.03125 1.765625 -0.03125 5.0937424zm10.326019 -0.140625q-0.65625 0 -1.140625 0.328125q-0.46875 0.328125 -0.6875 0.828125q-0.4375 0.90625 -0.4375 1.734375q0 1.3125 0.53125 2.1875q0.53125 0.875 1.65625 0.875q0.609375 0 1.078125 -0.28125q0.46875 -0.28125 0.703125 -0.71875q0.46875 -0.84375 0.5 -1.671875q0 -3.28125 -2.203125 -3.28125zm0.078125 -0.7812424q1.828125 0 2.65625 0.9374924q0.84375 0.921875 0.84375 2.578125q0 1.65625 -0.953125 2.828125q-0.953125 1.15625 -2.78125 1.15625q-1.828125 0 -2.65625 -0.921875q-0.828125 -0.921875 -0.828125 -2.5625q0 -1.640625 0.953125 -2.828125q0.953125 -1.1874924 2.765625 -1.1874924zm7.104645 7.4999924q-1.625 0 -1.625 -1.65625l0 -2.140625q0 -2.15625 -0.109375 -2.6875l-0.953125 -0.29686737l-0.03125 -0.421875q0.953125 0 2.03125 -0.28125l0.3125 0.140625q-0.046875 2.8593674 -0.046875 5.2031174q0 1.078125 1.296875 1.078125q0.546875 0 1.15625 -0.1875q0.625 -0.1875 1.0 -0.40625q0.0625 -0.875 0.0625 -2.03125q0 -2.1875 -0.125 -2.796875l-1.015625 -0.29686737l-0.03125 -0.421875q1.03125 0 2.125 -0.28125l0.296875 0.140625q-0.046875 1.2031174 -0.046875 3.9687424l0.046875 1.875q0 0.265625 0.21875 0.421875q0.21875 0.15625 0.421875 0.203125q0.203125 0.03125 0.578125 0.046875l-0.046875 0.46875q-0.578125 0.046875 -1.75 0.28125q-0.484375 -0.203125 -0.65625 -0.953125q-1.53125 1.03125 -3.109375 1.03125zm8.940643 0q-1.671875 0 -1.671875 -1.59375q0.015625 -1.40625 0.015625 -2.578125q0 -1.1875 -0.03125 -2.46875l-1.015625 0.015625l-0.046875 -0.17186737l0.359375 -0.625q0.21875 0.046875 0.671875 0.0625l-0.0625 -1.46875l1.0625 -0.9375l0.296875 0.140625q-0.03125 1.1875 -0.03125 2.25l2.359375 -0.015625l0.078125 0.1875l-0.578125 0.6406174q-0.546875 -0.0625 -1.859375 -0.078125l0 2.140625q0 2.0 0.046875 2.875q0.046875 0.71875 0.84375 0.71875q0.640625 0 1.40625 -0.375l0.203125 0.53125q-1.140625 0.75 -2.046875 0.75zm12.763275 -8.406242q-0.3125 -1.171875 -0.890625 -1.59375q-0.5625 -0.4375 -1.484375 -0.4375q-0.90625 0 -1.390625 0.4375q-0.46875 0.4375 -0.46875 1.078125q0 1.03125 1.0625 1.734375l2.53125 1.6562424q1.671875 1.09375 1.671875 2.578125q0 1.203125 -0.953125 2.09375q-0.953125 0.875 -2.78125 0.875q-1.828125 0 -3.1875 -0.578125q0.265625 -1.3125 0.265625 -2.34375l0.421875 -0.1875q0.25 1.3125 0.75 1.8125q0.515625 0.484375 1.59375 0.484375q1.078125 0 1.640625 -0.53125q0.578125 -0.53125 0.578125 -1.25q0 -0.96875 -1.046875 -1.640625l-2.546875 -1.6875q-1.484375 -0.9531174 -1.484375 -2.4531174q0 -1.171875 0.90625 -2.03125q0.921875 -0.859375 2.390625 -0.859375q0.484375 0 1.0625 0.125q0.59375 0.125 0.890625 0.125q0.3125 0 0.703125 -0.09375l0 0.234375q0 1.171875 0.203125 2.25l-0.4375 0.203125zm4.7761383 8.406242q-1.625 0 -1.625 -1.65625l0 -2.140625q0 -2.15625 -0.109375 -2.6875l-0.953125 -0.29686737l-0.03125 -0.421875q0.953125 0 2.03125 -0.28125l0.3125 0.140625q-0.046875 2.8593674 -0.046875 5.2031174q0 1.078125 1.296875 1.078125q0.546875 0 1.15625 -0.1875q0.625 -0.1875 1.0 -0.40625q0.0625 -0.875 0.0625 -2.03125q0 -2.1875 -0.125 -2.796875l-1.015625 -0.29686737l-0.03125 -0.421875q1.03125 0 2.125 -0.28125l0.296875 0.140625q-0.046875 1.2031174 -0.046875 3.9687424l0.046875 1.875q0 0.265625 0.21875 0.421875q0.21875 0.15625 0.421875 0.203125q0.203125 0.03125 0.578125 0.046875l-0.046875 0.46875q-0.578125 0.046875 -1.75 0.28125q-0.484375 -0.203125 -0.65625 -0.953125q-1.53125 1.03125 -3.109375 1.03125zm9.815643 -0.734375q1.15625 0 1.828125 -0.9375q0.671875 -0.9375 0.671875 -2.109375q0 -1.171875 -0.578125 -1.953125q-0.578125 -0.796875 -1.625 -0.796875q-0.78125 0 -1.78125 0.515625q0 3.859375 0.140625 5.015625q0.703125 0.265625 1.34375 0.265625zm-1.484375 -5.84375q1.328125 -0.9062424 2.5625 -0.9062424q1.234375 0 2.03125 1.0781174q0.8125 1.078125 0.8125 2.609375q0 1.515625 -1.046875 2.671875q-1.03125 1.140625 -3.03125 1.140625q-1.328125 0 -2.65625 -0.5625q0.125 -1.40625 0.125 -4.359375q0 -4.8124924 -0.09375 -5.6406174l-0.03125 -0.265625l-1.03125 -0.296875l-0.03125 -0.421875q1.03125 0 2.109375 -0.296875l0.3125 0.15625q-0.03125 1.765625 -0.03125 5.0937424zm7.7478943 6.203125q0 -3.890625 -0.109375 -5.5625l-0.03125 -0.546875l-1.015625 -0.29686737l-0.03125 -0.421875q1.015625 0 2.109375 -0.28125l0.296875 0.140625q-0.03125 2.4374924 -0.03125 6.3437424q0 1.171875 -0.25 2.109375q-0.234375 0.953125 -0.578125 1.484375q-0.34375 0.53125 -0.75 0.875q-0.40625 0.359375 -0.671875 0.46875q-0.25 0.125 -0.390625 0.125q-0.125 0 -0.421875 -0.375q-0.296875 -0.375 -0.390625 -0.734375l0.234375 -0.3125q0.5 0.3125 0.96875 0.3125q1.0625 0 1.0625 -3.328125zm1.15625 -9.015617q-0.234375 0.234375 -0.59375 0.234375q-0.34375 0 -0.59375 -0.234375q-0.234375 -0.25 -0.234375 -0.609375q0 -0.359375 0.234375 -0.59375q0.25 -0.25 0.59375 -0.25q0.359375 0 0.59375 0.25q0.25 0.234375 0.25 0.59375q0 0.359375 -0.25 0.609375zm6.866516 4.1249924q0 -0.734375 -0.421875 -1.09375q-0.40625 -0.359375 -0.921875 -0.359375q-0.75 0 -1.296875 0.59375q-0.546875 0.59375 -0.71875 1.453125l3.3125 -0.125q0.046875 -0.234375 0.046875 -0.46875zm-1.390625 5.265625q-1.703125 0 -2.5625 -0.96875q-0.859375 -0.96875 -0.859375 -2.578125q0 -1.609375 0.953125 -2.78125q0.953125 -1.1718674 2.875 -1.1718674q0.96875 0 1.6875 0.6875q0.734375 0.6874924 0.734375 2.0468674l-0.546875 0.65625q-0.09375 -0.015625 -1.515625 -0.015625q-1.40625 0 -2.828125 0.109375l0 0.140625q0 1.46875 0.609375 2.203125q0.609375 0.71875 1.65625 0.71875q1.0625 0 2.234375 -0.515625l0.1875 0.484375q-1.234375 0.984375 -2.625 0.984375zm10.062759 -1.046875q-1.328125 1.046875 -2.90625 1.046875q-1.5625 0 -2.40625 -0.984375q-0.84375 -1.0 -0.84375 -2.59375q0 -1.59375 0.984375 -2.75q0.984375 -1.1718674 2.734375 -1.1718674q0.734375 0 1.296875 0.234375q0.5625 0.234375 0.796875 0.46875q0.25 0.23436737 0.25 0.39061737q0 0.640625 -0.390625 1.15625l-0.375 0q-0.1875 -0.515625 -0.65625 -0.953125q-0.453125 -0.4375 -1.171875 -0.4375q-0.984375 0 -1.53125 0.890625q-0.53125 0.890625 -0.53125 2.1875q0 1.28125 0.625 1.953125q0.625 0.671875 1.734375 0.671875q1.125 0 2.203125 -0.640625l0.1875 0.53125zm3.4786377 1.046875q-1.671875 0 -1.671875 -1.59375q0.015625 -1.40625 0.015625 -2.578125q0 -1.1875 -0.03125 -2.46875l-1.015625 0.015625l-0.046875 -0.17186737l0.359375 -0.625q0.21875 0.046875 0.671875 0.0625l-0.0625 -1.46875l1.0625 -0.9375l0.296875 0.140625q-0.03125 1.1875 -0.03125 2.25l2.359375 -0.015625l0.078125 0.1875l-0.578125 0.6406174q-0.546875 -0.0625 -1.859375 -0.078125l0 2.140625q0 2.0 0.046875 2.875q0.046875 0.71875 0.84375 0.71875q0.640625 0 1.40625 -0.375l0.203125 0.53125q-1.140625 0.75 -2.046875 0.75z" fill-rule="nonzero"></path><path fill="#a4c2f4" d="m45.72441 58.991253l241.88976 0l0 41.763775l-241.88976 0z" fill-rule="nonzero"></path><path stroke="#000000" stroke-width="1.0" stroke-linejoin="round" stroke-linecap="butt" d="m45.72441 58.991253l241.88976 0l0 41.763775l-241.88976 0z" fill-rule="nonzero"></path><path fill="#000000" d="m114.95742 75.085625q-0.3125 -1.171875 -0.890625 -1.59375q-0.5625 -0.4375 -1.484375 -0.4375q-0.90625 0 -1.390625 0.4375q-0.46875 0.4375 -0.46875 1.078125q0 1.03125 1.0625 1.734375l2.53125 1.65625q1.671875 1.09375 1.671875 2.578125q0 1.203125 -0.953125 2.09375q-0.953125 0.875 -2.78125 0.875q-1.828125 0 -3.1875 -0.578125q0.265625 -1.3125 0.265625 -2.34375l0.421875 -0.1875q0.25 1.3125 0.75 1.8125q0.515625 0.484375 1.59375 0.484375q1.078125 0 1.640625 -0.53125q0.578125 -0.53125 0.578125 -1.25q0 -0.96875 -1.046875 -1.640625l-2.546875 -1.6875q-1.484375 -0.953125 -1.484375 -2.453125q0 -1.171875 0.90625 -2.03125q0.921875 -0.859375 2.390625 -0.859375q0.484375 0 1.0625 0.125q0.59375 0.125 0.890625 0.125q0.3125 0 0.703125 -0.09375l0 0.234375q0 1.171875 0.203125 2.25l-0.4375 0.203125zm4.7761383 8.40625q-1.625 0 -1.625 -1.65625l0 -2.140625q0 -2.15625 -0.109375 -2.6875l-0.953125 -0.296875l-0.03125 -0.421875q0.953125 0 2.03125 -0.28125l0.3125 0.140625q-0.046875 2.859375 -0.046875 5.203125q0 1.078125 1.296875 1.078125q0.546875 0 1.15625 -0.1875q0.625 -0.1875 1.0 -0.40625q0.0625 -0.875 0.0625 -2.03125q0 -2.1875 -0.125 -2.796875l-1.015625 -0.296875l-0.03125 -0.421875q1.03125 0 2.125 -0.28125l0.296875 0.140625q-0.046875 1.203125 -0.046875 3.96875l0.046875 1.875q0 0.265625 0.21875 0.421875q0.21875 0.15625 0.421875 0.203125q0.203125 0.03125 0.578125 0.046875l-0.046875 0.46875q-0.578125 0.046875 -1.75 0.28125q-0.484375 -0.203125 -0.65625 -0.953125q-1.53125 1.03125 -3.109375 1.03125zm9.815636 -0.734375q1.15625 0 1.828125 -0.9375q0.671875 -0.9375 0.671875 -2.109375q0 -1.171875 -0.578125 -1.953125q-0.578125 -0.796875 -1.625 -0.796875q-0.78125 0 -1.78125 0.515625q0 3.859375 0.140625 5.015625q0.703125 0.265625 1.34375 0.265625zm-1.484375 -5.84375q1.328125 -0.90625 2.5625 -0.90625q1.234375 0 2.03125 1.078125q0.8125 1.078125 0.8125 2.609375q0 1.515625 -1.046875 2.671875q-1.03125 1.140625 -3.03125 1.140625q-1.328125 0 -2.6562424 -0.5625q0.125 -1.40625 0.125 -4.359375q0 -4.8125 -0.09375 -5.640625l-0.03125 -0.265625l-1.03125 -0.296875l-0.03125 -0.421875q1.03125 0 2.109375 -0.296875l0.31249237 0.15625q-0.03125 1.765625 -0.03125 5.09375zm7.7478943 6.203125q0 -3.890625 -0.109375 -5.5625l-0.03125 -0.546875l-1.015625 -0.296875l-0.03125 -0.421875q1.015625 0 2.109375 -0.28125l0.296875 0.140625q-0.03125 2.4375 -0.03125 6.34375q0 1.171875 -0.25 2.109375q-0.234375 0.953125 -0.578125 1.484375q-0.34375 0.53125 -0.75 0.875q-0.40625 0.359375 -0.671875 0.46875q-0.25 0.125 -0.390625 0.125q-0.125 0 -0.421875 -0.375q-0.296875 -0.375 -0.390625 -0.734375l0.234375 -0.3125q0.5 0.3125 0.96875 0.3125q1.0625 0 1.0625 -3.328125zm1.15625 -9.015625q-0.234375 0.234375 -0.59375 0.234375q-0.34375 0 -0.59375 -0.234375q-0.234375 -0.25 -0.234375 -0.609375q0 -0.359375 0.234375 -0.59375q0.25 -0.25 0.59375 -0.25q0.359375 0 0.59375 0.25q0.25 0.234375 0.25 0.59375q0 0.359375 -0.25 0.609375zm6.866516 4.125q0 -0.734375 -0.421875 -1.09375q-0.40625 -0.359375 -0.921875 -0.359375q-0.75 0 -1.296875 0.59375q-0.546875 0.59375 -0.71875 1.453125l3.3125 -0.125q0.046875 -0.234375 0.046875 -0.46875zm-1.390625 5.265625q-1.703125 0 -2.5625 -0.96875q-0.859375 -0.96875 -0.859375 -2.578125q0 -1.609375 0.953125 -2.78125q0.953125 -1.171875 2.875 -1.171875q0.96875 0 1.6875 0.6875q0.734375 0.6875 0.734375 2.046875l-0.546875 0.65625q-0.09375 -0.015625 -1.515625 -0.015625q-1.40625 0 -2.828125 0.109375l0 0.140625q0 1.46875 0.609375 2.203125q0.609375 0.71875 1.65625 0.71875q1.0625 0 2.234375 -0.515625l0.1875 0.484375q-1.234375 0.984375 -2.625 0.984375zm10.062759 -1.046875q-1.328125 1.046875 -2.90625 1.046875q-1.5625 0 -2.40625 -0.984375q-0.84375 -1.0 -0.84375 -2.59375q0 -1.59375 0.984375 -2.75q0.984375 -1.171875 2.734375 -1.171875q0.734375 0 1.296875 0.234375q0.5625 0.234375 0.796875 0.46875q0.25 0.234375 0.25 0.390625q0 0.640625 -0.390625 1.15625l-0.375 0q-0.1875 -0.515625 -0.65625 -0.953125q-0.453125 -0.4375 -1.171875 -0.4375q-0.984375 0 -1.53125 0.890625q-0.53125 0.890625 -0.53125 2.1875q0 1.28125 0.625 1.953125q0.625 0.671875 1.734375 0.671875q1.125 0 2.203125 -0.640625l0.1875 0.53125zm3.4786377 1.046875q-1.671875 0 -1.671875 -1.59375q0.015625 -1.40625 0.015625 -2.578125q0 -1.1875 -0.03125 -2.46875l-1.015625 0.015625l-0.046875 -0.171875l0.359375 -0.625q0.21875 0.046875 0.671875 0.0625l-0.0625 -1.46875l1.0625 -0.9375l0.296875 0.140625q-0.03125 1.1875 -0.03125 2.25l2.359375 -0.015625l0.078125 0.1875l-0.578125 0.640625q-0.546875 -0.0625 -1.859375 -0.078125l0 2.140625q0 2.0 0.046875 2.875q0.046875 0.71875 0.84375 0.71875q0.640625 0 1.40625 -0.375l0.203125 0.53125q-1.140625 0.75 -2.046875 0.75zm9.68515 -10.0q-0.125 0.953125 -0.125 3.421875q0 4.015625 0.09375 5.0l0.03125 0.328125q0.03125 0.296875 0.296875 0.421875q0.28125 0.109375 1.0625 0.265625l-0.046875 0.46875q-1.0 -0.046875 -2.1875 -0.046875q-1.1875 0 -2.1875 0.046875l-0.046875 -0.46875q0.8125 -0.15625 1.09375 -0.28125q0.296875 -0.125 0.328125 -0.40625q0.125 -0.9375 0.125 -3.421875q0 -4.015625 -0.09375 -5.0l-0.03125 -0.328125q-0.03125 -0.28125 -0.296875 -0.40625q-0.25 -0.125 -1.015625 -0.28125l0.046875 -0.46875q1.0 0.0625 2.109375 0.0625q1.109375 0 2.109375 -0.0625l0.046875 0.46875q-0.765625 0.15625 -1.03125 0.28125q-0.25 0.125 -0.28125 0.40625zm7.9251404 8.96875q-1.109375 1.03125 -2.421875 1.03125q-1.3125 0 -2.15625 -0.953125q-0.828125 -0.953125 -0.828125 -2.71875q0 -1.765625 1.0 -2.796875q1.0 -1.046875 2.46875 -1.046875q0.796875 0 1.921875 0.5625q0 -2.96875 -0.09375 -3.640625l-0.03125 -0.21875l-1.03125 -0.296875l-0.03125 -0.421875q1.03125 0 2.109375 -0.296875l0.3125 0.15625q-0.03125 2.0 -0.03125 5.671875q0 3.65625 0.03125 4.1875q0.03125 0.515625 0.125 0.65625q0.109375 0.140625 0.328125 0.203125q0.328125 0.09375 0.78125 0.125l-0.046875 0.46875q-0.578125 0.046875 -1.75 0.28125q-0.484375 -0.203125 -0.65625 -0.953125zm-1.515625 -5.515625q-1.265625 0 -1.875 0.828125q-0.59375 0.828125 -0.59375 2.046875q0 1.21875 0.53125 1.953125q0.53125 0.71875 1.5 0.71875q0.984375 0 1.859375 -0.5625q0.078125 -1.28125 0.078125 -4.6875q-0.828125 -0.296875 -1.5 -0.296875zm9.594666 1.28125q0 -0.734375 -0.421875 -1.09375q-0.40625 -0.359375 -0.921875 -0.359375q-0.75 0 -1.296875 0.59375q-0.546875 0.59375 -0.71875 1.453125l3.3125 -0.125q0.046875 -0.234375 0.046875 -0.46875zm-1.390625 5.265625q-1.703125 0 -2.5625 -0.96875q-0.859375 -0.96875 -0.859375 -2.578125q0 -1.609375 0.953125 -2.78125q0.953125 -1.171875 2.875 -1.171875q0.96875 0 1.6875 0.6875q0.734375 0.6875 0.734375 2.046875l-0.546875 0.65625q-0.09375 -0.015625 -1.515625 -0.015625q-1.40625 0 -2.828125 0.109375l0 0.140625q0 1.46875 0.609375 2.203125q0.609375 0.71875 1.65625 0.71875q1.0625 0 2.234375 -0.515625l0.1875 0.484375q-1.234375 0.984375 -2.625 0.984375zm6.093994 -6.015625l-0.015625 2.21875q0 2.0625 0.125 2.6875l0.03125 0.203125q0.015625 0.109375 0.359375 0.21875q0.34375 0.09375 0.671875 0.125l-0.046875 0.46875q-0.765625 -0.046875 -1.765625 -0.046875q-0.984375 0 -1.75 0.046875l0.046875 -0.46875q0.296875 -0.03125 0.640625 -0.125q0.34375 -0.109375 0.359375 -0.21875q0.125 -0.5625 0.125 -2.25q0 -2.71875 -0.125 -3.328125l-1.015625 -0.296875l-0.03125 -0.421875q1.015625 0 2.109375 -0.28125l0.296875 0.140625l0 0.765625q1.78125 -0.921875 3.09375 -0.921875q0.796875 0 1.203125 0.328125q0.421875 0.3125 0.421875 1.1875l0 2.1875q0 2.0625 0.109375 2.6875l0.046875 0.203125q0.03125 0.109375 0.375 0.21875q0.34375 0.09375 0.65625 0.125l-0.046875 0.46875q-0.765625 -0.046875 -1.765625 -0.046875q-0.984375 0 -1.75 0.046875l0.046875 -0.46875q0.296875 -0.03125 0.640625 -0.125q0.34375 -0.109375 0.359375 -0.21875q0.125 -0.5625 0.125 -2.890625l0 -1.5625q0 -0.625 -0.375 -0.859375q-0.359375 -0.234375 -1.234375 -0.234375q-0.875 0 -1.921875 0.4375zm9.319397 6.015625q-1.671875 0 -1.671875 -1.59375q0.015625 -1.40625 0.015625 -2.578125q0 -1.1875 -0.03125 -2.46875l-1.015625 0.015625l-0.046875 -0.171875l0.359375 -0.625q0.21875 0.046875 0.671875 0.0625l-0.0625 -1.46875l1.0625 -0.9375l0.296875 0.140625q-0.03125 1.1875 -0.03125 2.25l2.359375 -0.015625l0.078125 0.1875l-0.578125 0.640625q-0.546875 -0.0625 -1.859375 -0.078125l0 2.140625q0 2.0 0.046875 2.875q0.046875 0.71875 0.84375 0.71875q0.640625 0 1.40625 -0.375l0.203125 0.53125q-1.140625 0.75 -2.046875 0.75zm4.919525 -9.390625q-0.234375 0.234375 -0.59375 0.234375q-0.34375 0 -0.59375 -0.234375q-0.234375 -0.25 -0.234375 -0.609375q0 -0.359375 0.234375 -0.59375q0.25 -0.25 0.59375 -0.25q0.359375 0 0.59375 0.25q0.25 0.234375 0.25 0.59375q0 0.359375 -0.25 0.609375zm0.0625 2.046875l-0.03125 3.546875q0 2.0625 0.125 2.6875l0.046875 0.203125q0.015625 0.109375 0.40625 0.21875q0.390625 0.09375 0.71875 0.125l-0.046875 0.46875q-0.765625 -0.046875 -1.875 -0.046875q-1.09375 0 -1.859375 0.046875l0.046875 -0.46875q0.328125 -0.03125 0.703125 -0.125q0.390625 -0.109375 0.40625 -0.21875q0.125 -0.5625 0.125 -2.25q0 -2.71875 -0.125 -3.328125l-1.015625 -0.296875l-0.03125 -0.421875q1.015625 0 2.109375 -0.28125l0.296875 0.140625zm5.681244 7.25q-0.765625 -0.046875 -1.890625 -0.046875q-1.125 0 -1.890625 0.046875l0.046875 -0.46875q0.3125 -0.03125 0.6875 -0.125q0.375 -0.109375 0.390625 -0.21875q0.125 0 0.125 -5.734375l-1.09375 0.015625l-0.046875 -0.171875l0.359375 -0.625q0.234375 0.03125 0.765625 0.0625q0 -1.03125 0.359375 -1.859375q0.375 -0.84375 0.875 -1.296875q0.5 -0.46875 1.09375 -0.796875q0.953125 -0.515625 1.53125 -0.515625q0.125 0 0.421875 0.390625q0.296875 0.375 0.390625 0.734375l-0.234375 0.3125q-0.6875 -0.3125 -1.375 -0.3125q-1.84375 0 -1.84375 3.328125l2.078125 -0.015625l0.078125 0.1875l-0.484375 0.625q-0.546875 -0.046875 -1.671875 -0.0625q0 4.453125 0.15625 5.734375q0.03125 0.109375 0.46875 0.21875q0.4375 0.109375 0.75 0.125l-0.046875 0.46875zm3.7122803 -9.296875q-0.234375 0.234375 -0.59375 0.234375q-0.34375 0 -0.59375 -0.234375q-0.234375 -0.25 -0.234375 -0.609375q0 -0.359375 0.234375 -0.59375q0.25 -0.25 0.59375 -0.25q0.359375 0 0.59375 0.25q0.25 0.234375 0.25 0.59375q0 0.359375 -0.25 0.609375zm0.0625 2.046875l-0.03125 3.546875q0 2.0625 0.125 2.6875l0.046875 0.203125q0.015625 0.109375 0.40625 0.21875q0.390625 0.09375 0.71875 0.125l-0.046875 0.46875q-0.765625 -0.046875 -1.875 -0.046875q-1.09375 0 -1.859375 0.046875l0.046875 -0.46875q0.328125 -0.03125 0.703125 -0.125q0.390625 -0.109375 0.40625 -0.21875q0.125 -0.5625 0.125 -2.25q0 -2.71875 -0.125 -3.328125l-1.015625 -0.296875l-0.03125 -0.421875q1.015625 0 2.109375 -0.28125l0.296875 0.140625zm6.931244 2.078125q0 -0.734375 -0.421875 -1.09375q-0.40625 -0.359375 -0.921875 -0.359375q-0.75 0 -1.296875 0.59375q-0.546875 0.59375 -0.71875 1.453125l3.3125 -0.125q0.046875 -0.234375 0.046875 -0.46875zm-1.390625 5.265625q-1.703125 0 -2.5625 -0.96875q-0.859375 -0.96875 -0.859375 -2.578125q0 -1.609375 0.953125 -2.78125q0.953125 -1.171875 2.875 -1.171875q0.96875 0 1.6875 0.6875q0.734375 0.6875 0.734375 2.046875l-0.546875 0.65625q-0.09375 -0.015625 -1.515625 -0.015625q-1.40625 0 -2.828125 0.109375l0 0.140625q0 1.46875 0.609375 2.203125q0.609375 0.71875 1.65625 0.71875q1.0625 0 2.234375 -0.515625l0.1875 0.484375q-1.234375 0.984375 -2.625 0.984375zm8.437775 -7.59375q0.125 0 0.421875 0.375q0.296875 0.375 0.390625 0.734375l-0.234375 0.3125q-0.578125 -0.21875 -1.203125 -0.21875q-0.625 0 -1.140625 0.515625q-0.515625 0.515625 -0.515625 1.671875q0.015625 2.8125 0.140625 3.28125q0.015625 0.125 0.453125 0.234375q0.453125 0.09375 0.9375 0.125l-0.0625 0.46875q-0.765625 -0.046875 -1.9375 -0.046875q-1.171875 0 -1.9375 0.046875l0.046875 -0.46875q0.3125 -0.03125 0.65625 -0.125q0.359375 -0.109375 0.375 -0.21875q0.125 -0.5625 0.125 -2.25q0 -2.71875 -0.125 -3.328125l-1.015625 -0.296875l-0.03125 -0.421875q1.015625 0 2.109375 -0.28125l0.296875 0.140625q-0.03125 0.25 -0.03125 1.3125q0.46875 -0.765625 1.171875 -1.15625q0.71875 -0.40625 1.109375 -0.40625z" fill-rule="nonzero"></path><path fill="#b4a7d6" d="m45.72441 161.46777l241.88976 0l0 41.76378l-241.88976 0z" fill-rule="nonzero"></path><path stroke="#000000" stroke-width="1.0" stroke-linejoin="round" stroke-linecap="butt" d="m45.72441 161.46777l241.88976 0l0 41.76378l-241.88976 0z" fill-rule="nonzero"></path><path fill="#000000" d="m106.73679 185.23402q1.5 0 2.453125 -0.609375q0.96875 -0.625 1.28125 -1.671875l0.4375 0.1875q-0.171875 0.578125 -0.375 2.140625q-1.953125 0.734375 -3.84375 0.734375q-2.625 0 -4.171875 -1.421875q-1.53125 -1.4375 -1.53125 -3.984375q0 -2.546875 1.515625 -4.21875q1.53125 -1.671875 4.171875 -1.671875q0.734375 0 1.640625 0.125q0.921875 0.125 1.25 0.125q0.34375 0 0.71875 -0.09375l0 0.234375q0 1.171875 0.1875 2.25l-0.421875 0.203125q-0.640625 -2.109375 -3.390625 -2.109375q-1.609375 0 -2.75 1.140625q-0.578125 0.5625 -0.90625 1.5q-0.328125 0.921875 -0.328125 1.984375q0 1.0625 0.21875 1.9375q0.21875 0.859375 0.6875 1.59375q0.46875 0.734375 1.28125 1.1875q0.8125 0.4375 1.875 0.4375zm7.4812775 -10.9375q-0.03125 2.0 -0.03125 5.859375q0 3.84375 0.171875 4.90625q0.015625 0.109375 0.421875 0.21875q0.40625 0.109375 0.703125 0.125l-0.046875 0.46875q-0.765625 -0.046875 -1.859375 -0.046875q-1.078125 0 -1.859375 0.046875l0.0625 -0.46875q0.328125 -0.03125 0.703125 -0.125q0.375 -0.109375 0.390625 -0.21875q0.109375 -1.046875 0.109375 -4.0q0 -4.8125 -0.09375 -5.640625l-0.03125 -0.265625l-1.015625 -0.296875l-0.03125 -0.421875q1.015625 0 2.109375 -0.296875l0.296875 0.15625zm6.21138 8.171875q-1.3125 0.03125 -2.0 0.5q-0.6875 0.453125 -0.6875 1.0q0 0.546875 0.28125 0.796875q0.28125 0.25 0.90625 0.25q0.625 0 1.5 -0.53125l0 -2.015625zm1.171875 3.5q-0.96875 0 -1.125 -1.03125q-1.40625 1.03125 -2.4375 1.03125q-0.6875 0 -1.171875 -0.421875q-0.46875 -0.421875 -0.46875 -1.3125q0 -0.90625 0.953125 -1.625q0.953125 -0.71875 3.078125 -0.859375l0 -1.484375q0 -0.453125 -0.328125 -0.6875q-0.328125 -0.25 -0.921875 -0.25q-0.59375 0 -0.953125 0.328125q-0.34375 0.328125 -0.34375 0.84375q0 0.1875 0.046875 0.4375l-0.34375 0.15625q-0.328125 -0.171875 -0.609375 -0.46875q-0.28125 -0.3125 -0.28125 -0.453125q0 -0.140625 0.21875 -0.390625q0.21875 -0.265625 0.578125 -0.5625q0.375 -0.3125 0.984375 -0.53125q0.625 -0.21875 1.390625 -0.21875q0.765625 0 1.25 0.375q0.484375 0.375 0.484375 1.359375q0 0.984375 0.09375 4.15625q0.015625 0.765625 0.578125 0.765625q0.234375 0 0.484375 -0.125l0.171875 0.40625q-0.609375 0.5625 -1.328125 0.5625zm4.2963867 -9.390625q-0.234375 0.234375 -0.59375 0.234375q-0.34375 0 -0.59375 -0.234375q-0.234375 -0.25 -0.234375 -0.609375q0 -0.359375 0.234375 -0.59375q0.25 -0.25 0.59375 -0.25q0.359375 0 0.59375 0.25q0.25 0.234375 0.25 0.59375q0 0.359375 -0.25 0.609375zm0.0625 2.046875l-0.03125 3.546875q0 2.0625 0.125 2.6875l0.046875 0.203125q0.015625 0.109375 0.40625 0.21875q0.390625 0.09375 0.71875 0.125l-0.046875 0.46875q-0.765625 -0.046875 -1.875 -0.046875q-1.09375 0 -1.859375 0.046875l0.046875 -0.46875q0.328125 -0.03125 0.703125 -0.125q0.390625 -0.109375 0.40625 -0.21875q0.125 -0.5625 0.125 -2.25q0 -2.71875 -0.125 -3.328125l-1.015625 -0.296875l-0.03125 -0.421875q1.015625 0 2.109375 -0.28125l0.296875 0.140625zm8.868752 3.546875q0 2.0625 0.109375 2.6875l0.046875 0.203125q0.015625 0.109375 0.359375 0.21875q0.34375 0.09375 0.671875 0.125l-0.046875 0.46875q-0.765625 -0.046875 -1.765625 -0.046875q-0.984375 0 -1.765625 0.046875l0.0625 -0.46875q0.296875 -0.03125 0.640625 -0.125q0.34375 -0.109375 0.359375 -0.21875q0.125 -0.5625 0.125 -2.890625l0 -1.5625q0 -0.625 -0.375 -0.859375q-0.359375 -0.234375 -0.875 -0.234375q-0.5 0 -0.796875 0.046875q-0.28125 0.03125 -0.515625 0.09375q-0.296875 0.078125 -0.828125 0.296875l0 2.21875q0 1.96875 0.125 2.6875l0.046875 0.203125q0.015625 0.109375 0.359375 0.21875q0.34375 0.09375 0.671875 0.125l-0.046875 0.46875q-0.765625 -0.046875 -1.765625 -0.046875q-0.984375 0 -1.7499924 0.046875l0.046875 -0.46875q0.29686737 -0.03125 0.6406174 -0.125q0.34375 -0.109375 0.359375 -0.21875q0.109375 -0.5625 0.109375 -2.25q0 -2.71875 -0.125 -3.328125l-1.0156174 -0.296875l-0.03125 -0.421875q1.0156174 0 2.1093674 -0.28125l0.296875 0.140625q-0.015625 0.40625 -0.015625 0.765625q1.78125 -0.921875 3.03125 -0.921875q1.25 0 1.484375 0.9375q1.671875 -0.9375 3.03125 -0.9375q0.8125 0 1.21875 0.328125q0.421875 0.3125 0.421875 1.1875l0 2.1875q0 2.0625 0.109375 2.6875l0.046875 0.203125q0.015625 0.109375 0.359375 0.21875q0.34375 0.09375 0.671875 0.125l-0.046875 0.46875q-0.78125 -0.046875 -1.765625 -0.046875q-0.984375 0 -1.765625 0.046875l0.046875 -0.46875q0.3125 -0.03125 0.65625 -0.125q0.34375 -0.109375 0.359375 -0.21875q0.125 -0.5625 0.125 -2.890625l0 -1.5625q0 -0.625 -0.375 -0.859375q-0.359375 -0.234375 -1.296875 -0.234375q-0.9375 0 -1.734375 0.4375l0 2.21875zm16.720535 -4.609375q-0.3125 -1.171875 -0.890625 -1.59375q-0.5625 -0.4375 -1.484375 -0.4375q-0.90625 0 -1.390625 0.4375q-0.46875 0.4375 -0.46875 1.078125q0 1.03125 1.0625 1.734375l2.53125 1.65625q1.671875 1.09375 1.671875 2.578125q0 1.203125 -0.953125 2.09375q-0.953125 0.875 -2.78125 0.875q-1.828125 0 -3.1875 -0.578125q0.265625 -1.3125 0.265625 -2.34375l0.421875 -0.1875q0.25 1.3125 0.75 1.8125q0.515625 0.484375 1.59375 0.484375q1.078125 0 1.640625 -0.53125q0.578125 -0.53125 0.578125 -1.25q0 -0.96875 -1.046875 -1.640625l-2.546875 -1.6875q-1.484375 -0.953125 -1.484375 -2.453125q0 -1.171875 0.90625 -2.03125q0.921875 -0.859375 2.390625 -0.859375q0.484375 0 1.0625 0.125q0.59375 0.125 0.890625 0.125q0.3125 0 0.703125 -0.09375l0 0.234375q0 1.171875 0.203125 2.25l-0.4375 0.203125zm7.1980133 3.140625q0 -0.734375 -0.421875 -1.09375q-0.40625 -0.359375 -0.921875 -0.359375q-0.75 0 -1.296875 0.59375q-0.546875 0.59375 -0.71875 1.453125l3.3125 -0.125q0.046875 -0.234375 0.046875 -0.46875zm-1.390625 5.265625q-1.703125 0 -2.5625 -0.96875q-0.859375 -0.96875 -0.859375 -2.578125q0 -1.609375 0.953125 -2.78125q0.953125 -1.171875 2.875 -1.171875q0.96875 0 1.6875 0.6875q0.734375 0.6875 0.734375 2.046875l-0.546875 0.65625q-0.09375 -0.015625 -1.515625 -0.015625q-1.40625 0 -2.828125 0.109375l0 0.140625q0 1.46875 0.609375 2.203125q0.609375 0.71875 1.65625 0.71875q1.0625 0 2.234375 -0.515625l0.1875 0.484375q-1.234375 0.984375 -2.625 0.984375zm6.4533844 0q-1.671875 0 -1.671875 -1.59375q0.015625 -1.40625 0.015625 -2.578125q0 -1.1875 -0.03125 -2.46875l-1.015625 0.015625l-0.046875 -0.171875l0.359375 -0.625q0.21875 0.046875 0.671875 0.0625l-0.0625 -1.46875l1.0625 -0.9375l0.296875 0.140625q-0.03125 1.1875 -0.03125 2.25l2.359375 -0.015625l0.078125 0.1875l-0.578125 0.640625q-0.546875 -0.0625 -1.859375 -0.078125l0 2.140625q0 2.0 0.046875 2.875q0.046875 0.71875 0.84375 0.71875q0.640625 0 1.40625 -0.375l0.203125 0.53125q-1.140625 0.75 -2.046875 0.75zm9.232025 -8.5625q-0.171875 4.0 -0.171875 5.640625l0.0625 1.671875q0.046875 0.390625 0.84376526 0.5625q0.1875 0.03125 0.65625 0.125l-0.046875 0.46875q-1.0156403 -0.046875 -2.2031403 -0.046875q-1.171875 0 -1.84375 0.046875l-0.046875 -0.46875q0.765625 -0.15625 1.046875 -0.28125q0.296875 -0.125 0.328125 -0.40625q0.3125 -2.59375 0.3125 -6.625l-0.0625 -2.125q-0.03125 -0.28125 -0.296875 -0.40625q-0.25 -0.125 -1.015625 -0.28125l0.046875 -0.46875q1.015625 0.0625 2.78125 0.0625l3.8125153 9.4375l3.8125 -9.4375q1.8125 0 2.828125 -0.0625l0.046875 0.46875q-0.765625 0.15625 -1.03125 0.28125q-0.25 0.125 -0.296875 0.4375q-0.046875 0.296875 -0.046875 1.046875q0 0.75 0.078125 3.3125q0.15625 3.171875 0.25 4.0625l0.046875 0.296875q0.03125 0.296875 0.296875 0.421875q0.265625 0.109375 1.0625 0.265625l-0.0625 0.46875q-1.0 -0.046875 -2.1875 -0.046875q-1.1875 0 -2.1875 0.046875l-0.046875 -0.46875q0.828125 -0.15625 1.125 -0.28125q0.296875 -0.125 0.296875 -0.40625q0.015625 -0.515625 0.015625 -2.265625q0 -1.75 -0.203125 -5.046875l-0.09375 0l-3.4375 8.40625l-0.984375 0.171875l-3.4218903 -8.578125l-0.0625 0zm17.03328 3.296875q0 -0.734375 -0.421875 -1.09375q-0.40625 -0.359375 -0.921875 -0.359375q-0.75 0 -1.296875 0.59375q-0.546875 0.59375 -0.71875 1.453125l3.3125 -0.125q0.046875 -0.234375 0.046875 -0.46875zm-1.390625 5.265625q-1.703125 0 -2.5625 -0.96875q-0.859375 -0.96875 -0.859375 -2.578125q0 -1.609375 0.953125 -2.78125q0.953125 -1.171875 2.875 -1.171875q0.96875 0 1.6875 0.6875q0.734375 0.6875 0.734375 2.046875l-0.546875 0.65625q-0.09375 -0.015625 -1.515625 -0.015625q-1.40625 0 -2.828125 0.109375l0 0.140625q0 1.46875 0.609375 2.203125q0.609375 0.71875 1.65625 0.71875q1.0625 0 2.234375 -0.515625l0.1875 0.484375q-1.234375 0.984375 -2.625 0.984375zm6.4533997 0q-1.671875 0 -1.671875 -1.59375q0.015625 -1.40625 0.015625 -2.578125q0 -1.1875 -0.03125 -2.46875l-1.015625 0.015625l-0.046875 -0.171875l0.359375 -0.625q0.21875 0.046875 0.671875 0.0625l-0.0625 -1.46875l1.0625 -0.9375l0.296875 0.140625q-0.03125 1.1875 -0.03125 2.25l2.359375 -0.015625l0.078125 0.1875l-0.578125 0.640625q-0.546875 -0.0625 -1.859375 -0.078125l0 2.140625q0 2.0 0.046875 2.875q0.046875 0.71875 0.84375 0.71875q0.640625 0 1.40625 -0.375l0.203125 0.53125q-1.140625 0.75 -2.046875 0.75zm6.7632446 -3.5q-1.3125 0.03125 -2.0 0.5q-0.6875 0.453125 -0.6875 1.0q0 0.546875 0.28125 0.796875q0.28125 0.25 0.90625 0.25q0.625 0 1.5 -0.53125l0 -2.015625zm1.171875 3.5q-0.96875 0 -1.125 -1.03125q-1.40625 1.03125 -2.4375 1.03125q-0.6875 0 -1.171875 -0.421875q-0.46875 -0.421875 -0.46875 -1.3125q0 -0.90625 0.953125 -1.625q0.953125 -0.71875 3.078125 -0.859375l0 -1.484375q0 -0.453125 -0.328125 -0.6875q-0.328125 -0.25 -0.921875 -0.25q-0.59375 0 -0.953125 0.328125q-0.34375 0.328125 -0.34375 0.84375q0 0.1875 0.046875 0.4375l-0.34375 0.15625q-0.328125 -0.171875 -0.609375 -0.46875q-0.28125 -0.3125 -0.28125 -0.453125q0 -0.140625 0.21875 -0.390625q0.21875 -0.265625 0.578125 -0.5625q0.375 -0.3125 0.984375 -0.53125q0.625 -0.21875 1.390625 -0.21875q0.765625 0 1.25 0.375q0.484375 0.375 0.484375 1.359375q0 0.984375 0.09375 4.15625q0.015625 0.765625 0.578125 0.765625q0.234375 0 0.484375 -0.125l0.171875 0.40625q-0.609375 0.5625 -1.328125 0.5625zm7.5151367 -1.03125q-1.109375 1.03125 -2.421875 1.03125q-1.3125 0 -2.15625 -0.953125q-0.828125 -0.953125 -0.828125 -2.71875q0 -1.765625 1.0 -2.796875q1.0 -1.046875 2.46875 -1.046875q0.796875 0 1.921875 0.5625q0 -2.96875 -0.09375 -3.640625l-0.03125 -0.21875l-1.03125 -0.296875l-0.03125 -0.421875q1.03125 0 2.109375 -0.296875l0.3125 0.15625q-0.03125 2.0 -0.03125 5.671875q0 3.65625 0.03125 4.1875q0.03125 0.515625 0.125 0.65625q0.109375 0.140625 0.328125 0.203125q0.328125 0.09375 0.78125 0.125l-0.046875 0.46875q-0.578125 0.046875 -1.75 0.28125q-0.484375 -0.203125 -0.65625 -0.953125zm-1.515625 -5.515625q-1.265625 0 -1.875 0.828125q-0.59375 0.828125 -0.59375 2.046875q0 1.21875 0.53125 1.953125q0.53125 0.71875 1.5 0.71875q0.984375 0 1.859375 -0.5625q0.078125 -1.28125 0.078125 -4.6875q-0.828125 -0.296875 -1.5 -0.296875zm8.844666 3.046875q-1.3125 0.03125 -2.0 0.5q-0.6875 0.453125 -0.6875 1.0q0 0.546875 0.28125 0.796875q0.28125 0.25 0.90625 0.25q0.625 0 1.5 -0.53125l0 -2.015625zm1.171875 3.5q-0.96875 0 -1.125 -1.03125q-1.40625 1.03125 -2.4375 1.03125q-0.6875 0 -1.171875 -0.421875q-0.46875 -0.421875 -0.46875 -1.3125q0 -0.90625 0.953125 -1.625q0.953125 -0.71875 3.078125 -0.859375l0 -1.484375q0 -0.453125 -0.328125 -0.6875q-0.328125 -0.25 -0.921875 -0.25q-0.59375 0 -0.953125 0.328125q-0.34375 0.328125 -0.34375 0.84375q0 0.1875 0.046875 0.4375l-0.34375 0.15625q-0.328125 -0.171875 -0.609375 -0.46875q-0.28125 -0.3125 -0.28125 -0.453125q0 -0.140625 0.21875 -0.390625q0.21875 -0.265625 0.578125 -0.5625q0.375 -0.3125 0.984375 -0.53125q0.625 -0.21875 1.390625 -0.21875q0.765625 0 1.25 0.375q0.484375 0.375 0.484375 1.359375q0 0.984375 0.09375 4.15625q0.015625 0.765625 0.578125 0.765625q0.234375 0 0.484375 -0.125l0.171875 0.40625q-0.609375 0.5625 -1.328125 0.5625zm4.6088867 0q-1.671875 0 -1.671875 -1.59375q0.015625 -1.40625 0.015625 -2.578125q0 -1.1875 -0.03125 -2.46875l-1.015625 0.015625l-0.046875 -0.171875l0.359375 -0.625q0.21875 0.046875 0.671875 0.0625l-0.0625 -1.46875l1.0625 -0.9375l0.296875 0.140625q-0.03125 1.1875 -0.03125 2.25l2.359375 -0.015625l0.078125 0.1875l-0.578125 0.640625q-0.546875 -0.0625 -1.859375 -0.078125l0 2.140625q0 2.0 0.046875 2.875q0.046875 0.71875 0.84375 0.71875q0.640625 0 1.40625 -0.375l0.203125 0.53125q-1.140625 0.75 -2.046875 0.75zm6.7632446 -3.5q-1.3125 0.03125 -2.0 0.5q-0.6875 0.453125 -0.6875 1.0q0 0.546875 0.28125 0.796875q0.28125 0.25 0.90625 0.25q0.625 0 1.5 -0.53125l0 -2.015625zm1.171875 3.5q-0.96875 0 -1.125 -1.03125q-1.40625 1.03125 -2.4375 1.03125q-0.6875 0 -1.171875 -0.421875q-0.46875 -0.421875 -0.46875 -1.3125q0 -0.90625 0.953125 -1.625q0.953125 -0.71875 3.078125 -0.859375l0 -1.484375q0 -0.453125 -0.328125 -0.6875q-0.328125 -0.25 -0.921875 -0.25q-0.59375 0 -0.953125 0.328125q-0.34375 0.328125 -0.34375 0.84375q0 0.1875 0.046875 0.4375l-0.34375 0.15625q-0.328125 -0.171875 -0.609375 -0.46875q-0.28125 -0.3125 -0.28125 -0.453125q0 -0.140625 0.21875 -0.390625q0.21875 -0.265625 0.578125 -0.5625q0.375 -0.3125 0.984375 -0.53125q0.625 -0.21875 1.390625 -0.21875q0.765625 0 1.25 0.375q0.484375 0.375 0.484375 1.359375q0 0.984375 0.09375 4.15625q0.015625 0.765625 0.578125 0.765625q0.234375 0 0.484375 -0.125l0.171875 0.40625q-0.609375 0.5625 -1.328125 0.5625z" fill-rule="nonzero"></path></g></svg>

