<?xml version="1.0" standalone="yes"?>

<svg version="1.1" viewBox="0.0 0.0 864.0 384.0" fill="none" stroke="none" stroke-linecap="square" stroke-miterlimit="10" xmlns="http://www.w3.org/2000/svg" xmlns:xlink="http://www.w3.org/1999/xlink"><clipPath id="p.0"><path d="m0 0l864.0 0l0 384.0l-864.0 0l0 -384.0z" clip-rule="nonzero"></path></clipPath><g clip-path="url(#p.0)"><path fill="#000000" fill-opacity="0.0" d="m0 0l864.0 0l0 384.0l-864.0 0z" fill-rule="nonzero"></path><path fill="#000000" fill-opacity="0.0" d="m38.34864 243.70663l173.88977 0l0 49.826782l-173.88977 0z" fill-rule="nonzero"></path><path fill="#000000" d="m56.540596 258.13727q2.484375 0.171875 7.65625 0.171875q5.171875 0 7.65625 -0.171875l0 0.890625q0 1.84375 0.34375 3.8125l-1.515625 0.6875q-0.734375 -2.328125 -1.46875 -2.765625q-0.71875 -0.453125 -2.96875 -0.453125q-0.28125 0 -0.296875 0.21875q-0.1875 1.375 -0.1875 5.078125q0 5.984375 0.140625 7.4375l0.046875 0.5q0.015625 0.140625 0.265625 0.25q0.25 0.109375 1.796875 0.421875l-0.140625 1.640625q-1.984375 -0.109375 -3.75 -0.109375q-1.75 0 -3.71875 0.109375l-0.1875 -1.640625q1.625 -0.3125 1.890625 -0.4375q0.28125 -0.125 0.296875 -0.25q0.1875 -1.390625 0.1875 -5.078125q0 -5.984375 -0.140625 -7.453125l-0.046875 -0.484375q-0.015625 -0.203125 -0.25 -0.203125q-2.25 0 -2.984375 0.453125q-0.71875 0.4375 -1.453125 2.765625l-1.515625 -0.6875q0.34375 -1.96875 0.34375 -3.8125l0 -0.890625zm21.532959 17.71875q-1.625 -0.109375 -3.109375 -0.109375q-1.46875 0 -3.171875 0.109375l0.140625 -1.6875q0.828125 -0.09375 1.265625 -0.109375q0.4375 -0.015625 0.21875 -0.046875q0.171875 -1.515625 0.171875 -5.921875q0 -7.1875 -0.140625 -8.375l-0.015625 -0.09375l-1.546875 -0.46875l-0.109375 -1.5q2.0 0 3.75 -0.453125l0.90625 0.4375q-0.046875 3.109375 -0.046875 7.140625q2.03125 -1.078125 4.296875 -1.078125q1.375 0 2.15625 0.609375q0.796875 0.609375 0.796875 2.171875l0 3.265625q0 3.046875 0.1875 3.9375l0.046875 0.328125q-0.21875 0.03125 0.21875 0.046875q0.4375 0.015625 1.375 0.109375l-0.1875 1.6875q-1.609375 -0.109375 -3.078125 -0.109375q-1.46875 0 -3.203125 0.125l0.1875 -1.703125q0.8125 -0.09375 1.25 -0.09375q0.453125 0 0.203125 -0.0625q0.203125 -0.8125 0.203125 -4.265625l0 -2.328125q0 -0.671875 -0.375 -0.90625q-0.375 -0.25 -1.0625 -0.25q-0.671875 0 -1.109375 0.0625q-0.4375 0.0625 -0.796875 0.140625q-0.90625 0.25 -1.21875 0.375l-0.0625 -0.15625q0.171875 6.75 0.421875 7.265625q-0.234375 0.125 0.203125 0.125q0.453125 0 1.390625 0.09375l-0.15625 1.6875zm11.782593 -14.140625q-0.5 0.515625 -1.234375 0.515625q-0.71875 0 -1.234375 -0.515625q-0.5 -0.515625 -0.5 -1.265625q0 -0.75 0.5 -1.25q0.515625 -0.515625 1.234375 -0.515625q0.734375 0 1.234375 0.515625q0.515625 0.5 0.515625 1.25q0 0.75 -0.515625 1.265625zm0.25 2.421875l-0.046875 5.609375q0 3.046875 0.1875 3.9375l0.0625 0.34375q-0.25 0.046875 0.265625 0.046875q0.53125 0 1.484375 0.09375l-0.1875 1.6875q-1.609375 -0.109375 -3.25 -0.109375q-1.625 0 -3.34375 0.109375l0.140625 -1.6875q0.890625 -0.09375 1.390625 -0.109375q0.5 -0.015625 0.28125 -0.0625q0.171875 -0.796875 0.171875 -3.265625q0 -4.03125 -0.109375 -4.59375l-1.578125 -0.46875l-0.109375 -1.5q2.0 0 3.734375 -0.46875l0.90625 0.4375zm9.443726 0.046875l0.625 0.3125q0 1.828125 0.203125 3.015625l-1.53125 0.546875q-0.421875 -1.609375 -0.859375 -1.96875q-0.421875 -0.375 -1.109375 -0.375q-0.671875 0 -1.015625 0.3125q-0.34375 0.3125 -0.34375 0.71875q0 0.78125 1.0 1.34375l2.4375 1.34375q1.84375 1.03125 1.84375 3.0q0 1.453125 -1.140625 2.5q-1.125 1.03125 -3.0625 1.03125q-1.921875 0 -4.3125 -0.765625q0.359375 -2.0625 0.359375 -3.453125l1.46875 -0.515625q0.359375 1.375 0.4375 1.65625q0.09375 0.28125 0.3125 0.640625q0.21875 0.34375 0.515625 0.453125q0.3125 0.09375 1.015625 0.09375q0.71875 0 1.109375 -0.34375q0.390625 -0.34375 0.390625 -0.78125q0 -0.71875 -0.875 -1.203125l-2.578125 -1.4375q-1.84375 -0.984375 -1.84375 -3.0q0 -1.4375 1.078125 -2.515625q1.09375 -1.09375 2.921875 -1.09375q1.84375 0 2.953125 0.484375zm11.6679535 -5.875l3.640625 0q2.828125 0 4.375 1.421875q1.546875 1.40625 1.546875 3.578125q0 2.171875 -1.875 3.953125q-1.875 1.765625 -4.953125 1.765625q-0.828125 0 -1.1875 -0.046875l0.171875 4.578125q0.015625 0.125 0.265625 0.234375q0.25 0.109375 1.828125 0.421875l-0.1875 1.640625q-1.96875 -0.109375 -3.734375 -0.109375q-1.75 0 -3.734375 0.109375l-0.140625 -1.640625q1.59375 -0.3125 1.859375 -0.4375q0.28125 -0.125 0.296875 -0.25q0.203125 -1.390625 0.203125 -5.078125q0 -5.984375 -0.15625 -7.453125l-0.046875 -0.484375q-0.015625 -0.15625 -0.25 -0.25q-0.21875 -0.109375 -1.765625 -0.421875l0.1875 -1.640625q1.96875 0.109375 3.65625 0.109375zm2.34375 8.703125q1.875 0 2.890625 -0.84375q1.03125 -0.859375 1.03125 -2.625q0 -1.765625 -0.859375 -2.5q-0.84375 -0.734375 -2.671875 -0.734375q-0.765625 0 -0.84375 0.046875q-0.078125 0.03125 -0.125 0.375q-0.234375 1.1875 -0.234375 6.265625q0.203125 0.015625 0.8125 0.015625zm14.980217 -3.453125q0.421875 0 0.96875 0.703125q0.5625 0.703125 0.796875 1.609375l-0.75 0.9375q-1.109375 -0.453125 -1.9062576 -0.453125q-0.78125 0 -1.40625 0.640625q-0.609375 0.625 -0.609375 2.15625q0.015625 4.140625 0.21875 4.828125q-0.25 0.078125 0.328125 0.09375q0.59375 0 1.796875 0.078125l-0.203125 1.703125q-1.609375 -0.109375 -3.359375 -0.109375q-1.734375 0 -3.46875 0.125l0.1875 -1.703125q0.828125 -0.09375 1.28125 -0.09375q0.46875 0 0.21875 -0.0625q0.203125 -0.8125 0.203125 -3.28125q0 -4.015625 -0.125 -4.59375l-1.578125 -0.46875l-0.109375 -1.5q2.0 0 3.75 -0.46875l0.953125 0.453125q-0.09375 0.6875 -0.21875 0.921875q-0.046875 -0.1875 1.140625 -0.84375q1.1875 -0.671875 1.8906326 -0.671875zm7.7979736 2.328125q-0.828125 0 -1.4375 0.40625q-0.59375 0.40625 -0.875 1.03125q-0.59375 1.265625 -0.59375 2.40625q0 1.828125 0.671875 2.953125q0.6875 1.125 2.109375 1.125q0.78125 0 1.359375 -0.34375q0.578125 -0.359375 0.875 -0.90625q0.625 -1.15625 0.6875 -2.265625q0 -4.40625 -2.796875 -4.40625zm0.109375 -2.1875q2.96875 0 4.359375 1.5625q1.390625 1.546875 1.390625 4.21875q0 2.65625 -1.5625 4.578125q-1.5625 1.90625 -4.53125 1.90625q-2.953125 0 -4.34375 -1.53125q-1.390625 -1.546875 -1.390625 -4.1875q0 -2.65625 1.5625 -4.59375q1.5625 -1.953125 4.515625 -1.953125zm12.320969 9.984375q1.671875 0 2.5 -1.109375q0.84375 -1.125 0.84375 -2.734375q0 -1.609375 -0.71875 -2.609375q-0.703125 -1.015625 -2.09375 -1.015625q-0.5625 0 -1.34375 0.21875q-0.78125 0.21875 -0.890625 0.296875l0 6.6875q0.734375 0.265625 1.703125 0.265625zm-0.015625 8.40625q-1.609375 -0.109375 -3.234375 -0.109375q-1.609375 0 -3.3125 0.109375l0.15625 -1.703125q1.71875 -0.046875 1.625 -0.078125q0.28125 -1.3125 0.28125 -5.734375q0 -7.171875 -0.15625 -8.359375l0 -0.078125l-1.546875 -0.46875l-0.109375 -1.5q1.984375 0 3.71875 -0.46875l0.90625 0.4375l0 0.484375q1.203125 -0.921875 3.34375 -0.921875q2.140625 0 3.484375 1.453125q1.34375 1.4375 1.34375 4.421875q0 2.96875 -1.65625 4.6875q-1.65625 1.703125 -4.0625 1.703125q-1.703125 0 -2.46875 -0.421875q0.015625 4.4375 0.125 4.734375q-0.09375 0.0625 1.75 0.125l-0.1875 1.6875zm13.385208 -16.203125q-0.828125 0 -1.4375 0.40625q-0.59375 0.40625 -0.875 1.03125q-0.59375 1.265625 -0.59375 2.40625q0 1.828125 0.671875 2.953125q0.6875 1.125 2.109375 1.125q0.78125 0 1.359375 -0.34375q0.578125 -0.359375 0.875 -0.90625q0.625 -1.15625 0.6875 -2.265625q0 -4.40625 -2.796875 -4.40625zm0.109375 -2.1875q2.96875 0 4.359375 1.5625q1.390625 1.546875 1.390625 4.21875q0 2.65625 -1.5625 4.578125q-1.5625 1.90625 -4.53125 1.90625q-2.953125 0 -4.34375 -1.53125q-1.390625 -1.546875 -1.390625 -4.1875q0 -2.65625 1.5625 -4.59375q1.5625 -1.953125 4.515625 -1.953125zm13.836594 0.484375l0.625 0.3125q0 1.828125 0.203125 3.015625l-1.53125 0.546875q-0.421875 -1.609375 -0.859375 -1.96875q-0.421875 -0.375 -1.109375 -0.375q-0.671875 0 -1.015625 0.3125q-0.34375 0.3125 -0.34375 0.71875q0 0.78125 1.0 1.34375l2.4375 1.34375q1.84375 1.03125 1.84375 3.0q0 1.453125 -1.140625 2.5q-1.125 1.03125 -3.0625 1.03125q-1.921875 0 -4.3125 -0.765625q0.359375 -2.0625 0.359375 -3.453125l1.46875 -0.515625q0.359375 1.375 0.4375 1.65625q0.09375 0.28125 0.3125 0.640625q0.21875 0.34375 0.515625 0.453125q0.3125 0.09375 1.015625 0.09375q0.71875 0 1.109375 -0.34375q0.390625 -0.34375 0.390625 -0.78125q0 -0.71875 -0.875 -1.203125l-2.578125 -1.4375q-1.84375 -0.984375 -1.84375 -3.0q0 -1.4375 1.078125 -2.515625q1.09375 -1.09375 2.921875 -1.09375q1.84375 0 2.953125 0.484375zm7.9960938 6.53125q-1.3125 0.046875 -2.171875 0.625q-0.859375 0.578125 -0.859375 1.15625q0 0.5625 0.265625 0.796875q0.265625 0.234375 1.03125 0.234375q0.765625 0 1.734375 -0.578125l0 -2.234375zm2.25 5.25q-1.875 0 -2.046875 -1.171875q-1.59375 1.171875 -3.28125 1.171875q-1.21875 0 -2.09375 -0.78125q-0.875 -0.78125 -0.875 -2.359375q0 -1.578125 1.578125 -2.765625q1.59375 -1.203125 4.46875 -1.40625l0 -1.765625q0 -0.421875 -0.328125 -0.65625q-0.3125 -0.234375 -1.03125 -0.234375q-0.703125 0 -1.078125 0.359375q-0.375 0.34375 -0.375 0.90625q0 0.234375 0.125 0.9375l-1.09375 0.5q-0.78125 -0.421875 -1.296875 -0.96875q-0.515625 -0.5625 -0.515625 -0.953125q0 -0.390625 0.390625 -0.875q0.40625 -0.5 1.0 -0.984375q0.609375 -0.5 1.609375 -0.859375q1.0 -0.359375 2.28125 -0.359375q1.296875 0 2.171875 0.703125q0.890625 0.703125 0.890625 2.296875q0 1.59375 0.140625 6.328125q0.015625 0.65625 0.375 0.65625q0.234375 0 1.0 -0.375l0.578125 1.453125q-1.328125 1.203125 -2.59375 1.203125zm6.936722 -18.328125q-0.046875 3.3125 -0.046875 9.078125q0 5.75 0.265625 7.3125q-0.25 0.046875 0.265625 0.0625q0.53125 0.015625 1.453125 0.046875l-0.15625 1.71875q-1.625 -0.109375 -3.25 -0.109375q-1.609375 0 -3.34375 0.125l0.1875 -1.703125q0.859375 -0.09375 1.34375 -0.109375q0.5 -0.015625 0.265625 -0.046875q0.171875 -1.515625 0.171875 -5.921875q0 -7.1875 -0.15625 -8.375l0 -0.09375l-1.546875 -0.46875l-0.109375 -1.5q2.0 0 3.75 -0.453125l0.90625 0.4375z" fill-rule="nonzero"></path><path fill="#b6d7a8" d="m281.34573 268.18695l357.82675 0l0 76.787384l-357.82675 0z" fill-rule="nonzero"></path><path stroke="#000000" stroke-width="1.0" stroke-linejoin="round" stroke-linecap="butt" d="m281.34573 268.18695l357.82675 0l0 76.787384l-357.82675 0z" fill-rule="nonzero"></path><path fill="#000000" d="m417.03033 300.48502l3.390625 0q2.203125 0 3.9375 0.859375q1.90625 0.984375 2.65625 2.890625q0.421875 1.03125 0.421875 2.328125q0 3.0625 -1.890625 5.0q-1.875 1.9375 -5.453125 1.9375l-3.0625 0q-1.46875 0 -2.671875 0.0625l-0.0625 -0.5625q0.96875 -0.1875 1.3125 -0.328125q0.34375 -0.15625 0.375 -0.484375q0.15625 -1.125 0.15625 -4.0625q0 -4.765625 -0.109375 -5.953125l-0.046875 -0.375q-0.03125 -0.34375 -0.34375 -0.484375q-0.296875 -0.140625 -1.203125 -0.328125l0.046875 -0.5625q1.203125 0.0625 2.546875 0.0625zm1.03125 11.875q1.03125 0.234375 2.1875 0.234375q1.15625 0 2.203125 -0.46875q1.046875 -0.46875 1.59375 -1.09375q0.546875 -0.640625 0.875 -1.515625q0.515625 -1.296875 0.515625 -2.671875q0 -5.5625 -6.203125 -5.5625q-0.671875 0 -0.890625 0.078125q-0.21875 0.078125 -0.28125 0.328125q-0.203125 1.234375 -0.203125 4.171875q0 4.578125 0.140625 6.0625l0.0625 0.4375zm15.565399 -2.84375q-1.5625 0.03125 -2.375 0.59375q-0.8125 0.546875 -0.8125 1.1875q0 0.640625 0.328125 0.9375q0.328125 0.296875 1.0625 0.296875q0.75 0 1.796875 -0.625l0 -2.390625zm1.390625 4.15625q-1.140625 0 -1.328125 -1.234375q-1.6875 1.234375 -2.890625 1.234375q-0.828125 0 -1.40625 -0.5q-0.5625 -0.515625 -0.5625 -1.578125q0 -1.0625 1.125 -1.90625q1.140625 -0.859375 3.671875 -1.03125l0 -1.765625q0 -0.53125 -0.390625 -0.8125q-0.390625 -0.296875 -1.09375 -0.296875q-0.703125 0 -1.125 0.390625q-0.40625 0.390625 -0.40625 1.0q0 0.234375 0.046875 0.515625l-0.421875 0.1875q-0.375 -0.203125 -0.703125 -0.5625q-0.328125 -0.375 -0.328125 -0.53125q0 -0.15625 0.25 -0.46875q0.25 -0.3125 0.6875 -0.671875q0.4375 -0.375 1.171875 -0.625q0.734375 -0.25 1.640625 -0.25q0.921875 0 1.484375 0.453125q0.578125 0.4375 0.578125 1.609375q0 1.15625 0.109375 4.921875q0.015625 0.90625 0.6875 0.90625q0.28125 0 0.578125 -0.140625l0.203125 0.484375q-0.734375 0.671875 -1.578125 0.671875zm5.3071594 0q-1.96875 0 -1.96875 -1.90625q0.015625 -1.671875 0.015625 -3.0625q0 -1.390625 -0.046875 -2.921875l-1.203125 0.03125l-0.0625 -0.21875l0.4375 -0.734375q0.265625 0.046875 0.796875 0.078125l-0.078125 -1.75l1.25 -1.125l0.375 0.171875q-0.046875 1.40625 -0.046875 2.671875l2.796875 -0.015625l0.09375 0.234375l-0.6875 0.75q-0.640625 -0.0625 -2.203125 -0.09375l0 2.546875q0 2.375 0.0625 3.40625q0.046875 0.859375 1.0 0.859375q0.765625 0 1.671875 -0.4375l0.234375 0.625q-1.359375 0.890625 -2.4375 0.890625zm7.9287415 -4.15625q-1.5625 0.03125 -2.375 0.59375q-0.8125 0.546875 -0.8125 1.1875q0 0.640625 0.328125 0.9375q0.328125 0.296875 1.0625 0.296875q0.75 0 1.796875 -0.625l0 -2.390625zm1.390625 4.15625q-1.140625 0 -1.328125 -1.234375q-1.6875 1.234375 -2.890625 1.234375q-0.828125 0 -1.40625 -0.5q-0.5625 -0.515625 -0.5625 -1.578125q0 -1.0625 1.125 -1.90625q1.140625 -0.859375 3.671875 -1.03125l0 -1.765625q0 -0.53125 -0.390625 -0.8125q-0.390625 -0.296875 -1.09375 -0.296875q-0.703125 0 -1.125 0.390625q-0.40625 0.390625 -0.40625 1.0q0 0.234375 0.046875 0.515625l-0.421875 0.1875q-0.375 -0.203125 -0.703125 -0.5625q-0.328125 -0.375 -0.328125 -0.53125q0 -0.15625 0.25 -0.46875q0.25 -0.3125 0.6875 -0.671875q0.4375 -0.375 1.171875 -0.625q0.734375 -0.25 1.640625 -0.25q0.921875 0 1.484375 0.453125q0.578125 0.4375 0.578125 1.609375q0 1.15625 0.109375 4.921875q0.015625 0.90625 0.6875 0.90625q0.28125 0 0.578125 -0.140625l0.203125 0.484375q-0.734375 0.671875 -1.578125 0.671875zm9.971222 -10.171875q-0.1875 4.75 -0.1875 6.6875l0.0625 2.0q0.046875 0.453125 1.0 0.671875q0.234375 0.03125 0.78125 0.140625l-0.0625 0.5625q-1.1875 -0.0625 -2.59375 -0.0625q-1.40625 0 -2.203125 0.0625l-0.0625 -0.5625q0.90625 -0.1875 1.25 -0.328125q0.34375 -0.15625 0.390625 -0.484375q0.375 -3.078125 0.375 -7.859375l-0.078125 -2.53125q-0.03125 -0.34375 -0.34375 -0.484375q-0.296875 -0.140625 -1.21875 -0.328125l0.0625 -0.5625q1.203125 0.0625 3.3125 0.0625l4.515625 11.203125l4.515625 -11.203125q2.171875 0 3.375 -0.0625l0.046875 0.5625q-0.90625 0.1875 -1.21875 0.328125q-0.296875 0.140625 -0.359375 0.5q-0.046875 0.359375 -0.046875 1.265625q0 0.890625 0.09375 3.921875q0.1875 3.765625 0.296875 4.828125l0.046875 0.359375q0.03125 0.34375 0.34375 0.484375q0.328125 0.140625 1.265625 0.328125l-0.0625 0.5625q-1.1875 -0.0625 -2.59375 -0.0625q-1.40625 0 -2.609375 0.0625l-0.0625 -0.5625q1.0 -0.1875 1.34375 -0.328125q0.359375 -0.15625 0.359375 -0.484375q0.015625 -0.625 0.015625 -2.6875q0 -2.078125 -0.25 -6.0l-0.109375 0l-4.0625 9.984375l-1.1875 0.203125l-4.0625 -10.1875l-0.078125 0zm18.57605 2.1875q-0.78125 0 -1.359375 0.390625q-0.5625 0.390625 -0.828125 0.984375q-0.515625 1.078125 -0.515625 2.0625q0 1.5625 0.625 2.609375q0.625 1.03125 1.984375 1.03125q0.71875 0 1.265625 -0.328125q0.546875 -0.34375 0.84375 -0.875q0.546875 -0.984375 0.578125 -1.96875q0 -3.90625 -2.59375 -3.90625zm0.078125 -0.921875q2.171875 0 3.15625 1.109375q1.0 1.09375 1.0 3.0625q0 1.953125 -1.140625 3.34375q-1.125 1.390625 -3.296875 1.390625q-2.15625 0 -3.15625 -1.09375q-0.984375 -1.09375 -0.984375 -3.046875q0 -1.953125 1.125 -3.359375q1.140625 -1.40625 3.296875 -1.40625zm11.869171 7.671875q-1.296875 1.234375 -2.859375 1.234375q-1.5625 0 -2.5625 -1.125q-1.0 -1.140625 -1.0 -3.234375q0 -2.09375 1.1875 -3.328125q1.1875 -1.25 2.9375 -1.25q0.953125 0 2.28125 0.671875q0 -3.515625 -0.109375 -4.3125l-0.046875 -0.265625l-1.203125 -0.359375l-0.046875 -0.5q1.21875 0 2.515625 -0.34375l0.359375 0.171875q-0.046875 2.375 -0.046875 6.734375q0 4.34375 0.03125 4.96875q0.046875 0.625 0.171875 0.796875q0.125 0.15625 0.375 0.234375q0.390625 0.109375 0.921875 0.15625l-0.046875 0.546875q-0.6875 0.0625 -2.078125 0.34375q-0.5625 -0.25 -0.78125 -1.140625zm-1.796875 -6.53125q-1.5 0 -2.21875 0.984375q-0.703125 0.96875 -0.703125 2.421875q0 1.4375 0.625 2.296875q0.625 0.859375 1.78125 0.859375q1.15625 0 2.203125 -0.65625q0.09375 -1.53125 0.09375 -5.578125q-0.984375 -0.328125 -1.78125 -0.328125zm11.211487 1.515625q0 -0.875 -0.5 -1.296875q-0.484375 -0.4375 -1.09375 -0.4375q-0.890625 0 -1.546875 0.703125q-0.640625 0.703125 -0.84375 1.734375l3.921875 -0.15625q0.0625 -0.28125 0.0625 -0.546875zm-1.65625 6.25q-2.015625 0 -3.046875 -1.140625q-1.015625 -1.15625 -1.015625 -3.0625q0 -1.921875 1.125 -3.3125q1.140625 -1.390625 3.421875 -1.390625q1.15625 0 2.015625 0.8125q0.859375 0.8125 0.859375 2.4375l-0.640625 0.765625q-0.109375 -0.015625 -1.796875 -0.015625q-1.671875 0 -3.375 0.140625l0 0.171875q0 1.71875 0.71875 2.59375q0.734375 0.859375 1.984375 0.859375q1.25 0 2.640625 -0.609375l0.234375 0.578125q-1.46875 1.171875 -3.125 1.171875zm7.1257324 -13.875q-0.046875 2.375 -0.046875 6.953125q0 4.578125 0.21875 5.84375q0.015625 0.125 0.484375 0.265625q0.484375 0.125 0.84375 0.140625l-0.0625 0.5625q-0.90625 -0.0625 -2.203125 -0.0625q-1.296875 0 -2.203125 0.0625l0.0625 -0.5625q0.390625 -0.03125 0.828125 -0.15625q0.453125 -0.125 0.484375 -0.25q0.125 -1.234375 0.125 -4.75q0 -5.71875 -0.109375 -6.6875l-0.046875 -0.328125l-1.203125 -0.359375l-0.046875 -0.5q1.21875 0 2.515625 -0.34375l0.359375 0.171875z" fill-rule="nonzero"></path><path fill="#b6d7a8" d="m281.34573 192.12682l357.82675 0l0 76.7874l-357.82675 0z" fill-rule="nonzero"></path><path stroke="#000000" stroke-width="1.0" stroke-linejoin="round" stroke-linecap="butt" d="m281.34573 192.12682l357.82675 0l0 76.7874l-357.82675 0z" fill-rule="nonzero"></path><path fill="#000000" d="m433.73523 227.6124q-0.375 -1.375 -1.0625 -1.890625q-0.671875 -0.515625 -1.75 -0.515625q-1.078125 0 -1.65625 0.53125q-0.5625 0.515625 -0.5625 1.265625q0 1.234375 1.265625 2.078125l3.0 1.953125q1.984375 1.296875 1.984375 3.0625q0 1.421875 -1.140625 2.484375q-1.125 1.046875 -3.296875 1.046875q-2.15625 0 -3.78125 -0.6875q0.3125 -1.546875 0.3125 -2.78125l0.515625 -0.234375q0.28125 1.5625 0.890625 2.15625q0.609375 0.578125 1.890625 0.578125q1.28125 0 1.953125 -0.625q0.671875 -0.625 0.671875 -1.484375q0 -1.15625 -1.234375 -1.953125l-3.03125 -2.0q-1.75 -1.140625 -1.75 -2.921875q0 -1.390625 1.078125 -2.40625q1.078125 -1.015625 2.828125 -1.015625q0.578125 0 1.265625 0.140625q0.6875 0.140625 1.046875 0.140625q0.375 0 0.84375 -0.109375l0 0.28125q0 1.390625 0.234375 2.6875l-0.515625 0.21875zm5.975525 1.71875q-0.578125 0.046875 -0.859375 0.21875q-0.28125 0.171875 -0.28125 0.28125q0 0.109375 2.015625 6.3125q2.078125 -5.96875 2.078125 -6.265625q0 -0.421875 -1.03125 -0.546875l-0.0625 -0.546875q0.640625 0.046875 1.375 0.046875l1.9375 -0.046875l0.046875 0.546875q-0.96875 0.125 -1.1875 0.703125q-0.828125 2.546875 -2.765625 7.40625q-1.453125 3.703125 -2.78125 4.640625q-0.390625 0.265625 -0.59375 0.3125q-0.1875 0.046875 -0.390625 0.046875q-0.1875 0 -0.546875 -0.453125q-0.34375 -0.4375 -0.453125 -0.875l0.28125 -0.359375q0.359375 0.171875 0.859375 0.171875q1.375 0 2.734375 -3.484375l-0.65625 -0.40625q-1.46875 -4.515625 -2.265625 -6.3125l-0.28125 -0.609375q-0.25 -0.640625 -1.171875 -0.78125l-0.046875 -0.546875q1.3125 0.046875 2.015625 0.046875l1.96875 -0.046875l0.0625 0.546875zm8.24231 1.140625l-0.015625 2.625q0 2.4375 0.15625 3.1875l0.03125 0.25q0.03125 0.125 0.4375 0.25q0.40625 0.125 0.78125 0.15625l-0.0625 0.5625q-0.90625 -0.0625 -2.09375 -0.0625q-1.171875 0 -2.078125 0.0625l0.0625 -0.5625q0.359375 -0.03125 0.765625 -0.15625q0.40625 -0.125 0.421875 -0.25q0.15625 -0.671875 0.15625 -2.671875q0 -3.21875 -0.15625 -3.953125l-1.21875 -0.359375l-0.03125 -0.484375q1.21875 0 2.5 -0.34375l0.375 0.171875l0 0.90625q2.109375 -1.09375 3.65625 -1.09375q0.953125 0 1.4375 0.375q0.5 0.375 0.5 1.421875l0 2.59375q0 2.4375 0.140625 3.1875l0.046875 0.25q0.03125 0.125 0.4375 0.25q0.40625 0.125 0.78125 0.15625l-0.046875 0.5625q-0.921875 -0.0625 -2.109375 -0.0625q-1.171875 0 -2.078125 0.0625l0.0625 -0.5625q0.359375 -0.03125 0.765625 -0.15625q0.40625 -0.125 0.421875 -0.25q0.15625 -0.671875 0.15625 -3.4375l0 -1.84375q0 -0.75 -0.4375 -1.03125q-0.4375 -0.28125 -1.484375 -0.28125q-1.046875 0 -2.28125 0.53125zm10.869385 7.140625q-1.96875 0 -1.96875 -1.90625q0.015625 -1.671875 0.015625 -3.0625q0 -1.390625 -0.046875 -2.921875l-1.203125 0.03125l-0.0625 -0.21875l0.4375 -0.734375q0.265625 0.046875 0.796875 0.078125l-0.078125 -1.75l1.25 -1.125l0.375 0.171875q-0.046875 1.40625 -0.046875 2.671875l2.796875 -0.015625l0.09375 0.234375l-0.6875 0.75q-0.640625 -0.0625 -2.203125 -0.09375l0 2.546875q0 2.375 0.0625 3.40625q0.046875 0.859375 1.0 0.859375q0.765625 0 1.671875 -0.4375l0.234375 0.625q-1.359375 0.890625 -2.4375 0.890625zm7.928711 -4.15625q-1.5625 0.03125 -2.375 0.59375q-0.8125 0.546875 -0.8125 1.1875q0 0.640625 0.328125 0.9375q0.328125 0.296875 1.0625 0.296875q0.75 0 1.796875 -0.625l0 -2.390625zm1.390625 4.15625q-1.140625 0 -1.328125 -1.234375q-1.6875 1.234375 -2.890625 1.234375q-0.828125 0 -1.40625 -0.5q-0.5625 -0.515625 -0.5625 -1.578125q0 -1.0625 1.125 -1.90625q1.140625 -0.859375 3.671875 -1.03125l0 -1.765625q0 -0.53125 -0.390625 -0.8125q-0.390625 -0.296875 -1.09375 -0.296875q-0.703125 0 -1.125 0.390625q-0.40625 0.390625 -0.40625 1.0q0 0.234375 0.046875 0.515625l-0.421875 0.1875q-0.375 -0.203125 -0.703125 -0.5625q-0.328125 -0.375 -0.328125 -0.53125q0 -0.15625 0.25 -0.46875q0.25 -0.3125 0.6875 -0.671875q0.4375 -0.375 1.171875 -0.625q0.734375 -0.25 1.640625 -0.25q0.921875 0 1.484375 0.453125q0.578125 0.4375 0.578125 1.609375q0 1.15625 0.109375 4.921875q0.015625 0.90625 0.6875 0.90625q0.28125 0 0.578125 -0.140625l0.203125 0.484375q-0.734375 0.671875 -1.578125 0.671875zm4.1196594 -1.046875q0 0.375 1.171875 0.375l-0.109375 0.5625q-0.875 -0.0625 -1.609375 -0.0625l-1.828125 0.0625l0.046875 -0.5625q0.5 0 0.734375 -0.125q0.234375 -0.140625 0.46875 -0.40625l2.546875 -3.1875l-2.328125 -3.359375q-0.359375 -0.53125 -1.09375 -0.53125l-0.0625 -0.546875q1.515625 0.046875 2.21875 0.046875l1.625 -0.046875l0.046875 0.546875q-1.0625 0 -1.0625 0.375q0 0.09375 1.71875 2.515625q1.75 -2.359375 1.75 -2.5q0 -0.390625 -0.96875 -0.390625l-0.0625 -0.546875q0.9375 0.046875 1.65625 0.046875l1.5625 -0.046875l0.046875 0.546875q-0.6875 0.046875 -1.15625 0.640625l-2.296875 2.984375l2.484375 3.40625q0.40625 0.578125 1.296875 0.578125l-0.0625 0.5625q-1.515625 -0.0625 -2.21875 -0.0625l-1.828125 0.0625l0.0625 -0.5625q1.0 0 1.0 -0.390625q0 -0.140625 -1.8125 -2.59375q-1.9375 2.515625 -1.9375 2.609375zm13.1597595 -5.203125q0 -0.875 -0.5 -1.296875q-0.484375 -0.4375 -1.09375 -0.4375q-0.890625 0 -1.546875 0.703125q-0.640625 0.703125 -0.84375 1.734375l3.921875 -0.15625q0.0625 -0.28125 0.0625 -0.546875zm-1.65625 6.25q-2.015625 0 -3.046875 -1.140625q-1.015625 -1.15625 -1.015625 -3.0625q0 -1.921875 1.125 -3.3125q1.140625 -1.390625 3.421875 -1.390625q1.15625 0 2.015625 0.8125q0.859375 0.8125 0.859375 2.4375l-0.640625 0.765625q-0.109375 -0.015625 -1.796875 -0.015625q-1.671875 0 -3.375 0.140625l0 0.171875q0 1.71875 0.71875 2.59375q0.734375 0.859375 1.984375 0.859375q1.25 0 2.640625 -0.609375l0.234375 0.578125q-1.46875 1.171875 -3.125 1.171875zm9.688232 -8.5625l0.265625 0.125q0 1.234375 0.109375 1.875l-0.484375 0.171875q-0.25 -0.96875 -0.703125 -1.34375q-0.4375 -0.375 -1.125 -0.375q-0.6875 0 -1.09375 0.359375q-0.390625 0.359375 -0.390625 0.859375q0 0.84375 0.984375 1.40625l1.9375 1.0625q1.265625 0.703125 1.265625 2.03125q0 0.96875 -0.78125 1.6875q-0.765625 0.703125 -2.1875 0.703125q-1.421875 0 -2.921875 -0.46875q0.21875 -1.34375 0.21875 -2.1875l0.5 -0.171875q0.171875 0.6875 0.25 0.9375q0.09375 0.234375 0.3125 0.59375q0.21875 0.359375 0.546875 0.484375q0.34375 0.109375 1.015625 0.109375q0.671875 0 1.109375 -0.375q0.4375 -0.390625 0.4375 -0.921875q0 -0.796875 -0.90625 -1.28125l-2.046875 -1.140625q-1.25 -0.671875 -1.25 -2.03125q0 -0.984375 0.734375 -1.71875q0.75 -0.734375 2.078125 -0.734375q1.328125 0 2.125 0.34375z" fill-rule="nonzero"></path><path fill="#cccccc" d="m281.34573 115.80389l357.82675 0l0 76.78741l-357.82675 0z" fill-rule="nonzero"></path><path stroke="#000000" stroke-width="1.0" stroke-linejoin="round" stroke-linecap="butt" d="m281.34573 115.80389l357.82675 0l0 76.78741l-357.82675 0z" fill-rule="nonzero"></path><path fill="#666666" d="m349.27502 161.18008q-1.203125 -0.0625 -2.359375 -0.0625q-1.140625 0 -2.328125 0.0625l-0.0625 -0.5625q0.875 -0.171875 1.234375 -0.359375q0.359375 -0.203125 0.46875 -0.5625l3.78125 -11.578125l1.65625 -0.1875l4.4375 11.875q0.125 0.328125 0.4375 0.484375q0.3125 0.15625 1.171875 0.328125l-0.0625 0.5625q-1.1875 -0.0625 -2.59375 -0.0625q-1.40625 0 -2.609375 0.0625l-0.0625 -0.5625q1.359375 -0.265625 1.5625 -0.484375q0.109375 -0.09375 0.109375 -0.203125q0 -0.109375 -1.03125 -3.40625l-4.296875 0l-1.03125 3.375q0 0.25 0.375 0.40625q0.390625 0.140625 1.265625 0.3125l-0.0625 0.5625zm1.515625 -11.265625l-0.078125 0q-0.125 0.453125 -0.328125 1.09375q-0.203125 0.625 -0.609375 1.96875q-0.390625 1.34375 -0.78125 2.671875l3.71875 0l-1.921875 -5.734375zm10.384949 11.375q-1.96875 0 -1.96875 -1.90625q0.015625 -1.671875 0.015625 -3.0625q0 -1.390625 -0.046875 -2.921875l-1.203125 0.03125l-0.0625 -0.21875l0.4375 -0.734375q0.265625 0.046875 0.796875 0.078125l-0.078125 -1.75l1.25 -1.125l0.375 0.171875q-0.046875 1.40625 -0.046875 2.671875l2.796875 -0.015625l0.09375 0.234375l-0.6875 0.75q-0.640625 -0.0625 -2.203125 -0.09375l0 2.546875q0 2.375 0.0625 3.40625q0.046875 0.859375 1.0 0.859375q0.765625 0 1.671875 -0.4375l0.234375 0.625q-1.359375 0.890625 -2.4375 0.890625zm6.100586 0q-1.96875 0 -1.96875 -1.90625q0.015625 -1.671875 0.015625 -3.0625q0 -1.390625 -0.046875 -2.921875l-1.203125 0.03125l-0.0625 -0.21875l0.4375 -0.734375q0.265625 0.046875 0.796875 0.078125l-0.078125 -1.75l1.25 -1.125l0.375 0.171875q-0.046875 1.40625 -0.046875 2.671875l2.796875 -0.015625l0.09375 0.234375l-0.6875 0.75q-0.640625 -0.0625 -2.203125 -0.09375l0 2.546875q0 2.375 0.0625 3.40625q0.046875 0.859375 1.0 0.859375q0.765625 0 1.671875 -0.4375l0.234375 0.625q-1.359375 0.890625 -2.4375 0.890625zm8.459991 -9.03125q0.15625 0 0.5 0.453125q0.359375 0.4375 0.46875 0.875l-0.28125 0.375q-0.6875 -0.265625 -1.4375 -0.265625q-0.734375 0 -1.34375 0.625q-0.609375 0.609375 -0.609375 1.96875q0.015625 3.34375 0.171875 3.890625q0.015625 0.15625 0.53125 0.28125q0.53125 0.125 1.109375 0.15625l-0.0625 0.5625q-0.90625 -0.0625 -2.3125 -0.0625q-1.390625 0 -2.296875 0.0625l0.046875 -0.5625q0.390625 -0.03125 0.796875 -0.15625q0.421875 -0.125 0.4375 -0.25q0.15625 -0.671875 0.15625 -2.671875q0 -3.21875 -0.15625 -3.953125l-1.21875 -0.359375l-0.03125 -0.484375q1.21875 0 2.515625 -0.34375l0.359375 0.171875q-0.046875 0.28125 -0.046875 1.5625q0.546875 -0.921875 1.390625 -1.390625q0.859375 -0.484375 1.3125 -0.484375zm4.314636 -2.125q-0.28125 0.28125 -0.703125 0.28125q-0.421875 0 -0.703125 -0.28125q-0.28125 -0.296875 -0.28125 -0.71875q0 -0.4375 0.28125 -0.71875q0.28125 -0.296875 0.703125 -0.296875q0.421875 0 0.703125 0.296875q0.28125 0.28125 0.28125 0.71875q0 0.421875 -0.28125 0.71875zm0.078125 2.4375l-0.046875 4.203125q0 2.4375 0.15625 3.1875l0.046875 0.25q0.015625 0.125 0.46875 0.25q0.46875 0.125 0.875 0.15625l-0.0625 0.5625q-0.90625 -0.0625 -2.21875 -0.0625q-1.3125 0 -2.21875 0.0625l0.046875 -0.5625q0.40625 -0.03125 0.859375 -0.15625q0.453125 -0.125 0.484375 -0.25q0.140625 -0.671875 0.140625 -2.671875q0 -3.21875 -0.140625 -3.953125l-1.21875 -0.359375l-0.046875 -0.484375q1.21875 0 2.515625 -0.34375l0.359375 0.171875zm6.4585876 7.84375q1.375 0 2.171875 -1.109375q0.796875 -1.109375 0.796875 -2.5q0 -1.40625 -0.6875 -2.328125q-0.6875 -0.9375 -1.921875 -0.9375q-0.921875 0 -2.125 0.609375q0 4.578125 0.171875 5.9375q0.828125 0.328125 1.59375 0.328125zm-1.765625 -6.9375q1.578125 -1.078125 3.046875 -1.078125q1.46875 0 2.421875 1.28125q0.953125 1.28125 0.953125 3.09375q0 1.796875 -1.234375 3.171875q-1.234375 1.359375 -3.609375 1.359375q-1.578125 0 -3.15625 -0.65625q0.15625 -1.671875 0.15625 -5.1875q0 -5.71875 -0.125 -6.6875l-0.03125 -0.328125l-1.21875 -0.359375l-0.03125 -0.5q1.21875 0 2.5 -0.34375l0.359375 0.171875q-0.03125 2.109375 -0.03125 6.0625zm10.562256 7.8125q-1.9375 0 -1.9375 -1.984375l0 -2.53125q0 -2.546875 -0.125 -3.1875l-1.125 -0.359375l-0.03125 -0.484375q1.109375 0 2.40625 -0.34375l0.359375 0.171875q-0.046875 3.390625 -0.046875 6.171875q0 1.265625 1.53125 1.265625q0.640625 0 1.375 -0.203125q0.75 -0.21875 1.1875 -0.5q0.078125 -1.015625 0.078125 -2.40625q0 -2.578125 -0.15625 -3.3125l-1.1875 -0.359375l-0.046875 -0.484375q1.21875 0 2.515625 -0.34375l0.359375 0.171875q-0.0625 1.421875 -0.0625 4.703125l0.0625 2.234375q0 0.3125 0.25 0.5q0.265625 0.171875 0.5 0.21875q0.25 0.046875 0.6875 0.078125l-0.046875 0.546875q-0.6875 0.0625 -2.078125 0.34375q-0.5625 -0.25 -0.78125 -1.140625q-1.8125 1.234375 -3.6875 1.234375zm10.417206 0q-1.96875 0 -1.96875 -1.90625q0.015625 -1.671875 0.015625 -3.0625q0 -1.390625 -0.046875 -2.921875l-1.203125 0.03125l-0.0625 -0.21875l0.4375 -0.734375q0.265625 0.046875 0.796875 0.078125l-0.078125 -1.75l1.25 -1.125l0.375 0.171875q-0.046875 1.40625 -0.046875 2.671875l2.796875 -0.015625l0.09375 0.234375l-0.6875 0.75q-0.640625 -0.0625 -2.203125 -0.09375l0 2.546875q0 2.375 0.0625 3.40625q0.046875 0.859375 1.0 0.859375q0.765625 0 1.671875 -0.4375l0.234375 0.625q-1.359375 0.890625 -2.4375 0.890625zm8.819336 -6.25q0 -0.875 -0.5 -1.296875q-0.484375 -0.4375 -1.09375 -0.4375q-0.890625 0 -1.546875 0.703125q-0.640625 0.703125 -0.84375 1.734375l3.921875 -0.15625q0.0625 -0.28125 0.0625 -0.546875zm-1.65625 6.25q-2.015625 0 -3.046875 -1.140625q-1.015625 -1.15625 -1.015625 -3.0625q0 -1.921875 1.125 -3.3125q1.140625 -1.390625 3.421875 -1.390625q1.15625 0 2.015625 0.8125q0.859375 0.8125 0.859375 2.4375l-0.640625 0.765625q-0.109375 -0.015625 -1.796875 -0.015625q-1.671875 0 -3.375 0.140625l0 0.171875q0 1.71875 0.71875 2.59375q0.734375 0.859375 1.984375 0.859375q1.25 0 2.640625 -0.609375l0.234375 0.578125q-1.46875 1.171875 -3.125 1.171875zm12.539795 -6.390625q0 3.59375 0.15625 4.5625l0.0625 0.359375q0.171875 0.609375 1.921875 0.609375q0.875 0 1.390625 -0.0625q0.515625 -0.0625 1.109375 -0.3125q1.109375 -0.4375 1.671875 -2.1875l0.515625 0.234375q-0.34375 1.046875 -0.453125 3.015625l-7.609375 0q-1.078125 0 -2.28125 0.0625l-0.046875 -0.5625q0.96875 -0.1875 1.3125 -0.328125q0.34375 -0.15625 0.375 -0.484375q0.171875 -1.09375 0.171875 -4.046875q0 -4.78125 -0.109375 -5.96875l-0.046875 -0.375q-0.03125 -0.34375 -0.34375 -0.484375q-0.296875 -0.140625 -1.203125 -0.328125l0.046875 -0.5625q1.203125 0.0625 4.5 0.0625q3.3125 0 4.875 -0.109375l0 0.28125q0 1.5 0.21875 2.796875l-0.515625 0.21875q-0.484375 -1.546875 -1.171875 -1.96875q-0.6875 -0.421875 -2.578125 -0.421875q-0.859375 0 -1.28125 0.078125q-0.421875 0.078125 -0.46875 0.34375q-0.1875 1.234375 -0.21875 4.828125q2.421875 0 2.90625 -0.109375q0.484375 -0.125 0.625 -0.421875q0.140625 -0.3125 0.328125 -1.296875l0.671875 0.078125q-0.15625 1.09375 -0.15625 2.109375q0 1.0 0.15625 2.125l-0.671875 0.09375q-0.1875 -0.984375 -0.328125 -1.28125q-0.140625 -0.3125 -0.625 -0.421875q-0.484375 -0.125 -2.90625 -0.125zm9.780487 5.34375q0 0.375 1.171875 0.375l-0.109375 0.5625q-0.875 -0.0625 -1.609375 -0.0625l-1.828125 0.0625l0.046875 -0.5625q0.5 0 0.734375 -0.125q0.234375 -0.140625 0.46875 -0.40625l2.546875 -3.1875l-2.328125 -3.359375q-0.359375 -0.53125 -1.09375 -0.53125l-0.0625 -0.546875q1.515625 0.046875 2.21875 0.046875l1.625 -0.046875l0.046875 0.546875q-1.0625 0 -1.0625 0.375q0 0.09375 1.71875 2.515625q1.75 -2.359375 1.75 -2.5q0 -0.390625 -0.96875 -0.390625l-0.0625 -0.546875q0.9375 0.046875 1.65625 0.046875l1.5625 -0.046875l0.046875 0.546875q-0.6875 0.046875 -1.15625 0.640625l-2.296875 2.984375l2.484375 3.40625q0.40625 0.578125 1.296875 0.578125l-0.0625 0.5625q-1.515625 -0.0625 -2.21875 -0.0625l-1.828125 0.0625l0.0625 -0.5625q1.0 0 1.0 -0.390625q0 -0.140625 -1.8125 -2.59375q-1.9375 2.515625 -1.9375 2.609375zm14.7378845 -0.203125q-1.578125 1.25 -3.4375 1.25q-1.859375 0 -2.875 -1.171875q-1.0 -1.1875 -1.0 -3.078125q0 -1.890625 1.15625 -3.265625q1.171875 -1.390625 3.265625 -1.390625q0.859375 0 1.53125 0.28125q0.671875 0.265625 0.953125 0.546875q0.296875 0.28125 0.296875 0.453125q0 0.765625 -0.46875 1.390625l-0.453125 0q-0.21875 -0.625 -0.765625 -1.140625q-0.546875 -0.515625 -1.390625 -0.515625q-1.1875 0 -1.828125 1.0625q-0.625 1.046875 -0.625 2.578125q0 1.53125 0.734375 2.328125q0.75 0.796875 2.078125 0.796875q1.328125 0 2.59375 -0.75l0.234375 0.625zm4.780365 1.140625q-0.90625 -0.0625 -2.09375 -0.0625q-1.171875 0 -2.078125 0.0625l0.0625 -0.5625q0.359375 -0.03125 0.765625 -0.15625q0.40625 -0.125 0.421875 -0.25q0.140625 -1.234375 0.140625 -4.75q0 -5.71875 -0.125 -6.6875l-0.03125 -0.328125l-1.21875 -0.359375l-0.03125 -0.5q1.203125 0 2.5 -0.34375l0.359375 0.171875q-0.03125 2.234375 -0.03125 6.0625q2.109375 -1.09375 3.796875 -1.09375q0.953125 0 1.4375 0.375q0.5 0.375 0.5 1.421875l0 2.59375q0 2.4375 0.15625 3.1875l0.03125 0.25q0.015625 0.125 0.421875 0.25q0.421875 0.125 0.796875 0.15625l-0.0625 0.5625q-0.90625 -0.0625 -2.09375 -0.0625q-1.171875 0 -2.078125 0.0625l0.0625 -0.5625q0.359375 -0.03125 0.765625 -0.15625q0.40625 -0.125 0.421875 -0.25q0.15625 -0.671875 0.15625 -3.4375l0 -1.84375q0 -0.75 -0.4375 -1.03125q-0.4375 -0.28125 -1.046875 -0.28125q-0.609375 0 -0.984375 0.046875q-0.359375 0.046875 -0.671875 0.125q-0.75 0.203125 -0.984375 0.296875l-0.1875 0.0625q0 5.640625 0.203125 6.0625q0.015625 0.125 0.421875 0.25q0.421875 0.125 0.796875 0.15625l-0.0625 0.5625zm11.425812 -4.046875q-1.5625 0.03125 -2.375 0.59375q-0.8125 0.546875 -0.8125 1.1875q0 0.640625 0.328125 0.9375q0.328125 0.296875 1.0625 0.296875q0.75 0 1.796875 -0.625l0 -2.390625zm1.390625 4.15625q-1.140625 0 -1.328125 -1.234375q-1.6875 1.234375 -2.890625 1.234375q-0.828125 0 -1.40625 -0.5q-0.5625 -0.515625 -0.5625 -1.578125q0 -1.0625 1.125 -1.90625q1.140625 -0.859375 3.671875 -1.03125l0 -1.765625q0 -0.53125 -0.390625 -0.8125q-0.390625 -0.296875 -1.09375 -0.296875q-0.703125 0 -1.125 0.390625q-0.40625 0.390625 -0.40625 1.0q0 0.234375 0.046875 0.515625l-0.421875 0.1875q-0.375 -0.203125 -0.703125 -0.5625q-0.328125 -0.375 -0.328125 -0.53125q0 -0.15625 0.25 -0.46875q0.25 -0.3125 0.6875 -0.671875q0.4375 -0.375 1.171875 -0.625q0.734375 -0.25 1.640625 -0.25q0.921875 0 1.484375 0.453125q0.578125 0.4375 0.578125 1.609375q0 1.15625 0.109375 4.921875q0.015625 0.90625 0.6875 0.90625q0.28125 0 0.578125 -0.140625l0.203125 0.484375q-0.734375 0.671875 -1.578125 0.671875zm4.8852844 -7.140625l-0.015625 2.625q0 2.4375 0.15625 3.1875l0.03125 0.25q0.03125 0.125 0.4375 0.25q0.40625 0.125 0.78125 0.15625l-0.0625 0.5625q-0.90625 -0.0625 -2.09375 -0.0625q-1.171875 0 -2.078125 0.0625l0.0625 -0.5625q0.359375 -0.03125 0.765625 -0.15625q0.40625 -0.125 0.421875 -0.25q0.15625 -0.671875 0.15625 -2.671875q0 -3.21875 -0.15625 -3.953125l-1.21875 -0.359375l-0.03125 -0.484375q1.21875 0 2.5 -0.34375l0.375 0.171875l0 0.90625q2.109375 -1.09375 3.65625 -1.09375q0.953125 0 1.4375 0.375q0.5 0.375 0.5 1.421875l0 2.59375q0 2.4375 0.140625 3.1875l0.046875 0.25q0.03125 0.125 0.4375 0.25q0.40625 0.125 0.78125 0.15625l-0.046875 0.5625q-0.921875 -0.0625 -2.109375 -0.0625q-1.171875 0 -2.078125 0.0625l0.0625 -0.5625q0.359375 -0.03125 0.765625 -0.15625q0.40625 -0.125 0.421875 -0.25q0.15625 -0.671875 0.15625 -3.4375l0 -1.84375q0 -0.75 -0.4375 -1.03125q-0.4375 -0.28125 -1.484375 -0.28125q-1.046875 0 -2.28125 0.53125zm15.41626 -2.453125q0.140625 0 0.484375 0.453125q0.359375 0.4375 0.484375 0.875l-0.28125 0.359375q-0.34375 -0.171875 -0.828125 -0.171875q-0.46875 0 -0.890625 0.21875q0.671875 0.8125 0.671875 2.140625q0 1.328125 -0.875 2.265625q-0.875 0.9375 -2.59375 0.9375q-0.4375 0 -0.828125 -0.046875q-0.703125 0.90625 -0.703125 1.25q0 0.4375 1.234375 0.4375l1.421875 0q3.59375 0 3.59375 2.3125q0 1.296875 -1.4375 2.34375q-1.4375 1.046875 -3.84375 1.046875q-1.40625 0 -2.4375 -0.46875q-1.015625 -0.46875 -1.015625 -1.3125q0 -1.21875 1.953125 -2.796875q-1.203125 -0.265625 -1.203125 -0.90625q0 -0.65625 1.71875 -2.046875q-1.921875 -0.609375 -1.921875 -3.0625q0 -1.25 0.875 -2.1875q0.890625 -0.9375 2.484375 -0.9375q1.609375 0 2.40625 0.5625q0.234375 -0.359375 0.703125 -0.8125q0.484375 -0.453125 0.828125 -0.453125zm-6.25 12.0q0 0.75 0.546875 1.203125q0.546875 0.453125 1.796875 0.453125q1.265625 0 2.234375 -0.796875q0.96875 -0.78125 0.96875 -1.671875q0 -0.5625 -0.5 -0.9375q-0.484375 -0.359375 -1.53125 -0.359375l-2.578125 0q-0.9375 1.0625 -0.9375 2.109375zm2.453125 -10.515625q-0.5625 0 -0.96875 0.265625q-0.40625 0.25 -0.59375 0.640625q-0.328125 0.765625 -0.328125 1.625q0 0.84375 0.421875 1.578125q0.4375 0.71875 1.390625 0.71875q0.671875 0 1.125 -0.40625q0.453125 -0.421875 0.59375 -0.859375q0.140625 -0.4375 0.15625 -0.90625q0 -2.65625 -1.796875 -2.65625zm11.110321 1.859375q0 -0.875 -0.5 -1.296875q-0.484375 -0.4375 -1.09375 -0.4375q-0.890625 0 -1.546875 0.703125q-0.640625 0.703125 -0.84375 1.734375l3.921875 -0.15625q0.0625 -0.28125 0.0625 -0.546875zm-1.65625 6.25q-2.015625 0 -3.046875 -1.140625q-1.015625 -1.15625 -1.015625 -3.0625q0 -1.921875 1.125 -3.3125q1.140625 -1.390625 3.421875 -1.390625q1.15625 0 2.015625 0.8125q0.859375 0.8125 0.859375 2.4375l-0.640625 0.765625q-0.109375 -0.015625 -1.796875 -0.015625q-1.671875 0 -3.375 0.140625l0 0.171875q0 1.71875 0.71875 2.59375q0.734375 0.859375 1.984375 0.859375q1.25 0 2.640625 -0.609375l0.234375 0.578125q-1.46875 1.171875 -3.125 1.171875zm11.742889 -13.1875l2.890625 0q2.09375 0 3.1875 1.015625q1.109375 1.0 1.109375 2.546875q0 1.546875 -1.375 2.84375q-1.359375 1.296875 -3.640625 1.296875q-0.625 0 -1.34375 -0.125l0.140625 4.125q0.046875 0.34375 0.359375 0.484375q0.328125 0.140625 1.265625 0.328125l-0.0625 0.5625q-1.203125 -0.0625 -2.609375 -0.0625q-1.390625 0 -2.59375 0.0625l-0.0625 -0.5625q0.96875 -0.1875 1.3125 -0.328125q0.34375 -0.15625 0.375 -0.484375q0.15625 -1.125 0.15625 -4.0625q0 -4.765625 -0.109375 -5.953125l-0.046875 -0.375q-0.03125 -0.34375 -0.34375 -0.484375q-0.296875 -0.140625 -1.203125 -0.328125l0.046875 -0.5625q1.203125 0.0625 2.546875 0.0625zm1.875 6.890625q1.625 0 2.546875 -0.765625q0.9375 -0.78125 0.9375 -2.359375q0 -1.59375 -0.796875 -2.28125q-0.796875 -0.6875 -2.390625 -0.6875q-0.703125 0 -0.890625 0.09375q-0.1875 0.09375 -0.265625 0.546875q-0.1875 1.0 -0.1875 5.40625q0.546875 0.046875 1.046875 0.046875zm11.652283 -2.734375q0.15625 0 0.5 0.453125q0.359375 0.4375 0.46875 0.875l-0.28125 0.375q-0.6875 -0.265625 -1.4375 -0.265625q-0.734375 0 -1.34375 0.625q-0.609375 0.609375 -0.609375 1.96875q0.015625 3.34375 0.171875 3.890625q0.015625 0.15625 0.53125 0.28125q0.53125 0.125 1.109375 0.15625l-0.0625 0.5625q-0.90625 -0.0625 -2.3125 -0.0625q-1.390625 0 -2.296875 0.0625l0.046875 -0.5625q0.390625 -0.03125 0.796875 -0.15625q0.421875 -0.125 0.4375 -0.25q0.15625 -0.671875 0.15625 -2.671875q0 -3.21875 -0.15625 -3.953125l-1.21875 -0.359375l-0.03125 -0.484375q1.21875 0 2.515625 -0.34375l0.359375 0.171875q-0.046875 0.28125 -0.046875 1.5625q0.546875 -0.921875 1.390625 -1.390625q0.859375 -0.484375 1.3125 -0.484375zm6.049011 1.046875q-0.78125 0 -1.359375 0.390625q-0.5625 0.390625 -0.828125 0.984375q-0.515625 1.078125 -0.515625 2.0625q0 1.5625 0.625 2.609375q0.625 1.03125 1.984375 1.03125q0.71875 0 1.265625 -0.328125q0.546875 -0.34375 0.84375 -0.875q0.546875 -0.984375 0.578125 -1.96875q0 -3.90625 -2.59375 -3.90625zm0.078125 -0.921875q2.171875 0 3.15625 1.109375q1.0 1.09375 1.0 3.0625q0 1.953125 -1.140625 3.34375q-1.125 1.390625 -3.296875 1.390625q-2.15625 0 -3.15625 -1.09375q-0.984375 -1.09375 -0.984375 -3.046875q0 -1.953125 1.125 -3.359375q1.140625 -1.40625 3.296875 -1.40625zm8.416016 8.90625q-1.96875 0 -1.96875 -1.90625q0.015625 -1.671875 0.015625 -3.0625q0 -1.390625 -0.046875 -2.921875l-1.203125 0.03125l-0.0625 -0.21875l0.4375 -0.734375q0.265625 0.046875 0.796875 0.078125l-0.078125 -1.75l1.25 -1.125l0.375 0.171875q-0.046875 1.40625 -0.046875 2.671875l2.796875 -0.015625l0.09375 0.234375l-0.6875 0.75q-0.640625 -0.0625 -2.203125 -0.09375l0 2.546875q0 2.375 0.0625 3.40625q0.046875 0.859375 1.0 0.859375q0.765625 0 1.671875 -0.4375l0.234375 0.625q-1.359375 0.890625 -2.4375 0.890625zm7.475586 -7.984375q-0.78125 0 -1.359375 0.390625q-0.5625 0.390625 -0.828125 0.984375q-0.515625 1.078125 -0.515625 2.0625q0 1.5625 0.625 2.609375q0.625 1.03125 1.984375 1.03125q0.71875 0 1.265625 -0.328125q0.546875 -0.34375 0.84375 -0.875q0.546875 -0.984375 0.578125 -1.96875q0 -3.90625 -2.59375 -3.90625zm0.078125 -0.921875q2.171875 0 3.15625 1.109375q1.0 1.09375 1.0 3.0625q0 1.953125 -1.140625 3.34375q-1.125 1.390625 -3.296875 1.390625q-2.15625 0 -3.15625 -1.09375q-0.984375 -1.09375 -0.984375 -3.046875q0 -1.953125 1.125 -3.359375q1.140625 -1.40625 3.296875 -1.40625zm12.712891 7.65625q-1.578125 1.25 -3.4375 1.25q-1.859375 0 -2.875 -1.171875q-1.0 -1.1875 -1.0 -3.078125q0 -1.890625 1.15625 -3.265625q1.171875 -1.390625 3.265625 -1.390625q0.859375 0 1.53125 0.28125q0.671875 0.265625 0.953125 0.546875q0.296875 0.28125 0.296875 0.453125q0 0.765625 -0.46875 1.390625l-0.453125 0q-0.21875 -0.625 -0.765625 -1.140625q-0.546875 -0.515625 -1.390625 -0.515625q-1.1875 0 -1.828125 1.0625q-0.625 1.046875 -0.625 2.578125q0 1.53125 0.734375 2.328125q0.75 0.796875 2.078125 0.796875q1.328125 0 2.59375 -0.75l0.234375 0.625zm5.3428955 -6.734375q-0.78125 0 -1.359375 0.390625q-0.5625 0.390625 -0.828125 0.984375q-0.515625 1.078125 -0.515625 2.0625q0 1.5625 0.625 2.609375q0.625 1.03125 1.984375 1.03125q0.71875 0 1.265625 -0.328125q0.546875 -0.34375 0.84375 -0.875q0.546875 -0.984375 0.578125 -1.96875q0 -3.90625 -2.59375 -3.90625zm0.078125 -0.921875q2.171875 0 3.15625 1.109375q1.0 1.09375 1.0 3.0625q0 1.953125 -1.140625 3.34375q-1.125 1.390625 -3.296875 1.390625q-2.15625 0 -3.15625 -1.09375q-0.984375 -1.09375 -0.984375 -3.046875q0 -1.953125 1.125 -3.359375q1.140625 -1.40625 3.296875 -1.40625zm8.041016 -4.96875q-0.046875 2.375 -0.046875 6.953125q0 4.578125 0.21875 5.84375q0.015625 0.125 0.484375 0.265625q0.484375 0.125 0.84375 0.140625l-0.0625 0.5625q-0.90625 -0.0625 -2.203125 -0.0625q-1.296875 0 -2.203125 0.0625l0.0625 -0.5625q0.390625 -0.03125 0.828125 -0.15625q0.453125 -0.125 0.484375 -0.25q0.125 -1.234375 0.125 -4.75q0 -5.71875 -0.109375 -6.6875l-0.046875 -0.328125l-1.203125 -0.359375l-0.046875 -0.5q1.21875 0 2.515625 -0.34375l0.359375 0.171875zm7.637024 5.3125l0.265625 0.125q0 1.234375 0.109375 1.875l-0.484375 0.171875q-0.25 -0.96875 -0.703125 -1.34375q-0.4375 -0.375 -1.125 -0.375q-0.6875 0 -1.09375 0.359375q-0.390625 0.359375 -0.390625 0.859375q0 0.84375 0.984375 1.40625l1.9375 1.0625q1.265625 0.703125 1.265625 2.03125q0 0.96875 -0.78125 1.6875q-0.765625 0.703125 -2.1875 0.703125q-1.421875 0 -2.921875 -0.46875q0.21875 -1.34375 0.21875 -2.1875l0.5 -0.171875q0.171875 0.6875 0.25 0.9375q0.09375 0.234375 0.3125 0.59375q0.21875 0.359375 0.546875 0.484375q0.34375 0.109375 1.015625 0.109375q0.671875 0 1.109375 -0.375q0.4375 -0.390625 0.4375 -0.921875q0 -0.796875 -0.90625 -1.28125l-2.046875 -1.140625q-1.25 -0.671875 -1.25 -2.03125q0 -0.984375 0.734375 -1.71875q0.75 -0.734375 2.078125 -0.734375q1.328125 0 2.125 0.34375z" fill-rule="nonzero"></path><path fill="#cccccc" d="m281.34573 39.016487l357.82675 0l0 76.7874l-357.82675 0z" fill-rule="nonzero"></path><path stroke="#000000" stroke-width="1.0" stroke-linejoin="round" stroke-linecap="butt" d="m281.34573 39.016487l357.82675 0l0 76.7874l-357.82675 0z" fill-rule="nonzero"></path><path fill="#666666" d="m410.1928 71.31456l3.203125 0q1.78125 0 2.703125 0.875q0.9375 0.875 0.9375 2.171875q0 0.875 -0.53125 1.65625q-0.53125 0.78125 -1.46875 1.25q1.515625 0.34375 2.171875 1.1875q0.671875 0.828125 0.671875 2.25q0 1.421875 -1.203125 2.53125q-1.203125 1.09375 -2.984375 1.09375l-3.5 0q-1.46875 0 -2.671875 0.0625l-0.0625 -0.5625q0.96875 -0.1875 1.3125 -0.328125q0.34375 -0.15625 0.375 -0.484375q0.15625 -1.125 0.15625 -4.0625q0 -4.765625 -0.109375 -5.953125l-0.046875 -0.375q-0.03125 -0.34375 -0.34375 -0.484375q-0.296875 -0.140625 -1.203125 -0.328125l0.046875 -0.5625q1.203125 0.0625 2.546875 0.0625zm5.0625 3.046875q0 -2.25 -2.890625 -2.25q-0.6875 0 -0.890625 0.078125q-0.1875 0.078125 -0.265625 0.34375q-0.21875 0.96875 -0.21875 4.8125q1.34375 -0.234375 2.84375 -0.234375q1.421875 -0.9375 1.421875 -2.75zm-2.125 9.28125q1.1875 0 2.0625 -0.796875q0.875 -0.796875 0.875 -2.1875q0 -2.75 -3.875 -2.75q-0.5625 0 -1.203125 0.0625q0 3.734375 0.15625 4.703125l0.0625 0.359375q0.171875 0.609375 1.921875 0.609375zm11.522583 -8.171875q0.15625 0 0.5 0.453125q0.359375 0.4375 0.46875 0.875l-0.28125 0.375q-0.6875 -0.265625 -1.4375 -0.265625q-0.734375 0 -1.34375 0.625q-0.609375 0.609375 -0.609375 1.96875q0.015625 3.34375 0.171875 3.890625q0.015625 0.15625 0.53125 0.28125q0.53125 0.125 1.109375 0.15625l-0.0625 0.5625q-0.90625 -0.0625 -2.3125 -0.0625q-1.390625 0 -2.296875 0.0625l0.046875 -0.5625q0.390625 -0.03125 0.796875 -0.15625q0.421875 -0.125 0.4375 -0.25q0.15625 -0.671875 0.15625 -2.671875q0 -3.21875 -0.15625 -3.953125l-1.21875 -0.359375l-0.03125 -0.484375q1.21875 0 2.515625 -0.34375l0.359375 0.171875q-0.046875 0.28125 -0.046875 1.5625q0.546875 -0.921875 1.390625 -1.390625q0.859375 -0.484375 1.3125 -0.484375zm6.049011 1.046875q-0.78125 0 -1.359375 0.390625q-0.5625 0.390625 -0.828125 0.984375q-0.515625 1.078125 -0.515625 2.0625q0 1.5625 0.625 2.609375q0.625 1.03125 1.984375 1.03125q0.71875 0 1.265625 -0.328125q0.546875 -0.34375 0.84375 -0.875q0.546875 -0.984375 0.578125 -1.96875q0 -3.90625 -2.59375 -3.90625zm0.078125 -0.921875q2.171875 0 3.15625 1.109375q1.0 1.09375 1.0 3.0625q0 1.953125 -1.140625 3.34375q-1.125 1.390625 -3.296875 1.390625q-2.15625 0 -3.15625 -1.09375q-0.984375 -1.09375 -0.984375 -3.046875q0 -1.953125 1.125 -3.359375q1.140625 -1.40625 3.296875 -1.40625zm16.259796 1.203125q0 -0.4375 -1.1875 -0.578125l-0.0625 -0.546875q0.796875 0.046875 1.515625 0.046875l1.9375 -0.046875l0.0625 0.546875q-0.96875 0.125 -1.203125 0.703125l-2.203125 7.40625l-1.40625 0.171875l-2.078125 -5.46875l-2.015625 5.296875l-1.421875 0.171875l-2.21875 -7.5q-0.15625 -0.640625 -1.15625 -0.78125l-0.046875 -0.546875q1.3125 0.046875 2.015625 0.046875l2.125 -0.046875l0.046875 0.546875q-0.890625 0.109375 -1.171875 0.421875q-0.09375 0.109375 -0.09375 0.1875q0 0.078125 1.53125 6.390625l2.546875 -7.4375l0.421875 0l2.546875 7.4375q1.515625 -6.296875 1.515625 -6.421875zm7.8695374 -0.859375l0.265625 0.125q0 1.234375 0.109375 1.875l-0.484375 0.171875q-0.25 -0.96875 -0.703125 -1.34375q-0.4375 -0.375 -1.125 -0.375q-0.6875 0 -1.09375 0.359375q-0.390625 0.359375 -0.390625 0.859375q0 0.84375 0.984375 1.40625l1.9375 1.0625q1.265625 0.703125 1.265625 2.03125q0 0.96875 -0.78125 1.6875q-0.765625 0.703125 -2.1875 0.703125q-1.421875 0 -2.921875 -0.46875q0.21875 -1.34375 0.21875 -2.1875l0.5 -0.171875q0.171875 0.6875 0.25 0.9375q0.09375 0.234375 0.3125 0.59375q0.21875 0.359375 0.546875 0.484375q0.34375 0.109375 1.015625 0.109375q0.671875 0 1.109375 -0.375q0.4375 -0.390625 0.4375 -0.921875q0 -0.796875 -0.90625 -1.28125l-2.046875 -1.140625q-1.25 -0.671875 -1.25 -2.03125q0 -0.984375 0.734375 -1.71875q0.75 -0.734375 2.078125 -0.734375q1.328125 0 2.125 0.34375zm7.6579285 2.3125q0 -0.875 -0.5 -1.296875q-0.484375 -0.4375 -1.09375 -0.4375q-0.890625 0 -1.546875 0.703125q-0.640625 0.703125 -0.84375 1.734375l3.921875 -0.15625q0.0625 -0.28125 0.0625 -0.546875zm-1.65625 6.25q-2.015625 0 -3.046875 -1.140625q-1.015625 -1.15625 -1.015625 -3.0625q0 -1.921875 1.125 -3.3125q1.140625 -1.390625 3.421875 -1.390625q1.15625 0 2.015625 0.8125q0.859375 0.8125 0.859375 2.4375l-0.640625 0.765625q-0.109375 -0.015625 -1.796875 -0.015625q-1.671875 0 -3.375 0.140625l0 0.171875q0 1.71875 0.71875 2.59375q0.734375 0.859375 1.984375 0.859375q1.25 0 2.640625 -0.609375l0.234375 0.578125q-1.46875 1.171875 -3.125 1.171875zm9.860107 -9.03125q0.15625 0 0.5 0.453125q0.359375 0.4375 0.46875 0.875l-0.28125 0.375q-0.6875 -0.265625 -1.4375 -0.265625q-0.734375 0 -1.34375 0.625q-0.609375 0.609375 -0.609375 1.96875q0.015625 3.34375 0.171875 3.890625q0.015625 0.15625 0.53125 0.28125q0.53125 0.125 1.109375 0.15625l-0.0625 0.5625q-0.90625 -0.0625 -2.3125 -0.0625q-1.390625 0 -2.296875 0.0625l0.046875 -0.5625q0.390625 -0.03125 0.796875 -0.15625q0.421875 -0.125 0.4375 -0.25q0.15625 -0.671875 0.15625 -2.671875q0 -3.21875 -0.15625 -3.953125l-1.21875 -0.359375l-0.03125 -0.484375q1.21875 0 2.515625 -0.34375l0.359375 0.171875q-0.046875 0.28125 -0.046875 1.5625q0.546875 -0.921875 1.390625 -1.390625q0.859375 -0.484375 1.3125 -0.484375zm10.384949 8.921875q-1.203125 -0.0625 -2.359375 -0.0625q-1.140625 0 -2.328125 0.0625l-0.0625 -0.5625q0.875 -0.171875 1.234375 -0.359375q0.359375 -0.203125 0.46875 -0.5625l3.78125 -11.578125l1.65625 -0.1875l4.4375 11.875q0.125 0.328125 0.4375 0.484375q0.3125 0.15625 1.171875 0.328125l-0.0625 0.5625q-1.1875 -0.0625 -2.59375 -0.0625q-1.40625 0 -2.609375 0.0625l-0.0625 -0.5625q1.359375 -0.265625 1.5625 -0.484375q0.109375 -0.09375 0.109375 -0.203125q0 -0.109375 -1.03125 -3.40625l-4.296875 0l-1.03125 3.375q0 0.25 0.375 0.40625q0.390625 0.140625 1.265625 0.3125l-0.0625 0.5625zm1.515625 -11.265625l-0.078125 0q-0.125 0.453125 -0.328125 1.09375q-0.203125 0.625 -0.609375 1.96875q-0.390625 1.34375 -0.78125 2.671875l3.71875 0l-1.921875 -5.734375zm9.963074 -1.8125l2.890625 0q2.09375 0 3.1875 1.015625q1.109375 1.0 1.109375 2.546875q0 1.546875 -1.375 2.84375q-1.359375 1.296875 -3.640625 1.296875q-0.625 0 -1.34375 -0.125l0.140625 4.125q0.046875 0.34375 0.359375 0.484375q0.328125 0.140625 1.265625 0.328125l-0.0625 0.5625q-1.203125 -0.0625 -2.609375 -0.0625q-1.390625 0 -2.59375 0.0625l-0.0625 -0.5625q0.96875 -0.1875 1.3125 -0.328125q0.34375 -0.15625 0.375 -0.484375q0.15625 -1.125 0.15625 -4.0625q0 -4.765625 -0.109375 -5.953125l-0.046875 -0.375q-0.03125 -0.34375 -0.34375 -0.484375q-0.296875 -0.140625 -1.203125 -0.328125l0.046875 -0.5625q1.203125 0.0625 2.546875 0.0625zm1.875 6.890625q1.625 0 2.546875 -0.765625q0.9375 -0.78125 0.9375 -2.359375q0 -1.59375 -0.796875 -2.28125q-0.796875 -0.6875 -2.390625 -0.6875q-0.703125 0 -0.890625 0.09375q-0.1875 0.09375 -0.265625 0.546875q-0.1875 1.0 -0.1875 5.40625q0.546875 0.046875 1.046875 0.046875zm9.839752 -5.578125q-0.140625 1.125 -0.140625 4.0625q0 4.765625 0.109375 5.9375l0.03125 0.390625q0.046875 0.34375 0.359375 0.484375q0.328125 0.140625 1.265625 0.328125l-0.0625 0.5625q-1.203125 -0.0625 -2.609375 -0.0625q-1.390625 0 -2.59375 0.0625l-0.0625 -0.5625q0.96875 -0.1875 1.3125 -0.328125q0.34375 -0.15625 0.375 -0.484375q0.15625 -1.125 0.15625 -4.0625q0 -4.765625 -0.109375 -5.953125l-0.046875 -0.375q-0.03125 -0.34375 -0.34375 -0.484375q-0.296875 -0.140625 -1.203125 -0.328125l0.046875 -0.5625q1.203125 0.0625 2.515625 0.0625q1.3125 0 2.5 -0.0625l0.0625 0.5625q-0.90625 0.1875 -1.21875 0.328125q-0.296875 0.140625 -0.34375 0.484375zm8.021057 3.3125l0.265625 0.125q0 1.234375 0.109375 1.875l-0.484375 0.171875q-0.25 -0.96875 -0.703125 -1.34375q-0.4375 -0.375 -1.125 -0.375q-0.6875 0 -1.09375 0.359375q-0.390625 0.359375 -0.390625 0.859375q0 0.84375 0.984375 1.40625l1.9375 1.0625q1.265625 0.703125 1.265625 2.03125q0 0.96875 -0.78125 1.6875q-0.765625 0.703125 -2.1875 0.703125q-1.421875 0 -2.921875 -0.46875q0.21875 -1.34375 0.21875 -2.1875l0.5 -0.171875q0.171875 0.6875 0.25 0.9375q0.09375 0.234375 0.3125 0.59375q0.21875 0.359375 0.546875 0.484375q0.34375 0.109375 1.015625 0.109375q0.671875 0 1.109375 -0.375q0.4375 -0.390625 0.4375 -0.921875q0 -0.796875 -0.90625 -1.28125l-2.046875 -1.140625q-1.25 -0.671875 -1.25 -2.03125q0 -0.984375 0.734375 -1.71875q0.75 -0.734375 2.078125 -0.734375q1.328125 0 2.125 0.34375z" fill-rule="nonzero"></path><path fill="#000000" fill-opacity="0.0" d="m264.61868 192.26044l-31.43306 0" fill-rule="nonzero"></path><path stroke="#000000" stroke-width="2.0" stroke-linejoin="round" stroke-linecap="butt" d="m264.61868 192.26044l-31.43306 0" fill-rule="nonzero"></path><path fill="#000000" fill-opacity="0.0" d="m233.19875 192.25911l0 152.72441" fill-rule="nonzero"></path><path stroke="#000000" stroke-width="2.0" stroke-linejoin="round" stroke-linecap="butt" d="m233.19875 192.25911l0 152.72441" fill-rule="nonzero"></path><path fill="#000000" fill-opacity="0.0" d="m264.61868 344.26044l-31.43306 0" fill-rule="nonzero"></path><path stroke="#000000" stroke-width="2.0" stroke-linejoin="round" stroke-linecap="butt" d="m264.61868 344.26044l-31.43306 0" fill-rule="nonzero"></path><path fill="#000000" fill-opacity="0.0" d="m233.19875 268.62003l-31.433075 0" fill-rule="nonzero"></path><path stroke="#000000" stroke-width="2.0" stroke-linejoin="round" stroke-linecap="butt" d="m233.19875 268.62003l-31.433075 0" fill-rule="nonzero"></path><path fill="#000000" fill-opacity="0.0" d="m676.54596 40.260437l-31.433044 0" fill-rule="nonzero"></path><path stroke="#000000" stroke-width="2.0" stroke-linejoin="round" stroke-linecap="butt" d="m676.54596 40.260437l-31.433044 0" fill-rule="nonzero"></path><path fill="#000000" fill-opacity="0.0" d="m677.12604 40.2591l0 152.7244" fill-rule="nonzero"></path><path stroke="#000000" stroke-width="2.0" stroke-linejoin="round" stroke-linecap="butt" d="m677.12604 40.2591l0 152.7244" fill-rule="nonzero"></path><path fill="#000000" fill-opacity="0.0" d="m676.54596 192.26044l-31.433044 0" fill-rule="nonzero"></path><path stroke="#000000" stroke-width="2.0" stroke-linejoin="round" stroke-linecap="butt" d="m676.54596 192.26044l-31.433044 0" fill-rule="nonzero"></path><path fill="#000000" fill-opacity="0.0" d="m709.12604 116.62002l-31.433105 0" fill-rule="nonzero"></path><path stroke="#000000" stroke-width="2.0" stroke-linejoin="round" stroke-linecap="butt" d="m709.12604 116.62002l-31.433105 0" fill-rule="nonzero"></path><path fill="#000000" fill-opacity="0.0" d="m700.10803 97.96118l125.543335 0l0 35.968506l-125.543335 0z" fill-rule="nonzero"></path><path fill="#000000" d="m724.661 120.34981q0.046875 -1.0625 0.046875 -3.4375q0 -4.34375 -0.125 -5.375l-0.046875 -0.375q-0.0625 -0.453125 -1.015625 -0.640625q-0.21875 -0.0625 -0.765625 -0.171875l0.046875 -0.5625q1.203125 0.0625 2.359375 0.0625q1.171875 0 2.375 -0.0625l0.0625 0.5625q-0.921875 0.1875 -1.234375 0.328125q-0.296875 0.140625 -0.328125 0.484375q-0.1875 1.125 -0.1875 4.0625q0 4.5 0.140625 6.921875l0.0625 0.71875l-1.515625 0.171875l-7.71875 -10.375l-0.09375 0q-0.078125 1.671875 -0.078125 3.59375q0 3.59375 0.15625 4.90625l0.0625 0.390625q0.046875 0.453125 1.0 0.671875q0.234375 0.03125 0.78125 0.140625l-0.0625 0.5625q-1.1875 -0.0625 -2.5 -0.0625q-1.3125 0 -2.515625 0.0625l-0.046875 -0.5625q1.0 -0.1875 1.390625 -0.328125q0.40625 -0.15625 0.4375 -0.484375q0.15625 -1.09375 0.15625 -4.046875q0 -4.78125 -0.109375 -5.96875l-0.046875 -0.375q-0.03125 -0.34375 -0.34375 -0.484375q-0.296875 -0.140625 -1.203125 -0.328125l0.046875 -0.5625q1.203125 0.0625 2.84375 0.0625l7.875 10.5l0.09375 0zm8.176392 -5.296875q-0.78125 0 -1.359375 0.390625q-0.5625 0.390625 -0.828125 0.984375q-0.515625 1.078125 -0.515625 2.0625q0 1.5625 0.625 2.609375q0.625 1.03125 1.984375 1.03125q0.71875 0 1.265625 -0.328125q0.546875 -0.34375 0.84375 -0.875q0.546875 -0.984375 0.578125 -1.96875q0 -3.90625 -2.59375 -3.90625zm0.078125 -0.921875q2.171875 0 3.15625 1.109375q1.0 1.09375 1.0 3.0625q0 1.953125 -1.140625 3.34375q-1.125 1.390625 -3.296875 1.390625q-2.15625 0 -3.15625 -1.09375q-0.984375 -1.09375 -0.984375 -3.046875q0 -1.953125 1.125 -3.359375q1.140625 -1.40625 3.296875 -1.40625zm8.416077 8.90625q-1.96875 0 -1.96875 -1.90625q0.015625 -1.671875 0.015625 -3.0625q0 -1.390625 -0.046875 -2.921875l-1.203125 0.03125l-0.0625 -0.21875l0.4375 -0.734375q0.265625 0.046875 0.796875 0.078125l-0.078125 -1.75l1.25 -1.125l0.375 0.171875q-0.046875 1.40625 -0.046875 2.671875l2.796875 -0.015625l0.09375 0.234375l-0.6875 0.75q-0.640625 -0.0625 -2.203125 -0.09375l0 2.546875q0 2.375 0.0625 3.40625q0.046875 0.859375 1.0 0.859375q0.765625 0 1.671875 -0.4375l0.234375 0.625q-1.359375 0.890625 -2.4375 0.890625zm10.405273 -11.15625q-0.28125 0.28125 -0.703125 0.28125q-0.421875 0 -0.703125 -0.28125q-0.28125 -0.296875 -0.28125 -0.71875q0 -0.4375 0.28125 -0.71875q0.28125 -0.296875 0.703125 -0.296875q0.421875 0 0.703125 0.296875q0.28125 0.28125 0.28125 0.71875q0 0.421875 -0.28125 0.71875zm0.078125 2.4375l-0.046875 4.203125q0 2.4375 0.15625 3.1875l0.046875 0.25q0.015625 0.125 0.46875 0.25q0.46875 0.125 0.875 0.15625l-0.0625 0.5625q-0.90625 -0.0625 -2.21875 -0.0625q-1.3125 0 -2.21875 0.0625l0.046875 -0.5625q0.40625 -0.03125 0.859375 -0.15625q0.453125 -0.125 0.484375 -0.25q0.140625 -0.671875 0.140625 -2.671875q0 -3.21875 -0.140625 -3.953125l-1.21875 -0.359375l-0.046875 -0.484375q1.21875 0 2.515625 -0.34375l0.359375 0.171875zm4.989807 1.578125l-0.015625 2.625q0 2.4375 0.15625 3.1875l0.03125 0.25q0.03125 0.125 0.4375 0.25q0.40625 0.125 0.78125 0.15625l-0.0625 0.5625q-0.90625 -0.0625 -2.09375 -0.0625q-1.171875 0 -2.078125 0.0625l0.0625 -0.5625q0.359375 -0.03125 0.765625 -0.15625q0.40625 -0.125 0.421875 -0.25q0.15625 -0.671875 0.15625 -2.671875q0 -3.21875 -0.15625 -3.953125l-1.21875 -0.359375l-0.03125 -0.484375q1.21875 0 2.5 -0.34375l0.375 0.171875l0 0.90625q2.109375 -1.09375 3.65625 -1.09375q0.953125 0 1.4375 0.375q0.5 0.375 0.5 1.421875l0 2.59375q0 2.4375 0.140625 3.1875l0.046875 0.25q0.03125 0.125 0.4375 0.25q0.40625 0.125 0.78125 0.15625l-0.046875 0.5625q-0.921875 -0.0625 -2.109375 -0.0625q-1.171875 0 -2.078125 0.0625l0.0625 -0.5625q0.359375 -0.03125 0.765625 -0.15625q0.40625 -0.125 0.421875 -0.25q0.15625 -0.671875 0.15625 -3.4375l0 -1.84375q0 -0.75 -0.4375 -1.03125q-0.4375 -0.28125 -1.484375 -0.28125q-1.046875 0 -2.28125 0.53125zm17.720947 -1.421875l0.265625 0.125q0 1.234375 0.109375 1.875l-0.484375 0.171875q-0.25 -0.96875 -0.703125 -1.34375q-0.4375 -0.375 -1.125 -0.375q-0.6875 0 -1.09375 0.359375q-0.390625 0.359375 -0.390625 0.859375q0 0.84375 0.984375 1.40625l1.9375 1.0625q1.265625 0.703125 1.265625 2.03125q0 0.96875 -0.78125 1.6875q-0.765625 0.703125 -2.1875 0.703125q-1.421875 0 -2.921875 -0.46875q0.21875 -1.34375 0.21875 -2.1875l0.5 -0.171875q0.171875 0.6875 0.25 0.9375q0.09375 0.234375 0.3125 0.59375q0.21875 0.359375 0.546875 0.484375q0.34375 0.109375 1.015625 0.109375q0.671875 0 1.109375 -0.375q0.4375 -0.390625 0.4375 -0.921875q0 -0.796875 -0.90625 -1.28125l-2.046875 -1.140625q-1.25 -0.671875 -1.25 -2.03125q0 -0.984375 0.734375 -1.71875q0.75 -0.734375 2.078125 -0.734375q1.328125 0 2.125 0.34375zm9.236084 7.3125q-1.578125 1.25 -3.4375 1.25q-1.859375 0 -2.875 -1.171875q-1.0 -1.1875 -1.0 -3.078125q0 -1.890625 1.15625 -3.265625q1.171875 -1.390625 3.265625 -1.390625q0.859375 0 1.53125 0.28125q0.671875 0.265625 0.953125 0.546875q0.296875 0.28125 0.296875 0.453125q0 0.765625 -0.46875 1.390625l-0.453125 0q-0.21875 -0.625 -0.765625 -1.140625q-0.546875 -0.515625 -1.390625 -0.515625q-1.1875 0 -1.828125 1.0625q-0.625 1.046875 -0.625 2.578125q0 1.53125 0.734375 2.328125q0.75 0.796875 2.078125 0.796875q1.328125 0 2.59375 -0.75l0.234375 0.625zm5.3428345 -6.734375q-0.78125 0 -1.359375 0.390625q-0.5625 0.390625 -0.828125 0.984375q-0.515625 1.078125 -0.515625 2.0625q0 1.5625 0.625 2.609375q0.625 1.03125 1.984375 1.03125q0.71875 0 1.265625 -0.328125q0.546875 -0.34375 0.84375 -0.875q0.546875 -0.984375 0.578125 -1.96875q0 -3.90625 -2.59375 -3.90625zm0.078125 -0.921875q2.171875 0 3.15625 1.109375q1.0 1.09375 1.0 3.0625q0 1.953125 -1.140625 3.34375q-1.125 1.390625 -3.296875 1.390625q-2.15625 0 -3.15625 -1.09375q-0.984375 -1.09375 -0.984375 -3.046875q0 -1.953125 1.125 -3.359375q1.140625 -1.40625 3.296875 -1.40625zm9.572327 7.890625q1.53125 0 2.28125 -1.015625q0.765625 -1.015625 0.765625 -2.421875q0 -1.40625 -0.65625 -2.328125q-0.65625 -0.9375 -1.96875 -0.9375q-0.515625 0 -1.1875 0.203125q-0.65625 0.1875 -0.984375 0.390625l0 5.796875q0.921875 0.3125 1.75 0.3125zm-0.359375 5.84375q-0.90625 -0.0625 -2.203125 -0.0625q-1.296875 0 -2.203125 0.0625l0.0625 -0.546875q1.265625 -0.125 1.3125 -0.375q0.21875 -1.078125 0.21875 -4.609375q0 -5.703125 -0.109375 -6.671875l-0.046875 -0.328125l-1.203125 -0.359375l-0.046875 -0.484375q1.203125 0 2.5 -0.34375l0.359375 0.171875l0 0.921875q1.46875 -1.109375 3.0 -1.109375q1.546875 0 2.5 1.03125q0.953125 1.015625 0.953125 3.21875q0 2.1875 -1.203125 3.421875q-1.1875 1.234375 -2.921875 1.234375q-1.25 0 -2.359375 -0.609375q0.03125 4.25 0.125 4.515625q0.03125 0.25 1.328125 0.375l-0.0625 0.546875zm12.108154 -11.078125q0 -0.875 -0.5 -1.296875q-0.484375 -0.4375 -1.09375 -0.4375q-0.890625 0 -1.546875 0.703125q-0.640625 0.703125 -0.84375 1.734375l3.921875 -0.15625q0.0625 -0.28125 0.0625 -0.546875zm-1.65625 6.25q-2.015625 0 -3.046875 -1.140625q-1.015625 -1.15625 -1.015625 -3.0625q0 -1.921875 1.125 -3.3125q1.140625 -1.390625 3.421875 -1.390625q1.15625 0 2.015625 0.8125q0.859375 0.8125 0.859375 2.4375l-0.640625 0.765625q-0.109375 -0.015625 -1.796875 -0.015625q-1.671875 0 -3.375 0.140625l0 0.171875q0 1.71875 0.71875 2.59375q0.734375 0.859375 1.984375 0.859375q1.25 0 2.640625 -0.609375l0.234375 0.578125q-1.46875 1.171875 -3.125 1.171875z" fill-rule="nonzero"></path></g></svg>

